<?xml version="1.0" standalone="no"?>
<!DOCTYPE svg PUBLIC "-//W3C//DTD SVG 1.1//EN" "http://www.w3.org/Graphics/SVG/1.1/DTD/svg11.dtd" >
<svg>
<metadata>
Created by FontForge 20090914 at Wed Aug 19 15:40:51 2015
 By www-data
Copyright \(c\)  M. Klein,, 2004. All rights reserved.
</metadata>
<defs>
<font id="MankSans" horiz-adv-x="746" >
  <font-face 
    font-family="MankSans"
    font-weight="400"
    font-stretch="normal"
    units-per-em="1000"
    panose-1="2 0 6 3 2 0 0 2 0 3"
    ascent="800"
    descent="-200"
    x-height="474"
    cap-height="706"
    bbox="-28 -265.001 984.088 967"
    underline-thickness="20"
    underline-position="-123"
    unicode-range="U+0005-U+E007"
  />
<missing-glyph horiz-adv-x="313" 
d="M263 325v23l-9 8h-196l-8 -8v-23l9 -8h196z" />
    <glyph glyph-name=".notdef" horiz-adv-x="313" 
d="M263 325v23l-9 8h-196l-8 -8v-23l9 -8h196z" />
    <glyph glyph-name="breve" horiz-adv-x="443" 
d="M393 730c0 5.33301 -2.66406 7.99707 -7.99707 7.99707h-30l-8 -8c0 -19.333 -2.66699 -37.5 -8 -54.5s-13.333 -31.667 -24 -44s-23.834 -22.166 -39.501 -29.499s-33.834 -11 -54.501 -11s-38.834 3.5 -54.501 10.5s-28.834 16.833 -39.501 29.5
s-18.667 27.334 -24 44.001s-8 35 -8 55l-8 8c-2 0 -5.16699 0.166992 -9.5 0.5s-8.5 0.5 -12.5 0.5s-7.5 -0.666992 -10.5 -2s-4.5 -3.66602 -4.5 -6.99902c0 -54 14.833 -97.167 44.5 -129.5s71.834 -48.5 126.501 -48.5c26 0 49.667 4.33301 71 13s39.5 21 54.5 37
s26.5 34.833 34.5 56.5s12 45.5 12 71.5z" />
    <glyph glyph-name="dotaccent" horiz-adv-x="247" 
d="M197 650c0 19.333 -7.33301 36.335 -22 51.002s-31.667 22 -51 22c-10 0 -19.333 -2 -28 -6s-16.5 -9.33301 -23.5 -16s-12.5 -14.334 -16.5 -23.001s-6 -18 -6 -28s2 -19.333 6 -28s9.5 -16.334 16.5 -23.001s14.833 -12 23.5 -16s18 -6 28 -6
c19.333 0 36.333 7.33301 51 22s22 31.667 22 51z" />
    <glyph glyph-name="ring" horiz-adv-x="319" 
d="M269 614c0 31.333 -10.5 57.167 -31.5 77.5s-47.167 30.5 -78.5 30.5c-30.667 0 -56.5 -10.167 -77.5 -30.5s-31.5 -46.166 -31.5 -77.499c0 -16 2.66699 -30.667 8 -44s13 -24.833 23 -34.5s21.667 -17.334 35 -23.001s28 -8.5 44 -8.5c31.333 0 57.333 10.333 78 31
s31 47 31 79zM227 614.001h-1c0 -20.667 -5.83301 -37.667 -17.5 -51s-28.167 -20 -49.5 -20c-20 0 -36.167 7 -48.5 21s-18.5 30.667 -18.5 50s6.33301 35.833 19 49.5s29 20.5 49 20.5s36.167 -6.83301 48.5 -20.5s18.5 -30.167 18.5 -49.5z" />
    <glyph glyph-name="hungarumlaut" unicode="&#xa;" horiz-adv-x="393" 
d="M343 764c0 4 -2.66699 6 -8 6h-35l-7 -3c-2 -3.33301 -7 -10.5 -15 -21.5l-27.5 -39l-33.5 -48l-32.5 -47l-24.5 -36.5c-6.66699 -10 -10 -15.333 -10 -16c0 -5.33301 3 -8 9 -8h17l6 3l17.5 21.5l31 39.5l37.5 48l36.5 47l27.5 37c7.33301 10 11 15.667 11 17zM243 764
c0 4 -2.66699 6 -8 6h-35l-7 -3c-2 -3.33301 -7 -10.5 -15 -21.5l-27.5 -39l-33.5 -48l-32.5 -47l-24.5 -36.5c-6.66699 -10 -10 -15.333 -10 -16c0 -5.33301 3 -8 9 -8h18l6 3l17 21.5l31 39.5l37.5 48l36 47l27.5 37c7.33301 10 11 15.667 11 17z" />
    <glyph glyph-name="ogonek" horiz-adv-x="252" 
d="M202 -121c0 3.33301 -2.49902 6.16797 -7.49902 8.50098l-11.5 5.5l-10 -2c-9.33301 -14.667 -22.666 -22 -39.999 -22c-12.667 0 -21.834 4.5 -27.501 13.5s-8.5 19.167 -8.5 30.5c0 6 1.83301 13.167 5.5 21.5s8 16.833 13 25.5s10.333 16.667 16 24l14.5 19v-1l3 5
l-13 6c-2 5.33301 -6.66699 8 -14 8l-8 -4l-19 -25c-7.33301 -9.33301 -14.333 -19 -21 -29s-12.334 -20.333 -17.001 -31s-7 -20.334 -7 -29.001c0 -21.333 6.83301 -39.333 20.5 -54s31.5 -22 53.5 -22c6 0 13.5 1.33301 22.5 4s17.667 6.33398 26 11.001
s15.333 10.167 21 16.5s8.5 13.166 8.5 20.499z" />
    <glyph glyph-name="caron" horiz-adv-x="446" 
d="M396 734c0 2 -1 3.66699 -3 5s-4 2 -6 2h-19l-6 -3l-70 -76.5l-70 -76.5l-141 153l-6 3h-15c-6.66699 0 -10 -2.33301 -10 -7c0 -1.33301 3 -6.16602 9 -14.499s13.833 -18.5 23.5 -30.5l31 -39.5l32 -40.5l27 -33c7.66699 -9.33301 12.5 -15.333 14.5 -18l6 -3h59l6 3
c2 2.66699 6.83301 8.66699 14.5 18l26.5 33l32.5 40.5l31.5 39.5l23.5 30.5c6.33301 8.33301 9.5 13.166 9.5 14.499z" />
    <glyph glyph-name="dotlessi" unicode="&#xd;" horiz-adv-x="143" 
d="M93 8v458l-8 8h-27l-8 -8v-458l8 -8h27z" />
    <glyph glyph-name="fraction" horiz-adv-x="633" 
d="M583 692c0 5.33301 -3 8 -9 8h-33l-7 -3l-31 -44l-59.5 -84l-78 -110.5l-86.5 -122.5l-85 -120.5l-73 -104.5l-51.5 -74c-13 -18.667 -19.5 -28.334 -19.5 -29.001c0 -5.33301 3 -8 9 -8h34l7 3l31 44l59.5 84l78 110.5l86.5 122.5l85 120.5l72.5 104.5l51 74
c13 18.667 19.5 28.334 19.5 29.001z" />
    <glyph glyph-name="fi" horiz-adv-x="484" 
d="M434 8v458l-8 8h-25l-8 -8v-458l8 -8h25zM422 669l-0.000976562 25.999l-4 7c-19.333 9.33301 -41.666 17.333 -66.999 24s-48.666 10 -69.999 10c-43.333 0 -75.666 -8.5 -96.999 -25.5s-36 -39 -44 -66s-11.833 -56.833 -11.5 -89.5s0.5 -65 0.5 -97h-71l-8 -8v-22
l8 -8h71v-412l8 -8h25l8 8v412h167l8 8v22l-8 8h-167v107c0 18.667 1.83301 36.334 5.5 53.001s9.66699 31 18 43s19.666 21.5 33.999 28.5s32.166 10.5 53.499 10.5c20.667 0 43 -3.5 67 -10.5s44.667 -16.167 62 -27.5z" />
    <glyph glyph-name="fl" horiz-adv-x="499" 
d="M449 8l-0.00585938 682.999l-6 7c-23.333 10.667 -49.666 19.667 -78.999 27s-56.666 11 -81.999 11c-43.333 0 -75.666 -8.5 -96.999 -25.5s-36 -38.833 -44 -65.5s-11.833 -56.5 -11.5 -89.5s0.5 -65.5 0.5 -97.5h-72l-8 -8v-22l9 -8h71v-412l8 -8h25l8 8v412h167l8 8
v22l-9 8h-167v107c0 18.667 1.83301 36.334 5.5 53.001s9.83398 31 18.501 43s20.334 21.5 35.001 28.5s32.667 10.5 54 10.5s42.333 -2.83301 63 -8.5s41.334 -12.167 62.001 -19.5v-664l8 -8h25z" />
    <glyph glyph-name="Lslash" horiz-adv-x="220" 
d="M170 488c0 16.667 -5.83301 30.834 -17.5 42.501s-25.834 17.5 -42.501 17.5s-30.834 -5.83301 -42.501 -17.5s-17.5 -25.834 -17.5 -42.501s5.83301 -30.834 17.5 -42.501s25.834 -17.5 42.501 -17.5s30.834 5.83301 42.501 17.5s17.5 25.834 17.5 42.501zM158 466
c0 -5.33301 -1.83301 -9.83301 -5.5 -13.5s-8.16699 -5.5 -13.5 -5.5s-9.83301 1.83301 -13.5 5.5s-5.5 8.16699 -5.5 13.5s1.83301 9.83301 5.5 13.5s8.16699 5.5 13.5 5.5s9.83301 -1.83301 13.5 -5.5s5.5 -8.16699 5.5 -13.5z" />
    <glyph glyph-name="lslash" horiz-adv-x="505" 
d="M455 488c0 16.667 -5.83301 30.834 -17.5 42.501s-25.834 17.5 -42.501 17.5s-30.834 -5.83301 -42.501 -17.5s-17.5 -25.834 -17.5 -42.501s5.83301 -30.834 17.5 -42.501s25.834 -17.5 42.501 -17.5s30.834 5.83301 42.501 17.5s17.5 25.834 17.5 42.501zM185 488
c0 16.667 -5.83301 30.834 -17.5 42.501s-25.834 17.5 -42.501 17.5s-30.834 -5.83301 -42.501 -17.5s-17.5 -25.834 -17.5 -42.501s5.83301 -30.834 17.5 -42.501s25.834 -17.5 42.501 -17.5s30.834 5.83301 42.501 17.5s17.5 25.834 17.5 42.501zM305 101l0.000976562 596
l-9 8h-151l-8 -8v-23l9 -8l117 -1v-569c0 -20 -1.66699 -39.833 -5 -59.5s-9.33301 -37.5 -18 -53.5s-20.834 -28.833 -36.501 -38.5s-35.5 -14.5 -59.5 -14.5c-10 0 -18.5 1.16699 -25.5 3.5s-13.833 5.16602 -20.5 8.49902s-13 6.83301 -19 10.5s-13 6.83398 -21 9.50098
c-5.33301 0 -8 -3 -8 -9l6 -35l4 -6c12 -6.66699 25.667 -11.667 41 -15s30 -5 44 -5c31.333 0 57.333 5.83301 78 17.5s37 27.167 49 46.5s20.5 41.5 25.5 66.5s7.5 51.167 7.5 78.5zM405.001 -127l-7 5.99805h-23l-6 -6c0 -30 -8.33301 -55.5 -25 -76.5
s-41 -31.5 -73 -31.5c-32.667 0 -57.167 10.333 -73.5 31s-24.5 46.334 -24.5 77.001l-6 6h-22l-7 -6c1.33301 -42 12.833 -75.5 34.5 -100.5s54.5 -37.5 98.5 -37.5c42 0 74.5 12.833 97.5 38.5s35.167 58.834 36.5 99.501zM443.001 465.998
c0 -5.33301 -1.83301 -9.83301 -5.5 -13.5s-8.16699 -5.5 -13.5 -5.5s-9.83301 1.83301 -13.5 5.5s-5.5 8.16699 -5.5 13.5s1.83301 9.83301 5.5 13.5s8.16699 5.5 13.5 5.5s9.83301 -1.83301 13.5 -5.5s5.5 -8.16699 5.5 -13.5zM173.001 465.998
c0 -5.33301 -1.83301 -9.83301 -5.5 -13.5s-8.16699 -5.5 -13.5 -5.5s-9.83301 1.83301 -13.5 5.5s-5.5 8.16699 -5.5 13.5s1.83301 9.83301 5.5 13.5s8.16699 5.5 13.5 5.5s9.83301 -1.83301 13.5 -5.5s5.5 -8.16699 5.5 -13.5z" />
    <glyph glyph-name="space" unicode=" " horiz-adv-x="263" 
 />
    <glyph glyph-name="exclam" unicode="!" horiz-adv-x="148" 
d="M96 100v598l-8 8h-29l-7 -8v-598l7 -8h29zM98 8v36l-6 7h-36l-6 -7v-36l6 -7h36z" />
    <glyph glyph-name="quotedbl" unicode="&#x22;" horiz-adv-x="227" 
d="M177 701c0 5.33301 -3 8 -9 8h-26l-7 -8v-165l8 -8h18l8 8zM91 701c1.33301 5.33301 -1 8 -7 8h-26l-8 -8v-165l9 -8h18l8 8z" />
    <glyph glyph-name="numbersign" unicode="#" horiz-adv-x="555" 
d="M505 475v27l-8 7h-98l16 160c0 6 -2.66699 9 -8 9h-26l-8 -7l-14 -162h-141l14 160c0 6 -2.66699 9 -8 9h-26l-8 -7l-14 -162h-106l-8 -7v-27l8 -8h101c-2 -24.667 -3.83301 -49.167 -5.5 -73.5s-3.83398 -48.833 -6.50098 -73.5h-101l-8 -8v-27l8 -7h96l-14 -165
c0.666992 -1.33301 1.66699 -3 3 -5s3 -3 5 -3h25l8 6l16 167h140l-15 -165c0.666992 -1.33301 1.66699 -3 3 -5s3 -3 5 -3h26l8 6c2.66699 28 5 55.833 7 83.5s4.33301 55.5 7 83.5h107l8 7v27l-8 8h-102c2 24.667 3.83301 49.167 5.5 73.5s3.83398 48.833 6.50098 73.5
h102zM354 467c-2.66699 -24.667 -4.83398 -49.167 -6.50098 -73.5s-3.5 -48.833 -5.5 -73.5h-141c2.66699 24.667 4.83398 49.167 6.50098 73.5s3.5 48.833 5.5 73.5h141z" />
    <glyph glyph-name="dollar" unicode="$" horiz-adv-x="478" 
d="M428 189c0 37.333 -8.00293 67.1641 -24.0029 89.4971s-36.167 40.5 -60.5 54.5s-50.5 25.833 -78.5 35.5s-54.167 20.334 -78.5 32.001s-44.5 26.5 -60.5 44.5s-24 42.333 -24 73c0 22.667 3.33301 41.5 10 56.5s16.167 27 28.5 36s27.166 15.333 44.499 19
s36.333 5.5 57 5.5c20 0 39.833 -1.33301 59.5 -4s39.167 -7 58.5 -13c4.66699 -1.33301 9.5 -3.16602 14.5 -5.49902s10.167 -4.16602 15.5 -5.49902l5 -1c2 0 3.5 1 4.5 3s1.5 3.66699 1.5 5v30l-6 8c-20.667 7.33301 -42.334 12.666 -65.001 15.999
s-44.667 5.33301 -66 6l7 67c0 6 -2.66699 9 -8 9h-24l-8 -8c0 -11.333 0.333008 -22.666 1 -33.999s1 -22.666 1 -33.999c-25.333 0 -48.666 -3 -69.999 -9s-39.666 -15.167 -54.999 -27.5s-27.166 -28.333 -35.499 -48s-12.5 -43.5 -12.5 -71.5
c0 -37.333 8 -67.166 24 -89.499s36.167 -40.5 60.5 -54.5s50.5 -25.667 78.5 -35s54.167 -19.833 78.5 -31.5s44.5 -26.5 60.5 -44.5s24 -42.667 24 -74c0 -23.333 -4.66699 -42.666 -14 -57.999s-21.5 -27.5 -36.5 -36.5s-32 -15.5 -51 -19.5s-38.167 -6 -57.5 -6
c-22 0 -44 1.83301 -66 5.5s-43.333 9.5 -64 17.5c-5.33301 2 -11.166 5 -17.499 9s-12.166 6.66699 -17.499 8c-1.33301 0.666992 -3.33301 1 -6 1c-2 0 -3.5 -1 -4.5 -3s-1.5 -3.66699 -1.5 -5v-37l5 -8c23.333 -8.66699 48 -15.167 74 -19.5s51.333 -6.83301 76 -7.5
l-5 -77c0 -5.33301 2.66699 -8 8 -8c4 0 10.333 -0.166992 19 -0.5s13 2.5 13 8.5c0 13.333 -0.666992 26.166 -2 38.499s-2.33301 25.166 -3 38.499c26 0 50.667 2.66699 74 8s43.833 14.333 61.5 27s31.667 29.167 42 49.5s15.5 45.166 15.5 74.499z" />
    <glyph glyph-name="percent" unicode="%" horiz-adv-x="589" 
d="M303 577c0 42 -10.167 74.833 -30.5 98.5s-52.166 35.5 -95.499 35.5s-75.333 -11.833 -96 -35.5s-31 -56.5 -31 -98.5c0 -40 10.833 -72.833 32.5 -98.5s53.167 -38.5 94.5 -38.5s72.666 13 93.999 39s32 58.667 32 98zM530 702c0 4.66699 -2.66699 7 -8 7h-30l-6 -4
l-27.5 -44.5l-53 -85l-69.5 -112l-76.5 -124l-75.5 -122l-65.5 -105.5l-45.5 -74.5c-11.333 -19 -17 -28.833 -17 -29.5c0 -5.33301 2.66699 -8 8 -8h31l6 4l27.5 44.5l53 85l69.5 112l76.5 124.5l75 122l65 105.5l45.5 75c11.333 19 17 28.833 17 29.5zM539 131
c0 42 -10.167 75 -30.5 99s-52.166 36 -95.499 36c-44 0 -76.167 -12 -96.5 -36s-30.5 -57 -30.5 -99c0 -40 10.833 -72.833 32.5 -98.5s53.167 -38.5 94.5 -38.5s72.666 13 93.999 39s32 58.667 32 98zM263 577c0 -27.333 -7.00098 -50.833 -21.001 -70.5
s-35.667 -29.5 -65 -29.5s-51.166 9.83301 -65.499 29.5s-21.5 43.167 -21.5 70.5c0 28 7 51.167 21 69.5s36 27.5 66 27.5s51.833 -9.16699 65.5 -27.5s20.5 -41.5 20.5 -69.5zM498.999 131c0 -26.667 -7.00098 -50 -21.001 -70s-35.667 -30 -65 -30
s-51.166 9.83301 -65.499 29.5s-21.5 43.167 -21.5 70.5c0 28 7 51.333 21 70s36 28 66 28s51.833 -9.33301 65.5 -28s20.5 -42 20.5 -70z" />
    <glyph glyph-name="ampersand" unicode="&#x26;" horiz-adv-x="627" 
d="M577 7c0 0.666992 -4.33301 6.49805 -13 17.498l-29 36.5l-30.5 38c-9.66699 12 -15.5 19.667 -17.5 23c6.66699 12 13.334 26 20.001 42s12.834 32.5 18.501 49.5s10.334 33.667 14.001 50s5.5 31.166 5.5 44.499c0 5.33301 -2 9 -6 11s-8 3 -12 3
c-4.66699 0 -9 -1.16699 -13 -3.5s-6 -6.16602 -6 -11.499c0 -26 -4 -54 -12 -84s-18.667 -56.333 -32 -79c-36 45.333 -69.333 93.333 -100 144l-91 150c16 8 32.667 16.833 50 26.5s33.5 20.834 48.5 33.501s27.333 27 37 43s14.5 34.333 14.5 55
c0 34.667 -11 62.5 -33 83.5s-50 31.5 -84 31.5c-19.333 0 -37.5 -2.5 -54.5 -7.5s-31.833 -12.667 -44.5 -23s-22.667 -23.166 -30 -38.499s-11 -33.333 -11 -54c0 -24.667 4.83301 -48.167 14.5 -70.5s20.5 -43.833 32.5 -64.5
c-23.333 -13.333 -44.833 -27.833 -64.5 -43.5s-36.834 -33.167 -51.501 -52.5s-26.167 -40.666 -34.5 -63.999s-12.5 -49 -12.5 -77c0 -70 19.5 -124.5 58.5 -163.5s93.5 -58.5 163.5 -58.5c37.333 0 72.666 8.16699 105.999 24.5s61.666 39.166 84.999 68.499l33.5 -44
c11 -14.667 22.833 -28.667 35.5 -42l37 -1c5.33301 -0 8 2.33301 8 7zM382 595.998c0 -15.333 -4.5 -29.335 -13.5 -42.002s-20.167 -24.167 -33.5 -34.5s-27.5 -19.5 -42.5 -27.5l-40.5 -21c-10.667 16.667 -20.5 35.334 -29.5 56.001s-13.5 41 -13.5 61
c0 28 9.66699 49.333 29 64s42 22 68 22c22 0 40.167 -7.66699 54.5 -23s21.5 -33.666 21.5 -54.999zM439 115.996c-19.333 -26 -43.832 -46.668 -73.499 -62.001s-60.834 -23 -93.501 -23c-28 0 -53 4.5 -75 13.5s-40.667 21.833 -56 38.5s-27 36.167 -35 58.5
s-12 47.166 -12 74.499c0 22 3.66699 43.333 11 64s17.333 39.834 30 57.501s27.5 33.334 44.5 47.001s35.167 25.167 54.5 34.5l99.5 -154z" />
    <glyph glyph-name="quotesingle" unicode="'" horiz-adv-x="143" 
d="M93 701c0 5.33301 -3 8 -9 8h-26l-8 -8v-165l9 -8h18l8 8z" />
    <glyph glyph-name="parenleft" unicode="(" horiz-adv-x="246" 
d="M196 9c0 1.33301 -0.331055 2.00195 -0.998047 2.00195v2c-4 13.333 -10.333 27 -19 41s-15.667 27.667 -21 41c-19.333 45.333 -34.166 91.833 -44.499 139.5s-15.5 96.167 -15.5 145.5c0 46 5.16699 91.5 15.5 136.5s24.166 89.167 41.499 132.5
c6 15.333 13.5 30.666 22.5 45.999s15.833 30.666 20.5 45.999v2c0.666992 0 1 0.666992 1 2c0 3.33301 -3.16699 7 -9.5 11s-11.166 6.66699 -14.499 8l-11 -2c-18 -25.333 -33.833 -53.833 -47.5 -85.5s-25.334 -64.334 -35.001 -98.001s-16.834 -67.5 -21.501 -101.5
s-7 -66.333 -7 -97s2.33301 -63.334 7 -98.001s11.667 -69.167 21 -103.5s21 -67.666 35 -99.999s30 -61.166 48 -86.499l11 -2c3.33301 1.33301 8.16602 4 14.499 8s9.5 7.66699 9.5 11z" />
    <glyph glyph-name="parenright" unicode=")" horiz-adv-x="246" 
d="M196 380c0 30.667 -2.49902 63.001 -7.49902 97.001s-12.167 67.833 -21.5 101.5s-21 66.334 -35 98.001s-30 60.167 -48 85.5l-11 2c-2.66699 -1.33301 -7.16699 -4 -13.5 -8s-9.5 -7.66699 -9.5 -11v-4c5.33301 -15.333 12.5 -30.833 21.5 -46.5
s16.5 -30.834 22.5 -45.501c17.333 -43.333 31.166 -87.5 41.499 -132.5s15.5 -90.5 15.5 -136.5c0 -49.333 -5.33301 -97.833 -16 -145.5s-25.334 -94.167 -44.001 -139.5c-5.33301 -13.333 -12.5 -27 -21.5 -41s-15.5 -27.667 -19.5 -41v-4c0 -3.33301 3.16699 -7 9.5 -11
s11.166 -6.66699 14.499 -8l11 2c18 25.333 33.833 54.166 47.5 86.499s25.334 65.666 35.001 99.999s16.834 68.833 21.501 103.5s7 67.334 7 98.001z" />
    <glyph glyph-name="asterisk" unicode="*" horiz-adv-x="454" 
d="M404 655l-19 31.999l-6 2c-24.667 -13.333 -47.5 -27.166 -68.5 -41.499l-65.5 -45.5c1.33301 15.333 3.5 31.833 6.5 49.5s4.5 34.167 4.5 49.5v58l-5 4h-36l-5 -4v-58c0 -16.667 0.833008 -33.5 2.5 -50.5s3.16699 -33.833 4.5 -50.5l-68 47.5
c-23.333 15.667 -47.333 29.5 -72 41.5l-6 -1l-20 -33l2 -6c25.333 -14 50.833 -26.833 76.5 -38.5s51.834 -22.834 78.501 -33.501c-26 -9.33301 -52.5 -19.5 -79.5 -30.5s-52.167 -23.833 -75.5 -38.5l-3 -5l22 -37l6 -2c24.667 14 48.167 28.333 70.5 43l68.5 46
c-1.33301 -16.667 -3 -33.5 -5 -50.5s-3 -33.5 -3 -49.5l1 -71l5 -5h36l5 5v71c0 16 -1.5 32.5 -4.5 49.5s-5.16699 33.5 -6.5 49.5c20 -16 41.167 -31.667 63.5 -47s45.166 -28.666 68.499 -39.999l6 2l20 33l-2 5c-24 14.667 -48.167 27.5 -72.5 38.5l-74.5 33.5l75 34.5
c24.667 11.667 49 24.167 73 37.5z" />
    <glyph glyph-name="plus" unicode="+" horiz-adv-x="408" 
d="M358 362v23l-7 8l-128 -1l1 128l-8 8h-24l-8 -8l1 -128l-128 1l-7 -8v-23l7 -8l128 1l-1 -128l8 -8h24l8 8l-1 128l128 -1z" />
    <glyph glyph-name="comma" unicode="," horiz-adv-x="199" 
d="M149 104c0 4 -2.66602 6 -7.99902 6h-35l-8 -5l-5 -15l-9.5 -28.5c-3.66699 -11 -7.33398 -22.667 -11.001 -35l-10.5 -34l-8.5 -26c-2.33301 -7 -3.5 -10.833 -3.5 -11.5c0 -5.33301 3 -8 9 -8h18l6 5c1.33301 3.33301 5.5 13 12.5 29l22.5 50.5l21.5 48.5
c6.33301 14.667 9.5 22.667 9.5 24z" />
    <glyph glyph-name="hyphen" unicode="-" horiz-adv-x="313" 
d="M263 313v23l-9 8h-196l-8 -8v-23l9 -8h196z" />
    <glyph glyph-name="period" unicode="." horiz-adv-x="163" 
d="M113 2v48l-9 8h-46l-8 -8v-48l9 -8h46z" />
    <glyph glyph-name="slash" unicode="/" horiz-adv-x="399" 
d="M349 698c0 5.33301 -3 8 -9 8h-29l-7 -5c-2 -6 -7.16699 -20.5 -15.5 -43.5l-31 -84.5l-41 -111l-45.5 -124l-45 -122l-39 -105l-27 -74c-6.66699 -18.667 -10 -28.334 -10 -29.001c0 -5.33301 3 -8 9 -8h30l7 5c2 6 7.16699 20.5 15.5 43.5l31 85l41 111.5l45.5 123.5
l44.5 121.5l38.5 105l27 74c6.66699 18.667 10 28.334 10 29.001z" />
    <glyph glyph-name="zero" unicode="0" horiz-adv-x="619" 
d="M569 355c0 26 -2.16699 52.832 -6.5 80.499s-10.833 54.667 -19.5 81s-20 51.333 -34 75s-30.667 44.334 -50 62.001s-41.5 31.667 -66.5 42s-52.833 15.5 -83.5 15.5s-58.5 -5.16699 -83.5 -15.5s-47 -24.333 -66 -42s-35.5 -38.334 -49.5 -62.001
s-25.333 -48.667 -34 -75s-15.167 -53.333 -19.5 -81s-6.5 -54.5 -6.5 -80.5c0 -40 4.66699 -81.167 14 -123.5s24.166 -81.166 44.499 -116.499s47 -64.333 80 -87s73.5 -34 121.5 -34c46 0 85.5 11.5 118.5 34.5s59.833 52.333 80.5 88s35.834 74.667 45.501 117
s14.5 82.833 14.5 121.5zM525 354.999h-0.998047c0 -32 -3.66699 -67 -11 -105s-19.333 -73.167 -36 -105.5s-38.834 -59.333 -66.501 -81s-61.5 -32.5 -101.5 -32.5s-73.667 10.833 -101 32.5s-49.5 48.667 -66.5 81s-29.167 67.5 -36.5 105.5s-11 73 -11 105
c0 31.333 4 65.666 12 102.999s20.5 72 37.5 104s39.167 58.667 66.5 80s60.666 32 99.999 32c38.667 0 71.667 -10.667 99 -32s49.5 -48 66.5 -80s29.5 -66.667 37.5 -104s12 -71.666 12 -102.999z" />
    <glyph glyph-name="one" unicode="1" horiz-adv-x="395" 
d="M345 7v23l-8 8h-85v663l-8 8h-29l-159 -68l-5 -7c0 -1.33301 -0.166992 -3.5 -0.5 -6.5s-0.333008 -6.16699 0 -9.5s0.833008 -6.33301 1.5 -9s2 -4 4 -4c2.66699 0 11.167 3 25.5 9l47 20l48.5 21.5l30 13.5v-631h-86l-8 -8v-23l8 -8h216z" />
    <glyph glyph-name="two" unicode="2" horiz-adv-x="493" 
d="M443 8l0.00292969 145.997l-8 8h-23l-8 -9v-111c-22.667 -1.33301 -45.334 -2.5 -68.001 -3.5s-45.334 -1.5 -68.001 -1.5c-27.333 0 -54.333 0.166992 -81 0.5s-53.667 0.5 -81 0.5c16 20 34.833 42.333 56.5 67l68 78.5l70.5 85.5
c23.333 29.333 44.166 58.833 62.499 88.5s33.166 58.834 44.499 87.501s17 56 17 82c0 34 -4.16699 62.667 -12.5 86s-20.666 42.166 -36.999 56.499s-36.666 24.5 -60.999 30.5s-52.5 9 -84.5 9c-24 0 -48.333 -2.16699 -73 -6.5s-48.667 -9.5 -72 -15.5l-6 -8
c0 -1.33301 -0.166992 -4 -0.5 -8s-0.333008 -8.16699 0 -12.5s0.833008 -8.16602 1.5 -11.499s2 -5 4 -5c4.66699 0 12.167 1.5 22.5 4.5s22.166 6.16699 35.499 9.5s27.5 6.5 42.5 9.5s29.833 4.5 44.5 4.5c48 0 85.5 -11 112.5 -33s40.5 -58.667 40.5 -110
c0 -23.333 -6 -49.166 -18 -77.499s-27.833 -57.666 -47.5 -87.999s-41.667 -60.833 -66 -91.5s-48.833 -60 -73.5 -88l-70.5 -79l-56.5 -63v-32l8 -8h354h23z" />
    <glyph glyph-name="three" unicode="3" horiz-adv-x="473" 
d="M423 189c0 24.667 -4.49805 47.0068 -13.498 67.0068s-21 37.5 -36 52.5s-32.5 27.833 -52.5 38.5s-41 19 -63 25c16 5.33301 32.333 13.666 49 24.999s32 24.666 46 39.999s25.5 31.666 34.5 48.999s13.5 34.666 13.5 51.999c0 29.333 -4.5 54.833 -13.5 76.5
s-21.833 39.667 -38.5 54s-36.334 25 -59.001 32s-48 10.5 -76 10.5c-22 0 -44.667 -1.83301 -68 -5.5s-45.666 -8.83398 -66.999 -15.501l-6 -8c0 -2 -0.166992 -5.33301 -0.5 -10s-0.333008 -9.5 0 -14.5s1 -9.33301 2 -13s2.5 -5.5 4.5 -5.5
c1.33301 0 6.33301 1.83301 15 5.5s19.5 7.5 32.5 11.5s27.167 7.83301 42.5 11.5s30.666 5.5 45.999 5.5c20.667 0 39.667 -3 57 -9s32.5 -14.833 45.5 -26.5s23.167 -25.834 30.5 -42.501s11 -35.667 11 -57c0 -22.667 -6 -43.334 -18 -62.001s-27.333 -34.5 -46 -47.5
s-39 -23.167 -61 -30.5s-43.333 -11 -64 -11l-8 -8v-23l9 -8c24 0 48.333 -3.16699 73 -9.5s47 -16 67 -29s36.333 -29.5 49 -49.5s19 -43.667 19 -71c0 -25.333 -4.83301 -47.666 -14.5 -66.999s-22.667 -35.666 -39 -48.999s-35.333 -23.5 -57 -30.5
s-44.167 -10.5 -67.5 -10.5c-14 0 -29 1.83301 -45 5.5s-31 7.5 -45 11.5s-26 7.83301 -36 11.5s-16 5.5 -18 5.5s-3.66699 -1 -5 -3s-2 -3.66699 -2 -5v-36l7 -8c23.333 -6 47.166 -10.833 71.499 -14.5s48.833 -5.5 73.5 -5.5c29.333 0 57.333 4.16699 84 12.5
s50.167 20.666 70.5 36.999s36.5 36.666 48.5 60.999s18 52.5 18 84.5z" />
    <glyph glyph-name="four" unicode="4" horiz-adv-x="587" 
d="M537 231v23l-9 8h-109v441l-8 8h-29l-6 -3l-326 -454v-23l9 -8h318v-215l7 -8h28l8 8v215h109zM377 641l-1 -379h-270l135.5 189.5z" />
    <glyph glyph-name="five" unicode="5" horiz-adv-x="461" 
d="M411 197c0 70.667 -17.6621 123.834 -52.9951 159.501s-88.666 53.5 -159.999 53.5c-26.667 0 -53.334 -1 -80.001 -3c1.33301 43.333 3.16602 86.5 5.49902 129.5s4.16602 86.167 5.49902 129.5c25.333 0.666992 50.666 1.16699 75.999 1.5s51 0.5 77 0.5
c16.667 0 33.167 -0.166992 49.5 -0.5s32.833 -0.833008 49.5 -1.5c4.66699 1.33301 7 4 7 8c0 5.33301 0.166992 12 0.5 20s-2.83398 13 -9.50098 15c-47.333 -3.33301 -94.666 -4.83301 -141.999 -4.5s-95 0.166016 -143 -0.500977l-8 -8l-13 -325c0 -5.33301 3 -8 9 -8
c19.333 0 38.666 1.5 57.999 4.5s39 4.5 59 4.5c55.333 0 97.166 -15.667 125.499 -47s42.5 -74 42.5 -128c0 -26.667 -4.83301 -50.334 -14.5 -71.001s-22.667 -38 -39 -52s-35.666 -24.667 -57.999 -32s-46.166 -11 -71.499 -11c-13.333 0 -27 1.66699 -41 5
s-26.833 6.83301 -38.5 10.5s-21.834 7.16699 -30.501 10.5s-14.334 5 -17.001 5c-2 0 -3.66699 -1 -5 -3s-2 -3.66699 -2 -5v-34l7 -8c20 -5.33301 41 -9.66602 63 -12.999s43.667 -5 65 -5c30.667 0 59.667 4.5 87 13.5s51.333 22 72 39s37 38.167 49 63.5
s18 54.333 18 87z" />
    <glyph glyph-name="six" unicode="6" horiz-adv-x="547" 
d="M497 219c0 140.667 -68.665 210.999 -205.998 210.999c-35.333 0 -69.833 -7.83301 -103.5 -23.5s-63.5 -35.167 -89.5 -58.5c4 37.333 13.833 75 29.5 113s36.167 72.333 61.5 103s55.166 55.667 89.499 75s72.5 29 114.5 29c5.33301 0 10.666 -0.166992 15.999 -0.5
s10.666 -0.833008 15.999 -1.5c1.33301 0.666992 3 1.66699 5 3s3 3 3 5v26l-7 8l-33 1c-23.333 0.666992 -46.166 -2.5 -68.499 -9.5s-43.5 -15.5 -63.5 -25.5c-37.333 -19.333 -69.333 -43 -96 -71s-48.5 -59 -65.5 -93s-29.5 -70.333 -37.5 -109
s-12 -78.334 -12 -119.001c0 -34.667 4 -69.167 12 -103.5s20.833 -65.166 38.5 -92.499s40.5 -49.5 68.5 -66.5s62 -25.5 102 -25.5c70 0 125.167 19.833 165.5 59.5s60.5 94.834 60.5 165.501zM453.002 218.999c0 -27.333 -4.16895 -52.498 -12.502 -75.498
s-20.5 -42.833 -36.5 -59.5s-35.167 -29.667 -57.5 -39s-47.5 -14 -75.5 -14c-30.667 0 -57.167 8.33301 -79.5 25s-40.666 37.5 -54.999 62.5s-25 52.167 -32 81.5s-10.5 56.666 -10.5 81.999v11c2.66699 0.666992 6 3 10 7c24.667 25.333 52.834 46.666 84.501 63.999
s65.834 26 102.501 26c55.333 0 96.166 -15 122.499 -45s39.5 -72 39.5 -126z" />
    <glyph glyph-name="seven" unicode="7" horiz-adv-x="489" 
d="M439 671v27l-8 8c-124 -1.33301 -248 -1.33301 -372 0l-6 -3l-3 -6v-116l8 -8h23l8 9v83c51.333 2.66699 102.333 4 153 4h154l-17 -43l-32 -81l-41.5 -106l-46 -117.5l-45.5 -115.5l-38.5 -100l-27 -71c-7 -18 -10.5 -27.667 -10.5 -29c0 -2 1 -3.5 3 -4.5
s3.66699 -1.5 5 -1.5h28l6 5z" />
    <glyph glyph-name="eight" unicode="8" horiz-adv-x="549" 
d="M499 194c0 42 -9.66602 79.832 -28.999 113.499s-50.333 56.834 -93 69.501c14 8 27 18.167 39 30.5s22.5 25.833 31.5 40.5s16.167 30.167 21.5 46.5s8 32.5 8 48.5c0 31.333 -5.33301 57.666 -16 78.999s-25.334 38.666 -44.001 51.999s-40.167 22.833 -64.5 28.5
s-50.5 8.5 -78.5 8.5c-27.333 0 -53.333 -2.83301 -78 -8.5s-46.167 -15.167 -64.5 -28.5s-32.833 -30.666 -43.5 -51.999s-16 -47.666 -16 -78.999c0 -38 8.5 -71.5 25.5 -100.5s43.5 -50.5 79.5 -64.5c-18 -8 -34.667 -18.333 -50 -31s-28.666 -27.167 -39.999 -43.5
s-20.333 -33.833 -27 -52.5s-10 -37.667 -10 -57c0 -34 5.83301 -63.667 17.5 -89s27.5 -46.166 47.5 -62.499s43.667 -28.5 71 -36.5s57 -12 89 -12c31.333 0 60.666 4 87.999 12s51 20.167 71 36.5s35.833 37.166 47.5 62.499s17.5 55 17.5 89zM433.001 542.999h-0.998047
c0 -50 -11.5 -87 -34.5 -111s-60.5 -36 -112.5 -36c-24 0 -46.333 2.83301 -67 8.5s-38.5 14.5 -53.5 26.5s-26.833 27.167 -35.5 45.5s-13 40.5 -13 66.5c0 24 4.16699 44.333 12.5 61s19.666 30.167 33.999 40.5s31.166 17.833 50.499 22.5s40 7 62 7
s42.667 -2.33301 62 -7s36 -12.167 50 -22.5s25.167 -23.833 33.5 -40.5s12.5 -37 12.5 -61zM455.003 193.999c0 -27.333 -4.50195 -51.166 -13.502 -71.499s-21.5 -37.166 -37.5 -50.499s-35.167 -23.333 -57.5 -30s-46.5 -10 -72.5 -10s-50 3.33301 -72 10
s-41 16.667 -57 30s-28.5 30.166 -37.5 50.499s-13.5 44.166 -13.5 71.499c0 26.667 4.5 50.167 13.5 70.5s21.333 37.5 37 51.5s34.334 24.667 56.001 32s45.5 11 71.5 11c24.667 0 48.167 -3.66699 70.5 -11s41.833 -18 58.5 -32s29.834 -31.167 39.501 -51.5
s14.5 -43.833 14.5 -70.5z" />
    <glyph glyph-name="nine" unicode="9" horiz-adv-x="547" 
d="M497 454c0 38 -4.49609 72.6621 -13.4961 103.995s-22.667 58.333 -41 81s-42 40.334 -71 53.001s-63.5 19 -103.5 19c-32.667 0 -62.334 -5.33301 -89.001 -16s-49.5 -25.667 -68.5 -45s-33.833 -42.5 -44.5 -69.5s-16 -56.5 -16 -88.5c0 -30 4 -58.5 12 -85.5
s20.167 -50.5 36.5 -70.5s36.666 -35.833 60.999 -47.5s52.833 -17.5 85.5 -17.5c36 0 71.5 7 106.5 21s67.167 31.667 96.5 53c-3.33301 -33.333 -9.5 -68.5 -18.5 -105.5s-22.167 -71 -39.5 -102s-40 -56.833 -68 -77.5s-62.333 -31 -103 -31
c-15.333 0 -30.333 2.16699 -45 6.5s-28.667 6.5 -42 6.5c-6.66699 0 -10 -2.66699 -10 -8v-28l6 -8c15.333 -4 30.5 -6.66699 45.5 -8s30.167 -2 45.5 -2c39.333 0 73.5 7.33301 102.5 22s53.667 34.334 74 59.001s37.166 52.834 50.499 84.501
s23.666 64.834 30.999 99.501s12.5 69.334 15.5 104.001s4.5 67 4.5 97zM453.004 453.995l0.000976562 -29.001c0 -9.33301 -0.333008 -18.666 -1 -27.999l-5 -2c-7.33301 -3.33301 -14 -8 -20 -14s-12.667 -11.333 -20 -16c-24 -15.333 -49.667 -28.166 -77 -38.499
s-55.666 -15.5 -84.999 -15.5c-26 0 -48.333 5 -67 15s-34.334 23.5 -47.001 40.5s-22 36.333 -28 58s-9 44.167 -9 67.5c0 25.333 4.16699 49 12.5 71s20.166 41.333 35.499 58s33.666 29.667 54.999 39s45 14 71 14c34 0 62.667 -5.66699 86 -17s42.333 -27 57 -47
s25.334 -43.333 32.001 -70s10 -55.334 10 -86.001z" />
    <glyph glyph-name="colon" unicode=":" horiz-adv-x="163" 
d="M113 314v48l-9 8h-46l-8 -8v-48l9 -8h46zM113 2v53l-9 8h-46l-8 -8v-53l9 -8h46z" />
    <glyph glyph-name="semicolon" unicode=";" horiz-adv-x="206" 
d="M156 314v48l-9 8h-47l-8 -8v-48l9 -8h47zM149 104c0 4 -2.66602 6 -7.99902 6h-35l-8 -5l-5 -15l-9.5 -28.5c-3.66699 -11 -7.33398 -22.667 -11.001 -35l-10.5 -34l-8.5 -26c-2.33301 -7 -3.5 -10.833 -3.5 -11.5c0 -5.33301 3 -8 9 -8h18l6 5
c1.33301 3.33301 5.5 13 12.5 29l22.5 50.5l21.5 48.5c6.33301 14.667 9.5 22.667 9.5 24z" />
    <glyph glyph-name="less" unicode="&#x3c;" horiz-adv-x="421" 
d="M371 213c0 3.33301 -1.33203 6.00098 -3.99902 8.00098c-18 12.667 -38.333 25.667 -61 39l-69 39.5l-70 38l-65 35.5l29.5 17l52.5 30l63 36l60.5 35.5l45.5 28c12 7.66699 18 12.167 18 13.5c0 2 -1.83301 5.83301 -5.5 11.5l-7.5 11.5c-2 2 -4 3 -6 3
s-10 -3.83301 -24 -11.5l-52 -29.5l-67 -39.5l-68.5 -40.5l-56.5 -33.5c-16 -9.66699 -26 -15.834 -30 -18.501l-4 -7v-10l4 -7c4 -2.66699 14 -8.83398 30 -18.501l56.5 -34l68 -40.5l66.5 -39l52 -30c14 -8 22 -12 24 -12c1.33301 0 3.16602 1.16699 5.49902 3.5
s4.5 4.83301 6.5 7.5s3.83301 5.33398 5.5 8.00098s2.5 4.66699 2.5 6z" />
    <glyph glyph-name="equal" unicode="=" horiz-adv-x="408" 
d="M358 442v24l-7 8h-294l-7 -8v-24l7 -8h294zM358 281v24l-7 8h-294l-7 -8v-24l7 -8h294z" />
    <glyph glyph-name="greater" unicode="&#x3e;" horiz-adv-x="421" 
d="M371 369l0.000976562 9.99805l-4 7c-4.66699 2.66699 -14.834 8.83398 -30.501 18.501l-56 33.5l-68.5 40.5l-67 39.5l-52.5 29.5c-14.333 7.66699 -22.166 11.5 -23.499 11.5c-2 0 -4 -1 -6 -3l-7.5 -11.5c-3.66699 -5.66699 -5.5 -9.5 -5.5 -11.5
s1.33301 -4.33301 4 -7c42 -28 85.667 -54.167 131 -78.5l134 -74.5l-30 -16.5l-53 -29.5l-62.5 -36l-60 -35.5l-45.5 -28c-12 -7.66699 -18 -12.167 -18 -13.5s0.833008 -3.33301 2.5 -6l5.5 -8.5c2 -3 4.16699 -5.66699 6.5 -8s4.16602 -3.5 5.49902 -3.5
s9.16602 4 23.499 12l52 30l66.5 39l68.5 40.5l56 34c15.667 9.66699 25.834 15.834 30.501 18.501z" />
    <glyph glyph-name="question" unicode="?" horiz-adv-x="461" 
d="M411 492c0 32 -4.49707 61.4971 -13.4971 88.4971s-22.333 50.167 -40 69.5s-39.334 34.333 -65.001 45s-55.167 16 -88.5 16c-11.333 0 -23.5 -0.666992 -36.5 -2s-26.333 -3.16602 -40 -5.49902s-26.667 -5.66602 -39 -9.99902s-23.5 -9.5 -33.5 -15.5l-4 -7
c0 -2 -0.166992 -5.16699 -0.5 -9.5s-0.333008 -8.66602 0 -12.999s1 -8.33301 2 -12s2.83301 -5.5 5.5 -5.5c1.33301 0 6.66602 2.16699 15.999 6.5s20.833 9.33301 34.5 15s28.834 10.667 45.501 15s33.334 6.5 50.001 6.5c26.667 0 50.167 -4.66699 70.5 -14
s37.333 -22.333 51 -39s24 -36 31 -58s10.5 -45.667 10.5 -71c0 -28 -7.5 -54.333 -22.5 -79s-33.833 -47 -56.5 -67s-47.334 -37.667 -74.001 -53s-51.667 -27.333 -75 -36l-5 -7v-150l8 -8c2 0 5.33301 -0.166992 10 -0.5s9 -0.5 13 -0.5c4.66699 0 8.66699 0.666992 12 2
s5 3.66602 5 6.99902c0 21.333 -0.5 42.833 -1.5 64.5s-2.16699 43.167 -3.5 64.5c24 11.333 49.667 26 77 44s52.666 38.5 75.999 61.5s42.666 47.833 57.999 74.5s23 54.334 23 83.001zM180.003 7.99707v36l-6 7h-36l-6 -7v-36l6 -7h36z" />
    <glyph glyph-name="at" unicode="@" horiz-adv-x="595" 
d="M545 -3l-0.00585938 328.004c0 28.667 -6.33301 53 -19 73s-29.167 36 -49.5 48s-43.166 20.667 -68.499 26s-50.333 8 -75 8c-45.333 0 -85.5 -7.16699 -120.5 -21.5s-64.5 -34.666 -88.5 -60.999s-42.333 -57.833 -55 -94.5s-19 -77.334 -19 -122.001
c0 -47.333 6.83301 -89.666 20.5 -126.999s33.334 -69.166 59.001 -95.499s57 -46.5 94 -60.5s79.167 -21 126.5 -21l5 7c0 1.33301 0.166992 4.16602 0.5 8.49902s0.166016 8.66602 -0.500977 12.999s-1.66699 8.16602 -3 11.499s-3.33301 4.33301 -6 3
c-40 0 -75.667 6.16699 -107 18.5s-57.833 29.833 -79.5 52.5s-38.167 50 -49.5 82s-17 68 -17 108c0 37.333 5.16699 72 15.5 104s25.833 59.5 46.5 82.5s45.834 41 75.501 54s64.167 19.5 103.5 19.5c18 0 37 -2 57 -6s38.5 -10.5 55.5 -19.5s31 -20.833 42 -35.5
s16.5 -33 16.5 -55v-26c-15.333 3.33301 -31 6.16602 -47 8.49902s-32 3.5 -48 3.5c-27.333 0 -54.166 -2.33301 -80.499 -7s-50.166 -13.167 -71.499 -25.5s-38.5 -29 -51.5 -50s-19.5 -47.5 -19.5 -79.5c0 -44.667 12.667 -81.334 38 -110.001s61 -43 107 -43
c34.667 0 67.334 7.16699 98.001 21.5s56.334 36.166 77.001 65.499l2 -86l8 -8h21zM504.994 256.004l-0.996094 0.00195312c0 -30 -2.33301 -58.333 -7 -85s-13.334 -50 -26.001 -70s-30.334 -35.833 -53.001 -47.5s-51.667 -17.5 -87 -17.5
c-33.333 0 -58.5 10.833 -75.5 32.5s-25.5 48.5 -25.5 80.5c0 25.333 5.5 46.166 16.5 62.499s25.167 29.166 42.5 38.499s36.666 15.666 57.999 18.999s42.666 5 63.999 5c16 0 31.833 -1.66699 47.5 -5s31.167 -7.66602 46.5 -12.999z" />
    <glyph glyph-name="A" unicode="A" horiz-adv-x="649" 
d="M599 6c0 2 -2.83203 11.167 -8.49902 27.5l-21.5 61l-28.5 79l-29.5 81l-24.5 68.5c-7 20 -11.833 33.333 -14.5 40l-118 338l-8 5h-38l-7 -5l-35 -98l-51 -141l-57 -158l-53 -147l-39.5 -108c-10.333 -28 -15.5 -42.333 -15.5 -43c0 -2 1.16699 -3.5 3.5 -4.5
s4.16602 -1.5 5.49902 -1.5h28l8 5l49 136.5l49 136.5h264l98 -273l8 -5c1.33301 -0 4 -0.166992 8 -0.5s8 -0.333008 12 0s7.66699 1 11 2s5 2.5 5 4.5zM445.001 317h-239l122 335z" />
    <glyph glyph-name="B" unicode="B" horiz-adv-x="453" 
d="M403 178c0 19.333 -2.17285 38.332 -6.50586 56.999s-11.166 36 -20.499 52s-21.166 30.167 -35.499 42.5s-31.5 21.5 -51.5 27.5c16.667 6.66699 31.667 15.834 45 27.501s24.333 25 33 40s15.334 31 20.001 48s7 34.167 7 51.5c0 68 -17.5 115.833 -52.5 143.5
s-85.167 41.5 -150.5 41.5c-44 0 -88.333 -1 -133 -3l-8 -8v-690l9 -8c22 0 44 -1 66 -3s44.333 -3 67 -3c30.667 0 58.834 3.33301 84.501 10s47.834 17.5 66.501 32.5s33.334 34 44.001 57s16 51.167 16 84.5zM351.994 523.999h-1.00098c0 -48.667 -13.667 -86 -41 -112
s-65 -39 -113 -39h-105v297l50 2c16.667 0.666992 33.334 1 50.001 1c49.333 0 88.333 -11.833 117 -35.5s43 -61.5 43 -113.5zM360.993 177.999c0 -27.333 -4 -50.499 -12 -69.499s-19.5 -34.333 -34.5 -46s-32.833 -20 -53.5 -25s-44 -7.5 -70 -7.5
c-16.667 0 -33.167 0.5 -49.5 1.5s-32.833 2.16699 -49.5 3.5v301c17.333 0 35 0.166992 53 0.5s35.667 0.5 53 0.5c50 0 89.667 -13.833 119 -41.5s44 -66.834 44 -117.501z" />
    <glyph glyph-name="C" unicode="C" horiz-adv-x="667" 
d="M616 44c0 1.33301 0.166992 3.83203 0.5 7.49902s0.333008 7.5 0 11.5s-1 7.5 -2 10.5s-2.5 4.5 -4.5 4.5s-3.66699 -0.333008 -5 -1l-106.5 -31.5c-34.333 -9.66699 -71.166 -14.5 -110.499 -14.5c-49.333 0 -92.5 8.33301 -129.5 25s-67.667 39.834 -92 69.501
s-42.5 64.5 -54.5 104.5s-18 83.333 -18 130c0 49.333 5.66699 93.5 17 132.5s28.833 72 52.5 99s54 47.5 91 61.5s81.5 21 133.5 21c36.667 0 70.667 -3.5 102 -10.5s64 -16.5 98 -28.5c1.33301 -0.666992 2.33301 -0.833984 3 -0.500977s1.66699 0.5 3 0.5
c4 0 6 2.33301 6 7v31l-5 6c-33.333 13.333 -67.333 22 -102 26s-69.667 6 -105 6c-117.333 0 -203 -30.167 -257 -90.5s-81 -147.166 -81 -260.499c0 -54.667 6.83301 -104.5 20.5 -149.5s34.5 -83.5 62.5 -115.5s63.167 -56.833 105.5 -74.5s92.166 -26.5 149.499 -26.5
c16 0 33.833 1 53.5 3s39.667 4.83301 60 8.5s40 8.16699 59 13.5s35.833 11.333 50.5 18z" />
    <glyph glyph-name="D" unicode="D" horiz-adv-x="674" 
d="M624 360c0 62 -7.99805 115.166 -23.998 159.499s-39.833 80.5 -71.5 108.5s-70.667 48.5 -117 61.5s-99.833 19.5 -160.5 19.5c-32.667 0 -65 -0.5 -97 -1.5s-64.333 -1.5 -97 -1.5l-7 -8v-688l7 -8c35.333 -1.33301 70.166 -3 104.499 -5s69.166 -3 104.499 -3
c58 0 109.333 8.33301 154 25s82 40.834 112 72.501s52.833 70 68.5 115s23.5 96.167 23.5 153.5zM580.002 359.999c0 -49.333 -6.83301 -94.167 -20.5 -134.5s-33.667 -74.833 -60 -103.5s-59.166 -50.834 -98.499 -66.501s-84.333 -23.5 -135 -23.5
c-29.333 0 -58.333 0.5 -87 1.5s-57.334 3.16699 -86.001 6.5v624c26.667 2.66699 53 4.33398 79 5.00098s52.333 1 79 1c107.333 0 189 -24.167 245 -72.5s84 -127.5 84 -237.5z" />
    <glyph glyph-name="E" unicode="E" horiz-adv-x="434" 
d="M383 5c0 2.66699 0.172852 6.16699 0.505859 10.5s0.333008 8.66602 0 12.999s-1.16602 8 -2.49902 11s-3.66602 4.5 -6.99902 4.5c-22.667 0 -45.334 -0.833008 -68.001 -2.5s-45.334 -2.5 -68.001 -2.5h-69c-12.667 0 -25.334 0.166992 -38.001 0.5
s-25.334 0.5 -38.001 0.5v307h145c2.66699 0 9 -0.333008 19 -1s20.333 -1 31 -1c11.333 0 21.5 0.5 30.5 1.5s13.5 3.5 13.5 7.5v27l-8 8l-231 -3v281h145c21.333 0 42.166 -0.666992 62.499 -2s41.166 -2 62.499 -2c5.33301 0 8 2.66699 8 8v27l-7 8h-306l-8 -8
c0.666992 -230 0.666992 -460 0 -690l8 -8c53.333 0 106.166 -0.166992 158.499 -0.5s105.166 -1.16602 158.499 -2.49902z" />
    <glyph glyph-name="F" unicode="F" horiz-adv-x="407" 
d="M357 672l-0.00292969 26l-7 8h-293l-7 -8v-690l7 -8h27l8 8v332l153 2c2 0 7.33301 -0.5 16 -1.5s17.834 -1.83301 27.501 -2.5s18.334 -0.5 26.001 0.5s11.5 3.16699 11.5 6.5c0 2 0.166992 5 0.5 9s0.5 7.66699 0.5 11c0 4 -0.666992 7.5 -2 10.5
s-3.66602 4.5 -6.99902 4.5h-226v285l132 1h31h47c16 0 32 -0.666992 48 -2z" />
    <glyph glyph-name="G" unicode="G" horiz-adv-x="665" 
d="M615 43l0.00195312 305.001l-9 8h-196l-8 -8v-23l9 -8h162v-251c-30 -10 -60.333 -18.333 -91 -25s-62 -10 -94 -10c-50 0 -93.333 8.33301 -130 25s-67.167 39.834 -91.5 69.501s-42.5 64.5 -54.5 104.5s-18 83.333 -18 130c0 49.333 5.66699 93.333 17 132
s29 71.5 53 98.5s54.667 47.667 92 62s81.666 21.5 132.999 21.5c37.333 0 71.333 -3.5 102 -10.5s63.667 -16.5 99 -28.5c1.33301 -0.666992 2.16602 -0.833984 2.49902 -0.500977s1.16602 0.5 2.49902 0.5c4 0 6 2.33301 6 7v31l-6 6
c-33.333 13.333 -67.166 22 -101.499 26s-69.5 6 -105.5 6c-116.667 0 -202.167 -30.333 -256.5 -91s-81.5 -147.334 -81.5 -260.001c0 -54.667 6.83301 -104.5 20.5 -149.5s34.5 -83.5 62.5 -115.5s63.333 -56.833 106 -74.5s92.667 -26.5 150 -26.5
c15.333 0 32.833 1 52.5 3s39.5 4.83301 59.5 8.5s39.5 8 58.5 13s35.833 10.833 50.5 17.5z" />
    <glyph glyph-name="H" unicode="H" horiz-adv-x="647" 
d="M597 8v690l-9 8h-26l-8 -8v-302h-462v302l-8 8h-26l-8 -8v-690l9 -8h26l8 8v349h462v-349l8 -8h26z" />
    <glyph glyph-name="I" unicode="I" horiz-adv-x="312" 
d="M262 7v23l-8 8h-76v660l-8 8h-27l-8 -8v-660h-77l-8 -8v-23l8 -8h196z" />
    <glyph glyph-name="J" unicode="J" horiz-adv-x="355" 
d="M305 101l0.000976562 596l-9 8h-151l-8 -8v-23l9 -8l117 -1v-569c0 -20 -1.66699 -39.833 -5 -59.5s-9.33301 -37.5 -18 -53.5s-20.834 -28.833 -36.501 -38.5s-35.5 -14.5 -59.5 -14.5c-10 0 -18.5 1.16699 -25.5 3.5s-13.833 5.16602 -20.5 8.49902
s-13 6.83301 -19 10.5s-13 6.83398 -21 9.50098c-5.33301 0 -8 -3 -8 -9l6 -35l4 -6c12 -6.66699 25.667 -11.667 41 -15s30 -5 44 -5c31.333 0 57.333 5.83301 78 17.5s37 27.167 49 46.5s20.5 41.5 25.5 66.5s7.5 51.167 7.5 78.5z" />
    <glyph glyph-name="K" unicode="K" horiz-adv-x="471" 
d="M421 7c0 0.666992 -6.66504 9.16699 -19.998 25.5l-50.5 61l-67 79.5l-69.5 82l-58 68c-16.667 19.333 -27.334 32 -32.001 38c3.33301 4.66699 12.333 16.167 27 34.5l52 64.5l63 78.5l61 76.5l46.5 59c12.333 16 18.5 24.333 18.5 25c0 4.66699 -2.66699 7 -8 7h-35
l-5 -3l-250 -319v314l-9 8h-27l-8 -8v-690l9 -8h27l8 8v324l279 -329l6 -3c2.66699 -0 6.16699 -0.166992 10.5 -0.5s8.5 -0.5 12.5 -0.5c4.66699 0 8.66699 0.5 12 1.5s5.66602 3.16699 6.99902 6.5z" />
    <glyph glyph-name="L" unicode="L" horiz-adv-x="422" 
d="M371 8c0 2 0.166016 5 0.499023 9s0.5 7.66699 0.5 11c0 4 -0.666992 7.5 -2 10.5s-3.66602 4.5 -6.99902 4.5c-20.667 0 -41.167 -0.666992 -61.5 -2s-40.833 -2 -61.5 -2h-147v659l-8 8h-28l-7 -8v-690l7 -8h306z" />
    <glyph glyph-name="M" unicode="M" horiz-adv-x="819" 
d="M769 8v690l-9 8h-31l-7 -4l-321 -647l-305 646l-7 5h-31l-8 -8v-690l9 -8h26l8 8c-0.666992 101.333 -1.16699 202.5 -1.5 303.5s-0.5 202.167 -0.5 303.5c46 -103.333 93.833 -205.5 143.5 -306.5l149.5 -304.5l6 -4h21l7 4l155.5 308.5l155.5 308.5l-3 -613l9 -8h26z
" />
    <glyph glyph-name="N" unicode="N" horiz-adv-x="638" 
d="M581 8v690.002l-9 8h-28l-8 -8l4 -627l-226 317.5l-229 314.5l-6 3h-28l-8 -8v-690l9 -8h26l8 8c-0.666992 105.333 -1.16699 209.666 -1.5 312.999s-0.5 207.666 -0.5 312.999l227.5 -316.5l229.5 -314.5l6 -3h26z" />
    <glyph glyph-name="O" unicode="O" 
d="M696 360c0 53.333 -6.33203 101.666 -18.999 144.999s-32.167 80.166 -58.5 110.499s-59.833 53.833 -100.5 70.5s-89 25 -145 25s-104.333 -8.33301 -145 -25s-74.167 -40.167 -100.5 -70.5s-45.833 -67.166 -58.5 -110.499s-19 -91.666 -19 -144.999
c0 -52 6.5 -100.167 19.5 -144.5s33 -83 60 -116s60.667 -58.833 101 -77.5s88.166 -28 143.499 -28c54 0 101 9.66699 141 29s73.5 45.5 100.5 78.5s47.167 71.667 60.5 116s20 91.833 20 142.5zM652.001 360h-0.996094c0 -43.333 -5.5 -84.833 -16.5 -124.5
s-28 -74.667 -51 -105s-51.833 -54.5 -86.5 -72.5s-76 -27 -124 -27c-47.333 0 -88.5 9 -123.5 27s-64 42.167 -87 72.5s-40.167 65.333 -51.5 105s-17 81.167 -17 124.5c0 46 5.33301 88.167 16 126.5s27.167 71.5 49.5 99.5s51.166 49.667 86.499 65s78 23 128 23
c49.333 0 91.666 -7.66699 126.999 -23s64.166 -37 86.499 -65s38.666 -61.167 48.999 -99.5s15.5 -80.5 15.5 -126.5z" />
    <glyph glyph-name="P" unicode="P" horiz-adv-x="430" 
d="M380 521c0 34.667 -4.66602 63.832 -13.999 87.499s-22.833 43 -40.5 58s-39.334 25.833 -65.001 32.5s-54.834 10 -87.501 10c-38 0 -76.333 -1 -115 -3l-8 -8v-690l9 -8h27l8 8v309c22.667 -4.66699 47.334 -7 74.001 -7c31.333 0 60 5 86 15s48.333 24.333 67 43
s33.167 40.834 43.5 66.501s15.5 54.5 15.5 86.5zM337.001 520.998l-1 0.000976562c0 -53.333 -14.667 -95.833 -44 -127.5s-71 -47.5 -125 -47.5c-11.333 0 -23.5 0.166992 -36.5 0.5s-25.5 1.5 -37.5 3.5v319c13.333 0.666992 26.833 1.16699 40.5 1.5
s27.167 0.5 40.5 0.5c50.667 0 90.5 -11.333 119.5 -34s43.5 -61.334 43.5 -116.001z" />
    <glyph glyph-name="Q" unicode="Q" 
d="M696 360c0 53.333 -6.32812 101.663 -18.9951 144.996s-32.167 80.166 -58.5 110.499s-59.833 53.833 -100.5 70.5s-89 25 -145 25s-104.333 -8.33301 -145 -25s-74.167 -40.167 -100.5 -70.5s-45.833 -67.166 -58.5 -110.499s-19 -91.666 -19 -144.999
c0 -49.333 6 -95.5 18 -138.5s30.333 -80.833 55 -113.5s56 -59 94 -79s83.333 -31.333 136 -34c-1.33301 -2.66699 -2 -4.33398 -2 -5.00098c1.33301 -54 16.166 -97.167 44.499 -129.5s70.833 -48.5 127.5 -48.5c26 0 49.667 4.33301 71 13s39.5 21 54.5 37
s26.5 34.833 34.5 56.5s12 45.5 12 71.5c0 5.33301 -3 8 -9 8h-30l-8 -8c0 -19.333 -2.66699 -37.5 -8 -54.5s-13.333 -31.667 -24 -44s-23.834 -22.166 -39.501 -29.499s-33.834 -11 -54.501 -11s-38.834 3.5 -54.501 10.5s-28.834 16.833 -39.501 29.5
s-18.667 27.334 -24 44.001s-8 35 -8 55l-1 5c51.333 2.66699 95.833 14.334 133.5 35.001s69 47.334 94 80.001s43.5 70.5 55.5 113.5s18 88.5 18 136.5zM652.005 359.997h-0.996094c0 -43.333 -5.5 -84.833 -16.5 -124.5s-28 -74.667 -51 -105s-51.833 -54.5 -86.5 -72.5
s-76 -27 -124 -27c-47.333 0 -88.5 9 -123.5 27s-64 42.167 -87 72.5s-40.167 65.333 -51.5 105s-17 81.167 -17 124.5c0 46 5.33301 88.167 16 126.5s27.167 71.5 49.5 99.5s51.166 49.667 86.499 65s78 23 128 23c49.333 0 91.666 -7.66699 126.999 -23
s64.166 -37 86.499 -65s38.666 -61.167 48.999 -99.5s15.5 -80.5 15.5 -126.5z" />
    <glyph glyph-name="R" unicode="R" horiz-adv-x="509" 
d="M459 7c0 2.66699 -0.667969 4.66797 -2.00098 6.00098c-9.33301 20.667 -19.166 40.834 -29.499 60.501s-20.166 40.167 -29.499 61.5l-22 52.5c-8.66699 20.333 -18.334 40.5 -29.001 60.5s-22.334 38.667 -35.001 56s-26 30 -40 38c40 14.667 70.667 38.5 92 71.5
s32 70.5 32 112.5c0 33.333 -4.66699 61.666 -14 84.999s-22.666 42.166 -39.999 56.499s-38.5 24.833 -63.5 31.5s-53.167 10 -84.5 10c-45.333 0 -91 -1 -137 -3l-7 -8v-690l8 -8h28l8 8v318h113c14.667 0 29.167 -6.33301 43.5 -19s28 -29 41 -49
s25.5 -42.167 37.5 -66.5s23 -48.333 33 -72l27 -66.5c8 -20.667 14.667 -36.667 20 -48l7 -5c2 -0 5.33301 -0.166992 10 -0.5s9.5 -0.333008 14.5 0s9.33301 1 13 2s5.5 2.83301 5.5 5.5zM353.999 526.001l-1.00195 0.00195312c0 -22.667 -3.66699 -43.834 -11 -63.501
s-17.666 -36.834 -30.999 -51.501s-29.333 -26.167 -48 -34.5s-39.667 -12.5 -63 -12.5h-107v305c17.333 0.666992 34.333 1.16699 51 1.5s33.667 0.5 51 0.5c48.667 0 87.334 -11.167 116.001 -33.5s43 -59.5 43 -111.5z" />
    <glyph glyph-name="S" unicode="S" horiz-adv-x="483" 
d="M433 166c0 40.667 -8.33301 73.5 -25 98.5s-37.5 45.833 -62.5 62.5s-52 31 -81 43s-56 25.5 -81 40.5s-45.833 33.167 -62.5 54.5s-25 49.333 -25 84c0 22 4 40.833 12 56.5s18.667 28.667 32 39s29.166 17.833 47.499 22.5s37.5 7 57.5 7
c19.333 0 34.833 -0.833008 46.5 -2.5s22.334 -3.83398 32.001 -6.50098s19.5 -6 29.5 -10s22.667 -8 38 -12c0.666992 -0.666992 2.33398 -1 5.00098 -1c2 0 3.5 1 4.5 3s1.5 3.66699 1.5 5v32l-7 8c-23.333 8 -48.166 13.5 -74.499 16.5s-51.833 4.5 -76.5 4.5
c-26 0 -50.5 -3.16699 -73.5 -9.5s-43.167 -16.333 -60.5 -30s-31 -30.834 -41 -51.501s-15 -45 -15 -73c0 -40 8.33301 -72.333 25 -97s37.5 -45.334 62.5 -62.001s52 -31.167 81 -43.5s56 -26.166 81 -41.499s45.833 -33.666 62.5 -54.999s25 -49.666 25 -84.999
c0 -23.333 -4.83301 -43.333 -14.5 -60s-22.334 -30.334 -38.001 -41.001s-33.5 -18.5 -53.5 -23.5s-40.333 -7.5 -61 -7.5c-46 0 -90.333 8.66699 -133 26c-4.66699 2 -9.5 4.33301 -14.5 7s-9.83301 4.66699 -14.5 6c-1.33301 0.666992 -3 1 -5 1
c-4.66699 0 -7 -2.33301 -7 -7v-38l7 -7c26 -9.33301 53.5 -15.833 82.5 -19.5s57.5 -5.5 85.5 -5.5c27.333 0 53.5 3.16699 78.5 9.5s47.167 16.5 66.5 30.5s34.666 31.833 45.999 53.5s17 47.834 17 78.501z" />
    <glyph glyph-name="T" unicode="T" horiz-adv-x="556" 
d="M506 670l0.00390625 28l-8 8h-439l-8 -8c0 -2 -0.166992 -5 -0.5 -9s-0.333008 -8 0 -12s1.16602 -7.5 2.49902 -10.5s3.66602 -4.5 6.99902 -4.5c20 0 39.833 0.833008 59.5 2.5s39.5 2.5 59.5 2.5h78v-659l8 -8h27l8 8v659h84c19.333 0 38.166 -0.5 56.499 -1.5
s37.166 -2.16699 56.499 -3.5z" />
    <glyph glyph-name="U" unicode="U" horiz-adv-x="624" 
d="M574 676v21.999l-8 8h-28l-8 -8v-22c0 -70.667 -0.166992 -141.334 -0.5 -212.001s-3.5 -141.334 -9.5 -212.001c-2.66699 -31.333 -8.66699 -60.333 -18 -87s-22.5 -49.834 -39.5 -69.501s-37.833 -35.167 -62.5 -46.5s-54 -17 -88 -17
c-37.333 0 -68.5 5.16699 -93.5 15.5s-45.5 25 -61.5 44s-28.167 42.167 -36.5 69.5s-13.833 58 -16.5 92c-6.66699 74 -10 148 -10 222v223l-8 8h-28l-8 -8v-28c0 -70 0.5 -139.833 1.5 -209.5s4.16699 -139.5 9.5 -209.5c3.33301 -41.333 10 -77.833 20 -109.5
s24.833 -58.5 44.5 -80.5s44.667 -38.667 75 -50s67.5 -17 111.5 -17c40.667 0 76 6.33301 106 19s55.333 30.334 76 53.001s36.667 49.834 48 81.501s18.333 66.5 21 104.5c5.33301 70.667 8.5 141.334 9.5 212.001s1.5 141.334 1.5 212.001z" />
    <glyph glyph-name="V" unicode="V" horiz-adv-x="675" 
d="M625 700c0 4 -2.33398 6.00098 -7.00098 6.00098h-30l-7 -5l-262 -639l-224 639l-8 5c-1.33301 0 -4 0.166992 -8 0.5s-8.16699 0.333008 -12.5 0s-8.16602 -1 -11.499 -2s-5 -2.5 -5 -4.5s2.66699 -11 8 -27s12.166 -35.5 20.499 -58.5l27.5 -75.5l28.5 -78.5
l23.5 -65.5c6.66699 -18.667 11.334 -31.334 14.001 -38.001l125 -352l8 -5h26l7 5l20 47.5l36 86l46.5 111.5l51 122.5l49.5 120l42.5 104l30 73.5c7.66699 18.667 11.5 28.667 11.5 30z" />
    <glyph glyph-name="W" unicode="W" horiz-adv-x="933" 
d="M882 696c0.666992 2 0.168945 4.16602 -1.49805 6.49902s-3.83398 3.5 -6.50098 3.5h-29l-7 -6l-66 -310.5l-65 -310.5l-218 617l-7 5h-28l-8 -5l-108.5 -308.5l-109.5 -308.5l-134 621l-7 6c-2.66699 0 -6 0.166992 -10 0.5s-8 0.5 -12 0.5s-7.5 -0.833008 -10.5 -2.5
s-4.5 -4.5 -4.5 -8.5c0 -13.333 2.66699 -29.166 8 -47.499s9.66602 -34.5 12.999 -48.5l53 -242l77 -352l8 -6h28l8 5l110 315l110 315l222 -630l8 -5h28l8 6l75 345z" />
    <glyph glyph-name="X" unicode="X" horiz-adv-x="626" 
d="M576 6c0 1.33301 -5.16895 10.499 -15.502 27.499l-39.5 63.5l-52.5 82.5l-54.5 85l-45.5 70.5l-25.5 39c2.66699 4.66699 10 15.667 22 33l42 62l51 75.5l49.5 73.5l37.5 57c10 15.333 15 23.666 15 24.999c0 2 -1 3.5 -3 4.5s-3.66699 1.5 -5 1.5h-34l-7 -4l-190 -290
l-180 290l-7 4c-1.33301 0 -4.16602 0.166992 -8.49902 0.5s-8.83301 0.333008 -13.5 0s-8.66699 -1 -12 -2s-5 -2.5 -5 -4.5c0 -1.33301 4.5 -9.5 13.5 -24.5l34 -56l45 -73.5l46.5 -76l39 -63l22 -35c-3.33301 -5.33301 -11.666 -17.666 -24.999 -36.999l-47.5 -69
l-57.5 -85l-55.5 -83l-42.5 -64c-11.333 -17.333 -17 -26.666 -17 -27.999c0 -2 1.16699 -3.5 3.5 -4.5s4.16602 -1.5 5.49902 -1.5h31l7 4l221 332l210 -332l7 -4c2 -0 5.16699 -0.166992 9.5 -0.5s8.83301 -0.5 13.5 -0.5s8.83398 0.5 12.501 1.5s5.5 2.83301 5.5 5.5z
" />
    <glyph glyph-name="Y" unicode="Y" horiz-adv-x="511" 
d="M461 701c0 1.33301 -1.00098 2.5 -3.00098 3.5s-3.66699 1.5 -5 1.5h-26l-7 -5l-83 -178.5l-83 -178.5l-160 357l-7 5c-1.33301 0 -4 0.166992 -8 0.5s-8.16699 0.333008 -12.5 0s-8.16602 -0.833008 -11.499 -1.5s-5 -2 -5 -4s4 -12.333 12 -31l30.5 -69l41 -89.5
l42.5 -92.5l35 -77c10 -22 16.667 -36.333 20 -43v-291l7 -8h29l8 8v293l19.5 40.5l36 76l43.5 92l42.5 90.5l32 70c8.33301 18.667 12.5 29 12.5 31z" />
    <glyph glyph-name="Z" unicode="Z" horiz-adv-x="584" 
d="M533 5c0 2 0.168945 5 0.501953 9s0.333008 8 0 12s-1 7.5 -2 10.5s-2.83301 4.5 -5.5 4.5c-29.333 0 -58.5 -0.666992 -87.5 -2s-58.167 -2 -87.5 -2h-250l426 639v22l-8 8h-450l-8 -8c0 -2 -0.166992 -5 -0.5 -9s-0.5 -8 -0.5 -12c0 -3.33301 0.666992 -6.5 2 -9.5
s3.66602 -4.5 6.99902 -4.5c135.333 0 270.666 2 405.999 6l-425 -637v-24l7 -8h234c78 0 156.333 -1 235 -3z" />
    <glyph glyph-name="bracketleft" unicode="[" horiz-adv-x="228" 
d="M177 -9v22.002l-8 8c-12 2 -24.167 2.66699 -36.5 2s-24.833 0 -37.5 2v684l75 4l7 8c0 1.33301 0.166992 3.66602 0.5 6.99902s0.333008 6.66602 0 9.99902s-1.16602 6.33301 -2.49902 9s-3.33301 4 -6 4c-18.667 0 -37.167 -0.166992 -55.5 -0.5
s-37.166 -0.5 -56.499 -0.5l-7 -8v-750l8 -8h111c1.33301 0 2.66602 0.833008 3.99902 2.5s2.66602 3.16699 3.99902 4.5z" />
    <glyph glyph-name="backslash" unicode="\" horiz-adv-x="400" 
d="M350 8c0 0.666992 -3.33398 10.334 -10.001 29.001l-27 74l-38.5 105l-44.5 122l-45.5 124l-41 111l-31.5 84.5c-8.66699 23 -14 37.5 -16 43.5l-7 5c-1.33301 0 -4.16602 0.166992 -8.49902 0.5s-8.83301 0.5 -13.5 0.5s-8.66699 -0.666992 -12 -2
s-5 -3.66602 -5 -6.99902c0 -0.666992 3.33301 -10.334 10 -29.001l27 -74l38.5 -105l44.5 -122l45.5 -124l41 -111l31.5 -84.5c8.66699 -23 14 -37.5 16 -43.5l7 -5c1.33301 0 4.16602 -0.166992 8.49902 -0.5s8.5 -0.5 12.5 -0.5c4.66699 0 8.83398 0.666992 12.501 2
s5.5 3.66602 5.5 6.99902z" />
    <glyph glyph-name="bracketright" unicode="]" horiz-adv-x="226" 
d="M176 -8v749.998l-7 8c-18.667 0 -37.167 0.166992 -55.5 0.5s-36.833 0.5 -55.5 0.5c-5.33301 0 -8 -2.66699 -8 -8v-22c1.33301 -3.33301 5.5 -5.66602 12.5 -6.99902s14.833 -2.16602 23.5 -2.49902l26 -1c8.66699 -0.333008 15 -0.833008 19 -1.5v-684l-74 -4l-7 -8
v-22c1.33301 -4.66699 4 -7 8 -7h111z" />
    <glyph glyph-name="asciicircum" unicode="^" horiz-adv-x="515" 
d="M465 560c0 1.33301 -4 6.33301 -12 15l-30 31.5l-39.5 39.5l-41 40.5l-34.5 33.5c-10 9.33301 -16.333 15.333 -19 18c-1.33301 1.33301 -3.33301 2 -6 2h-51l-180 -174l-2 -6c0 -5.33301 3 -8 9 -8h27l172 160l172 -160c5.33301 0 12 -0.333008 20 -1s13 2.33301 15 9z
" />
    <glyph glyph-name="underscore" unicode="_" horiz-adv-x="540" 
d="M574 -221v23l-8 8h-586l-8 -8v-23l8 -8h586z" />
    <glyph glyph-name="grave" unicode="`" horiz-adv-x="272" 
d="M222 558c0 0.666992 -2.66699 6.33496 -8 17.002l-20.5 39.5l-27.5 51l-28.5 52l-23.5 43c-6.66699 12.333 -11 20.166 -13 23.499l-7 4h-35c-6 0 -9 -2.66699 -9 -8c0 -0.666992 3.16699 -6.33398 9.5 -17.001l24 -39.5l32 -51l33 -52l27 -42.5
c7.66699 -12 12.5 -19.667 14.5 -23l7 -4c3.33301 0 8.33301 -0.166992 15 -0.5s10 2.16699 10 7.5z" />
    <glyph glyph-name="a" unicode="a" horiz-adv-x="448" 
d="M398 8l-0.000976562 332.001c0 28 -3.66699 50.833 -11 68.5s-17.833 31.834 -31.5 42.501s-30.5 18 -50.5 22s-42.667 6 -68 6c-12 0 -24.833 -0.833008 -38.5 -2.5s-27.334 -4.16699 -41.001 -7.5s-27 -7.66602 -40 -12.999s-24.5 -11.333 -34.5 -18l-3 -7
c0 -2 -0.166992 -5 -0.5 -9s-0.333008 -8.33301 0 -13s1 -8.66699 2 -12s2.83301 -5 5.5 -5c1.33301 0 6.5 2.66699 15.5 8s20.333 11.166 34 17.499s29.334 12.166 47.001 17.499s35.834 8 54.501 8c36.667 0 65.667 -7.16699 87 -21.5s32 -41.5 32 -81.5v-54
c-18.667 0.666992 -39.334 1 -62.001 1c-22 0 -44.333 -1 -67 -3s-44.667 -5.83301 -66 -11.5s-40.333 -14.167 -57 -25.5s-30 -25.833 -40 -43.5s-15 -39.834 -15 -66.501c0 -42.667 13.333 -77.167 40 -103.5s61.334 -39.5 104.001 -39.5c38 0 70.667 9.33301 98 28
s49.333 44.667 66 78l2 -92l8 -8h22zM355.999 252.001l-0.999023 0.000976562c0 -8.66699 -0.166992 -17.334 -0.5 -26.001s-0.833008 -17.334 -1.5 -26.001c-2 -22 -7 -43.167 -15 -63.5s-18.667 -38.5 -32 -54.5s-29.5 -28.667 -48.5 -38s-40.5 -14 -64.5 -14
c-14.667 0 -28 3 -40 9s-22.333 13.833 -31 23.5s-15.334 21 -20.001 34s-7 26.5 -7 40.5c0 24.667 5.5 44.667 16.5 60s25 27.333 42 36s36 14.334 57 17.001s41.833 4 62.5 4h41c14 0 28 -0.666992 42 -2z" />
    <glyph glyph-name="b" unicode="b" horiz-adv-x="501" 
d="M451 277c0 67.333 -15.832 117.834 -47.499 151.501s-81.834 50.5 -150.501 50.5c-32.667 0 -63.167 -6.33301 -91.5 -19s-51.833 -33 -70.5 -61v353l-8 8h-26l-7 -8v-746c0 -1.33301 0.333008 -3 1 -5s2 -3 4 -3h13c6 0 10.667 0.666992 14 2
c20 -2.66699 40.167 -4.33398 60.5 -5.00098s40.833 -1 61.5 -1c40 0 75.333 7.83301 106 23.5s56.5 36.5 77.5 62.5s36.833 56 47.5 90s16 69.667 16 107zM410.001 277.001c0 -31.333 -4.33203 -61.832 -12.999 -91.499s-21.5 -56 -38.5 -79s-38.333 -41.5 -64 -55.5
s-55.834 -21 -90.501 -21h-22c-10.667 0 -22.167 0.166992 -34.5 0.5s-23.833 1 -34.5 2s-18 2.16699 -22 3.5v277c0 19.333 5.16699 37 15.5 53s23.5 29.667 39.5 41s33.5 20.166 52.5 26.499s37.167 9.5 54.5 9.5c54.667 0 94.5 -14.333 119.5 -43s37.5 -69.667 37.5 -123
z" />
    <glyph glyph-name="c" unicode="c" horiz-adv-x="479" 
d="M427 38c0 5.33301 0.331055 12.1719 0.998047 20.5049s-2 13.833 -8 16.5c-0.666992 0 -5.5 -2.33301 -14.5 -7s-20.667 -9.83398 -35 -15.501s-30.666 -10.834 -48.999 -15.501s-36.833 -7 -55.5 -7c-32 0 -59 6 -81 18s-40 28 -54 48s-24.167 43.167 -30.5 69.5
s-9.5 53.833 -9.5 82.5c0 28 3.5 54.167 10.5 78.5s17.833 45.166 32.5 62.499s32.834 31 54.501 41s47.5 15 77.5 15c15.333 0 30.833 -1.66699 46.5 -5s30 -7.16602 43 -11.499l33.5 -11.5c9.33301 -3.33301 15.333 -5 18 -5c4 0 6 2.33301 6 7v31l-5 7
c-21.333 8 -44.833 14 -70.5 18s-49.5 6 -71.5 6c-36 0 -67.5 -5.5 -94.5 -16.5s-49.5 -26.833 -67.5 -47.5s-31.5 -45.334 -40.5 -74.001s-13.5 -60.334 -13.5 -95.001c0 -36.667 3.83301 -70.5 11.5 -101.5s20 -57.833 37 -80.5s39.333 -40.334 67 -53.001
s61.167 -19 100.5 -19c12 0 24.833 0.833008 38.5 2.5s27.5 4 41.5 7s27.667 6.83301 41 11.5s25.333 10 36 16z" />
    <glyph glyph-name="d" unicode="d" horiz-adv-x="507" 
d="M457 8l0.00195312 743.999l-7 8h-26l-8 -8v-280c-20.667 2 -41.334 3.66699 -62.001 5s-41.334 2 -62.001 2c-84 0 -145.333 -20.667 -184 -62s-58 -103.666 -58 -186.999c0 -34 3.66699 -65.5 11 -94.5s19.166 -54 35.499 -75s37.333 -37.333 63 -49
s56.834 -17.5 93.501 -17.5c36 0 68.333 9.5 97 28.5s51 44.5 67 76.5l2 -91l8 -8h23zM416.002 429.999l-1 -199.999c0 -24.667 -3.16699 -49 -9.5 -73s-16 -45.333 -29 -64s-29.667 -33.834 -50 -45.501s-44.5 -17.5 -72.5 -17.5c-30 0 -55.333 5.33301 -76 16
s-37.5 25.167 -50.5 43.5s-22.333 39.5 -28 63.5s-8.5 49.667 -8.5 77c0 68 16 120.5 48 157.5s83 55.5 153 55.5c18 0 38.833 -0.833008 62.5 -2.5s44.167 -5.16699 61.5 -10.5z" />
    <glyph glyph-name="e" unicode="e" horiz-adv-x="492" 
d="M442 252c0 30 -2.83203 58.6729 -8.49902 86.0059s-15.167 51.666 -28.5 72.999s-31.5 38.333 -54.5 51s-51.833 19 -86.5 19s-65.334 -5.66699 -92.001 -17s-49 -27 -67 -47s-31.667 -44 -41 -72s-14 -58.667 -14 -92c0 -38.667 3.66699 -73.834 11 -105.501
s19.333 -58.834 36 -81.501s38.834 -40.334 66.501 -53.001s62.167 -19 103.5 -19c12 0 24.667 0.833008 38 2.5s26.666 4 39.999 7s26.5 6.83301 39.5 11.5s24.5 10 34.5 16l4 7c0 2 0.166992 5 0.5 9s0.333008 8 0 12s-1 7.66699 -2 11s-2.83301 5 -5.5 5
c-1.33301 0 -6.5 -2.33301 -15.5 -7s-20.5 -9.83398 -34.5 -15.501s-29.5 -10.834 -46.5 -15.501s-34.5 -7 -52.5 -7c-31.333 0 -58 5.33301 -80 16s-40 25.167 -54 43.5s-24.333 40 -31 65s-10 52.167 -10 81.5c57.333 0 114.333 0.833008 171 2.5s113.667 3.5 171 5.5z
M400.001 281.006c-46.667 -3.33301 -93.168 -5.49902 -139.501 -6.49902s-92.833 -1.5 -139.5 -1.5h-29c0.666992 24.667 5.16699 47.667 13.5 69s20 39.5 35 54.5s33 26.833 54 35.5s44.167 13 69.5 13c22.667 0 42.5 -4.66699 59.5 -14s31 -21.833 42 -37.5
s19.333 -33.334 25 -53.001s8.83398 -39.5 9.50098 -59.5z" />
    <glyph glyph-name="f" unicode="f" horiz-adv-x="404" 
d="M354 680v33.002l-5 7c-12 6 -26.333 10.167 -43 12.5s-31.667 3.5 -45 3.5c-42 0 -72.833 -8.66699 -92.5 -26s-33.167 -39.5 -40.5 -66.5s-10.5 -56.833 -9.5 -89.5s1.5 -64.334 1.5 -95.001h-62l-8 -8v-22l9 -8h61v-413l8 -8h25l8 8v413h168l8 8v22l-9 8h-168v116
c0 18 1.66699 34.5 5 49.5s8.83301 28.167 16.5 39.5s18 20.166 31 26.499s29.5 9.5 49.5 9.5c12.667 0 26.5 -2 41.5 -6s27.5 -10.333 37.5 -19z" />
    <glyph glyph-name="g" unicode="g" horiz-adv-x="456" 
d="M406 -12l0.000976562 471.001l-8 8c-18.667 4.66699 -37.834 7.83398 -57.501 9.50098s-38.834 2.5 -57.501 2.5c-34.667 0 -66.334 -7.16699 -95.001 -21.5s-53.167 -33.5 -73.5 -57.5s-36.166 -51.667 -47.499 -83s-17 -64 -17 -98c0 -27.333 2.66699 -54.333 8 -81
s14.333 -50.5 27 -71.5s29.334 -38 50.001 -51s46.667 -19.5 78 -19.5c33.333 0 63.166 9.66699 89.499 29s47.166 43 62.499 71v-118c0 -22.667 -3 -44 -9 -64s-15.333 -37.667 -28 -53s-28.334 -27.5 -47.001 -36.5s-40.667 -13.5 -66 -13.5
c-8.66699 0 -18.667 0.666992 -30 2s-22.833 3.66602 -34.5 6.99902s-22.5 7.5 -32.5 12.5s-18 11.5 -24 19.5l-6 3c-5.33301 0 -8 -2.66699 -8 -8v-39c6.66699 -6.66699 15.834 -12.167 27.501 -16.5s24 -7.83301 37 -10.5s25.833 -4.5 38.5 -5.5s23.334 -1.5 32.001 -1.5
c32.667 0 61 5.66699 85 17s43.833 26.666 59.5 45.999s27.334 42 35.001 68s11.5 53.667 11.5 83zM366.001 432.001l-1.00098 -190.998c0 -21.333 -3.33301 -44.333 -10 -69s-16.5 -47.334 -29.5 -68.001s-29 -37.834 -48 -51.501s-40.5 -20.5 -64.5 -20.5
s-43.833 6 -59.5 18s-28.167 27.167 -37.5 45.5s-15.833 38.5 -19.5 60.5s-5.5 43 -5.5 63c0 28 4.5 55.5 13.5 82.5s21.833 51 38.5 72s36.834 37.833 60.501 50.5s50.167 19 79.5 19c14 0 28 -0.833008 42 -2.5s27.667 -4.5 41 -8.5z" />
    <glyph glyph-name="h" unicode="h" horiz-adv-x="491" 
d="M441 8l0.000976562 305.001c0 29.333 -4.5 54.5 -13.5 75.5s-21.833 38.167 -38.5 51.5s-36.334 23.166 -59.001 29.499s-48 9.5 -76 9.5c-32 0 -62.333 -6.5 -91 -19.5s-52.334 -33.167 -71.001 -60.5v353l-8 8h-26l-8 -8v-744l8 -8h26l8 8v307
c0 19.333 5.33301 36.833 16 52.5s24 29.167 40 40.5s33.5 20 52.5 26s36.833 9 53.5 9c20.667 0 39.834 -2.66699 57.501 -8s33 -13.5 46 -24.5s23.167 -24.5 30.5 -40.5s11 -35 11 -57v-305l8 -8h26z" />
    <glyph glyph-name="i" unicode="i" horiz-adv-x="155" 
d="M105 595v39l-8 8h-40l-7 -8v-39l8 -7h40zM98 8v458l-8 8h-26l-8 -8v-458l9 -8h26z" />
    <glyph glyph-name="j" unicode="j" horiz-adv-x="334" 
d="M284 595v39l-8 8h-39l-7 -8v-39l7 -7h39zM277 27v438.998l-7 8h-26l-8 -8c0 -73.333 0.166992 -146.5 0.5 -219.5s0.5 -146.167 0.5 -219.5c0 -19.333 -0.666992 -41.5 -2 -66.5s-5.33301 -48.667 -12 -71s-17.5 -41.166 -32.5 -56.499s-35.833 -23 -62.5 -23
c-10 0 -21.5 1.83301 -34.5 5.5s-23.167 9.83398 -30.5 18.501l-6 3c-4.66699 0 -7 -2.66699 -7 -8v-29l4 -7c10 -6.66699 21.833 -11.5 35.5 -14.5s26.5 -4.5 38.5 -4.5c35.333 0 63 8 83 24s34.833 36.333 44.5 61s15.667 52 18 82s3.5 58.667 3.5 86z" />
    <glyph glyph-name="k" unicode="k" horiz-adv-x="448" 
d="M398 8c0 2 -1 4 -3 6l-137.5 132l-139.5 131l237 191l3 6c0 5.33301 -3 8 -9 8h-35l-111 -93l-112 -93v457l-8 8h-25l-8 -8v-745l9 -8h25l8 8v244l262 -252h36c2 0 3.66699 1 5 3s2.33301 3.66699 3 5z" />
    <glyph glyph-name="l" unicode="l" horiz-adv-x="328" 
d="M277 20c0 5.33301 0.165039 12.334 0.498047 21.001s-2.16699 14 -7.5 16c-1.33301 0 -3.66602 -1.33301 -6.99902 -4s-7.66602 -5.83398 -12.999 -9.50098s-12.166 -6.83398 -20.499 -9.50098s-18.5 -4 -30.5 -4c-27.333 0 -48.333 7.66699 -63 23
s-25.334 34.166 -32.001 56.499s-10.667 46 -12 71s-2 47.167 -2 66.5c0 84.667 0.166992 168.834 0.5 252.501s0.5 167.834 0.5 252.501l-8 8h-26l-7 -8v-505c0 -27.333 1.16699 -56 3.5 -86s8.33301 -57.333 18 -82s24.5 -45 44.5 -61s47.667 -24 83 -24
c12 0 24.833 1.5 38.5 4.5s25.5 7.83301 35.5 14.5z" />
    <glyph glyph-name="m" unicode="m" horiz-adv-x="754" 
d="M704 8l0.000976562 305c0 51.333 -13.333 91.833 -40 121.5s-66.667 44.5 -120 44.5c-34 0 -64.5 -8.66699 -91.5 -26s-48.5 -40.666 -64.5 -69.999c-12.667 29.333 -33 52.666 -61 69.999s-57.667 26 -89 26c-30.667 0 -58.667 -7.33301 -84 -22
s-46.333 -34.667 -63 -60l-3 69l-8 8h-22l-8 -8v-458l8 -8h26l8 8v304c0 18 4.33301 35 13 51s20 30 34 42s29.667 21.333 47 28s34.666 10 51.999 10c40 0 69.667 -12.167 89 -36.5s29 -55.5 29 -93.5v-305l8 -8h26l8 8v305c0 18 4.5 34.833 13.5 50.5s20.5 29.5 34.5 41.5
s29.667 21.333 47 28s34.333 10 51 10c41.333 0 71.333 -11.833 90 -35.5s28 -55.167 28 -94.5v-305l8 -8h26z" />
    <glyph glyph-name="n" unicode="n" horiz-adv-x="491" 
d="M441 8l-0.00390625 305.001c0 29.333 -4.66699 54.5 -14 75.5s-22.166 38.167 -38.499 51.5s-36 23.166 -59 29.499s-48.167 9.5 -75.5 9.5c-33.333 0 -64.333 -7.16699 -93 -21.5s-52 -35.5 -70 -63.5l-3 72l-8 8h-22l-8 -8v-458l8 -8h26l8 8v314
c0 17.333 5.66699 33.333 17 48s25.333 27.5 42 38.5s34.334 19.5 53.001 25.5s35.334 9 50.001 9c20.667 0 39.834 -2.66699 57.501 -8s33 -13.5 46 -24.5s23.167 -24.5 30.5 -40.5s11 -35 11 -57v-305l8 -8h26z" />
    <glyph glyph-name="o" unicode="o" horiz-adv-x="543" 
d="M493 239c0 36.667 -4.16699 70 -12.5 100s-21.333 55.5 -39 76.5s-40.5 37.167 -68.5 48.5s-61.667 17 -101 17s-73 -5.66699 -101 -17s-51 -27.5 -69 -48.5s-31.167 -46.333 -39.5 -76s-12.5 -63.167 -12.5 -100.5c0 -35.333 4.5 -68 13.5 -98
s22.833 -55.833 41.5 -77.5s42 -38.667 70 -51s60.667 -18.5 98 -18.5s69.833 6.16699 97.5 18.5s50.5 29.333 68.5 51s31.5 47.5 40.5 77.5s13.5 62.667 13.5 98zM452 239l-0.99707 0.00292969c0 -28 -3.5 -54.667 -10.5 -80s-17.833 -47.5 -32.5 -66.5
s-33.334 -34.167 -56.001 -45.5s-49.334 -17 -80.001 -17s-57.334 5.66699 -80.001 17s-41.5 26.5 -56.5 45.5s-26.167 41.167 -33.5 66.5s-11 52 -11 80c0 29.333 3.5 56.666 10.5 81.999s17.833 47.166 32.5 65.499s33.5 32.666 56.5 42.999s50.5 15.5 82.5 15.5
s59.333 -5.16699 82 -15.5s41.167 -24.833 55.5 -43.5s24.833 -40.5 31.5 -65.5s10 -52.167 10 -81.5z" />
    <glyph glyph-name="p" unicode="p" horiz-adv-x="494" 
d="M444 267c0 66.667 -16.1689 119.001 -48.502 157.001s-82.833 57 -151.5 57c-32 0 -61.167 -7 -87.5 -21s-48.166 -34.333 -65.499 -61v67l-8 8h-26l-7 -8v-691l7 -8h26l8 8v232c18 -4 36.333 -7.16699 55 -9.5s37.334 -3.5 56.001 -3.5c38 0 71.833 7.66699 101.5 23
s55 35.666 76 60.999s37 54.333 48 87s16.5 66.667 16.5 102zM402.998 267.001c0 -30 -4.33301 -59.168 -13 -87.501s-21.5 -53.666 -38.5 -75.999s-38 -40.166 -63 -53.499s-53.833 -20 -86.5 -20c-18.667 0 -37.334 1 -56.001 3s-36.667 6.33301 -54 13v226
c0 22.667 3.33301 44.5 10 65.5s16.5 39.5 29.5 55.5s28.833 28.667 47.5 38s40.334 14 65.001 14c28 0 52 -4.33301 72 -13s36.5 -20.834 49.5 -36.501s22.5 -34.5 28.5 -56.5s9 -46 9 -72z" />
    <glyph glyph-name="q" unicode="q" horiz-adv-x="498" 
d="M448 -225l-0.000976562 692.002c0 1.33301 -0.5 3 -1.5 5s-2.16699 3 -3.5 3c-5.33301 0 -10.666 0.5 -15.999 1.5s-10.333 0.833008 -15 -0.5l-60 2c-20 0.666992 -40.333 1 -61 1c-78.667 0 -138.5 -22 -179.5 -66s-61.5 -104.667 -61.5 -182
c0 -32.667 2.83301 -63.334 8.5 -92.001s15.5 -53.834 29.5 -75.501s33 -38.667 57 -51s54.667 -18.5 92 -18.5c38 0 71.5 9.16699 100.5 27.5s52.167 44.5 69.5 78.5v-325l8 -8h26zM408.999 437.002l-1.00098 -0.000976562c0.666992 -39.333 0.666992 -78.666 0 -117.999
s-2.33398 -78.666 -5.00098 -117.999c-1.33301 -22.667 -6.16602 -44.334 -14.499 -65.001s-19.666 -38.834 -33.999 -54.501s-31.333 -28.167 -51 -37.5s-41.5 -14 -65.5 -14c-29.333 0 -53.5 5.83301 -72.5 17.5s-34 26.834 -45 45.501s-18.667 40 -23 64
s-6.5 48.667 -6.5 74c0 32 4.33301 61 13 87s21.5 48.167 38.5 66.5s38 32.666 63 42.999s53.833 15.5 86.5 15.5c19.333 0 38.833 -0.166992 58.5 -0.5s39.167 -2.16602 58.5 -5.49902z" />
    <glyph glyph-name="r" unicode="r" horiz-adv-x="330" 
d="M322 438l0.000976562 29.999l-7 8c-5.33301 1.33301 -10.666 2 -15.999 2h-17c-30 0 -57.833 -6.66699 -83.5 -20s-47.5 -32.333 -65.5 -57v65l-8 8h-26l-7 -8v-458l8 -8h26l8 8v299c0 18.667 3.66699 35.834 11 51.501s17.166 29.167 29.499 40.5
s26.666 20.333 42.999 27s33.5 10 51.5 10c6 0 13 -0.166992 21 -0.5s15.333 -1.83301 22 -4.5z" />
    <glyph glyph-name="s" unicode="s" horiz-adv-x="391" 
d="M341 114c0 28 -6.16504 50.8311 -18.498 68.498s-27.666 32.334 -45.999 44.001s-38.333 21.834 -60 30.501s-41.667 17.834 -60 27.501s-33.666 21.167 -45.999 34.5s-18.5 31 -18.5 53c0 14 3 25.667 9 35s13.833 16.833 23.5 22.5s20.5 9.66699 32.5 12s24 3.5 36 3.5
c12.667 0 25.667 -1.33301 39 -4s25.833 -5.5 37.5 -8.5s22 -5.83301 31 -8.5s15.5 -4 19.5 -4c1.33301 0 2.5 1 3.5 3s1.5 3.66699 1.5 5v29l-6 7c-20 6 -40.833 10.333 -62.5 13s-42.834 4 -63.501 4c-17.333 0 -34.5 -1.83301 -51.5 -5.5s-32.167 -9.83398 -45.5 -18.501
s-24.166 -20 -32.499 -34s-12.5 -31 -12.5 -51c0 -28.667 6.16699 -51.834 18.5 -69.501s27.666 -32.5 45.999 -44.5s38.333 -22.167 60 -30.5s41.667 -17.166 60 -26.499s33.666 -20.5 45.999 -33.5s18.5 -30.167 18.5 -51.5c0 -16 -3.5 -29.5 -10.5 -40.5
s-16.167 -19.833 -27.5 -26.5s-24 -11.5 -38 -14.5s-27.667 -4.5 -41 -4.5c-16.667 0 -30.167 0.833008 -40.5 2.5s-19.666 4 -27.999 7s-16.833 6.5 -25.5 10.5s-19.334 8.33301 -32.001 13c-4.66699 0 -7 -2.66699 -7 -8v-33l5 -6c18 -7.33301 38.667 -12.833 62 -16.5
s44.666 -5.5 63.999 -5.5s38.5 2 57.5 6s36.167 10.833 51.5 20.5s27.666 22.167 36.999 37.5s14 34 14 56z" />
    <glyph glyph-name="t" unicode="t" horiz-adv-x="412" 
d="M368 28c0 2 0.167969 4.99805 0.500977 8.99805s0.333008 8 0 12s-1 7.66699 -2 11s-2.83301 5 -5.5 5s-7.33398 -1.83301 -14.001 -5.5s-14.667 -7.66699 -24 -12s-19.833 -8.33301 -31.5 -12s-23.834 -5.5 -36.501 -5.5c-16 0 -29.167 3.33301 -39.5 10
s-18.5 15.334 -24.5 26.001s-10.167 22.834 -12.5 36.501s-3.5 27.167 -3.5 40.5v278h170l8 8v22l-9 8h-169v141l-9 8h-20l-8 -8c-0.666992 -23.333 -1.16699 -46.833 -1.5 -70.5s-1.16602 -47.167 -2.49902 -70.5h-69l-8 -8v-22l9 -8h69v-278
c0 -22 1.83301 -42.167 5.5 -60.5s10 -34 19 -47s21.333 -23.167 37 -30.5s35.5 -11 59.5 -11c16.667 0 35.167 2.33301 55.5 7s37.833 11.667 52.5 21z" />
    <glyph glyph-name="u" unicode="u" horiz-adv-x="483" 
d="M433 8l-0.00292969 457.999l-8 8h-26l-7 -8c0 -44.667 -0.166992 -89 -0.5 -133s-0.5 -88.333 -0.5 -133c0 -23.333 -4.66699 -45.333 -14 -66s-21.666 -38.667 -36.999 -54s-33.5 -27.5 -54.5 -36.5s-42.833 -13.5 -65.5 -13.5c-24 0 -44.167 4.33301 -60.5 13
s-29.666 20.5 -39.999 35.5s-17.666 32 -21.999 51s-6.5 39.167 -6.5 60.5l3 276c-1.33301 4.66699 -3.66602 7.33398 -6.99902 8.00098h-26l-8 -8c-2 -92 -3 -184 -3 -276c0 -27.333 3.16699 -53 9.5 -77s16.333 -44.833 30 -62.5s31.334 -31.5 53.001 -41.5
s47.5 -15 77.5 -15c39.333 0 73.666 9.16699 102.999 27.5s52.666 44.5 69.999 78.5l1 -92l8 -8h23z" />
    <glyph glyph-name="v" unicode="v" horiz-adv-x="474" 
d="M424 468c0 2 -1.00098 3.49902 -3.00098 4.49902s-3.66699 1.5 -5 1.5h-26l-7 -5l-72.5 -197.5l-74.5 -196.5l-140 394l-8 5c-1.33301 0 -4 0.166992 -8 0.5s-8.33301 0.333008 -13 0s-8.66699 -1 -12 -2s-5 -2.5 -5 -4.5s3.83301 -13.833 11.5 -35.5l29 -80.5l38.5 -105
l40 -107.5l33 -87.5l18 -47l8 -5h15l7 5c2 4.66699 5.83301 14.834 11.5 30.501s12.834 34.5 21.501 56.5l28.5 73.5l31 82l30 80.5l26 69.5l18.5 49.5c4.66699 12.667 7 19.667 7 21z" />
    <glyph glyph-name="w" unicode="w" horiz-adv-x="719" 
d="M669 469c0 1.33301 -1.00098 2.49902 -3.00098 3.49902s-3.66699 1.5 -5 1.5h-22l-8 -6l-58 -200.5l-58 -200.5l-151 402l-7 5h-18l-7 -5l-71 -199l-71 -199l-95 397l-8 6c-2 0 -5.16699 0.166992 -9.5 0.5s-8.66602 0.333008 -12.999 0s-8 -1.16602 -11 -2.49902
s-3.83301 -4 -2.5 -8l111 -458l7 -6h30l8 5l70 199.5l71 199.5l149 -399l8 -5h25l8 6l13.5 47l25 87.5l31 107.5l30 105l22.5 80.5c6 21.667 9 33.5 9 35.5z" />
    <glyph glyph-name="x" unicode="x" horiz-adv-x="510" 
d="M460 7l-12 16.501l-31 41l-41.5 54l-42.5 56l-35.5 46.5c-10.333 13.333 -17.166 22 -20.499 26l19 25.5l32.5 43l39 50.5l37 48.5l27.5 37c7.33301 9.66699 11 14.834 11 15.501c0 4.66699 -2.66699 7 -8 7h-32l-7 -4c-22.667 -34 -46.167 -67 -70.5 -99l-72.5 -97
l-73 98l-72 99l-6 3c-2.66699 0 -6.16699 0.166992 -10.5 0.5s-8.5 0.5 -12.5 0.5s-7.66699 -0.666992 -11 -2s-5.66602 -3.33301 -6.99902 -6c0 -0.666992 3.83301 -5.83398 11.5 -15.501l28.5 -37l38 -49l40 -51l33 -43c9.33301 -12.333 15.666 -20.5 18.999 -24.5
c-4 -4.66699 -11.167 -13.834 -21.5 -27.501l-35.5 -46.5l-42 -54.5l-40 -53l-30 -41c-8 -11 -12 -16.833 -12 -17.5c0 -4.66699 2.66699 -7 8 -7h32l7 3l76.5 109.5c25.667 36.333 52.5 72.166 80.5 107.499l80.5 -107c27 -35.333 53.167 -71.666 78.5 -108.999l7 -4
c2.66699 -0 6 -0.166992 10 -0.5s8 -0.5 12 -0.5s7.66699 0.5 11 1.5s5.66602 3.16699 6.99902 6.5z" />
    <glyph glyph-name="y" unicode="y" horiz-adv-x="546" 
d="M496 469c0 1.33301 -1.00195 2.49902 -3.00195 3.49902s-3.66699 1.5 -5 1.5h-31l-7 -5l-91 -206.5l-92 -206.5l-173 413l-7 5c-1.33301 0 -4 0.166992 -8 0.5s-8.16699 0.333008 -12.5 0s-8.16602 -1 -11.499 -2s-5 -2.5 -5 -4.5c0 -1.33301 4.33301 -12.666 13 -33.999
l33 -80l44 -104.5l45 -107l37 -87.5l20 -46c-1.33301 -3.33301 -4.66602 -10.5 -9.99902 -21.5l-18 -38.5l-21.5 -46l-21 -45c-6.33301 -14 -11.5 -25.833 -15.5 -35.5s-6 -15.167 -6 -16.5c0 -2 1 -3.33301 3 -4s3.66699 -1 5 -1h30l7 4
c2.66699 6.66699 9.16699 21 19.5 43l37.5 81l48.5 106l53.5 117.5l52.5 116l45.5 100.5l32 71c8 18 12 27.667 12 29z" />
    <glyph glyph-name="z" unicode="z" horiz-adv-x="484" 
d="M434 8v21l-8 8h-318l321 409v20l-8 8h-350l-8 -8v-21l8 -8h302l-323 -410v-19l8 -8h368z" />
    <glyph glyph-name="braceleft" unicode="{" horiz-adv-x="243" 
d="M193 -15l0.000976562 23.9961l-8 8c-15.333 0 -26.166 2.16699 -32.499 6.5s-10.5 10.333 -12.5 18s-2.5 17 -1.5 28s1.5 23.5 1.5 37.5c0 36 1.16699 73 3.5 111s1.16602 75 -3.50098 111c-1.33301 10 -5.5 18.333 -12.5 25s-15.5 10.667 -25.5 12
c8.66699 2 17.167 6.33301 25.5 13s12.5 15 12.5 25l2 300c0 4.66699 1.5 8.33398 4.5 11.001s6.83301 4.5 11.5 5.5s9.33398 1.5 14.001 1.5h13l8 8v24l-8 8h-27c-17.333 0 -30.166 -4.5 -38.499 -13.5s-14.333 -20.167 -18 -33.5s-5.5 -27.333 -5.5 -42v-40
c0 -37.333 1.33301 -75.166 4 -113.499s1.66699 -76.166 -3 -113.499c-1.33301 -9.33301 -6 -16 -14 -20s-16.333 -6 -25 -6l-8 -8v-15l8 -8c13.333 0 23 -2.83301 29 -8.5s9.83301 -13 11.5 -22s2.16699 -18.667 1.5 -29s-1 -20.5 -1 -30.5
c0 -38 -0.833008 -75.833 -2.5 -113.5s-0.833984 -75.5 2.49902 -113.5c1.33301 -15.333 7.66602 -28.166 18.999 -38.499s24.666 -15.5 39.999 -15.5h27z" />
    <glyph glyph-name="bar" unicode="|" horiz-adv-x="145" 
d="M95 -175v927l-9 8h-28l-8 -8v-927l9 -8h28z" />
    <glyph glyph-name="braceright" unicode="}" horiz-adv-x="247" 
d="M197 357l0.00195312 15.001l-9 8c-7.33301 0 -15.333 1.83301 -24 5.5s-13.334 10.167 -14.001 19.5l-8 302c-0.666992 16.667 -6.16699 30 -16.5 40s-23.833 15 -40.5 15h-27l-8 -8v-24l9 -8c7.33301 0 15.666 -0.333008 24.999 -1s14.666 -5.66699 15.999 -15
c2.66699 -18.667 3.83398 -37.834 3.50098 -57.501s-0.5 -39.167 -0.5 -58.5c0 -30.667 -0.333008 -62 -1 -94s1 -63 5 -93c1.33301 -9.33301 5.5 -17.166 12.5 -23.499s15.167 -10.833 24.5 -13.5c-13.333 -4 -23 -11.333 -29 -22s-9.83301 -22.667 -11.5 -36
s-2.16699 -27.333 -1.5 -42s1 -27.334 1 -38.001c0 -32 0.5 -64.333 1.5 -97s-0.833008 -65 -5.5 -97c-1.33301 -10 -6.5 -15.333 -15.5 -16s-17.5 -1 -25.5 -1l-8 -8v-24l9 -7h27c18 0 31.333 6 40 18s14.5 26.333 17.5 43s4.16699 34 3.5 52s-1 33 -1 45
c0 32 -0.5 64.167 -1.5 96.5s0.833008 64.166 5.5 95.499c1.33301 8.66699 6.33301 14.334 15 17.001s16.667 4 24 4z" />
    <glyph glyph-name="asciitilde" unicode="~" horiz-adv-x="526" 
d="M476 657l-12.001 19.001l-6 4c-2 0 -5.33301 -2.33301 -10 -7s-10.667 -10 -18 -16s-16.166 -11.333 -26.499 -16s-22.5 -7 -36.5 -7c-17.333 0 -34.166 2.5 -50.499 7.5s-32.833 10.333 -49.5 16s-33.334 11 -50.001 16s-33.667 7.5 -51 7.5
c-5.33301 0 -14.333 -1.83301 -27 -5.5s-25.5 -8.16699 -38.5 -13.5s-24.667 -11.5 -35 -18.5s-15.5 -13.5 -15.5 -19.5c0 -1.33301 0.833008 -3.5 2.5 -6.5s3.5 -6 5.5 -9s4 -5.66699 6 -8s3.33301 -3.5 4 -3.5c2.66699 0 7 2.5 13 7.5s13.167 10.5 21.5 16.5
s18 11.5 29 16.5s22.5 7.5 34.5 7.5c16.667 0 33.5 -2.33301 50.5 -7s33.667 -10 50 -16s32.833 -11.333 49.5 -16s33.667 -7 51 -7c19.333 0 38.833 4.66699 58.5 14s36.167 20.666 49.5 33.999z" />
    <glyph glyph-name="exclamdown" unicode="&#xa1;" horiz-adv-x="148" 
d="M98 668v36l-6 7h-36l-6 -7v-36l6 -7h36zM94 2v598l-8 8h-29l-7 -8v-598l7 -8h29z" />
    <glyph glyph-name="cent" unicode="&#xa2;" horiz-adv-x="479" 
d="M427 38c0 5.33301 0.334961 12.1689 1.00195 20.502s-2 13.833 -8 16.5c-1.33301 0 -3.33301 -0.666992 -6 -2c-19.333 -13.333 -40.333 -23.5 -63 -30.5s-45.667 -11.167 -69 -12.5v415c10.667 -0.666992 23 -2.83398 37 -6.50098s27.167 -7.5 39.5 -11.5l32.5 -10.5
c9.33301 -3 14.666 -4.5 15.999 -4.5c4 0 6 2.33301 6 7v31l-5 7c-19.333 7.33301 -40 12.833 -62 16.5s-43.333 6.16699 -64 7.5v47l-8 8h-29l-7 -8v-48c-32.667 -3.33301 -60.834 -11.333 -84.501 -24s-43.167 -29.167 -58.5 -49.5s-26.666 -44 -33.999 -71
s-11 -56.167 -11 -87.5c0 -32.667 3.16699 -63.5 9.5 -92.5s16.833 -54.833 31.5 -77.5s34 -41.334 58 -56.001s53.667 -23.667 89 -27v-65l7 -8h29l8 8v64c22 1.33301 46.167 5 72.5 11s49.166 14.667 68.499 26zM238.002 32.0029c-28 4 -51.333 12.6699 -70 26.0029
s-33.667 30 -45 50s-19.5 42 -24.5 66s-7.5 48.667 -7.5 74c0 24.667 2.66699 48.167 8 70.5s14 42.166 26 59.499s27.333 31.666 46 42.999s41 18.666 67 21.999v-411z" />
    <glyph glyph-name="sterling" unicode="&#xa3;" horiz-adv-x="476" 
d="M425 8c0 2 0.168945 5 0.501953 9s0.333008 7.83301 0 11.5s-1.16602 7 -2.49902 10s-3.66602 4.5 -6.99902 4.5c-24.667 0 -49.5 -0.666992 -74.5 -2s-50.167 -2 -75.5 -2h-164c12 18 23.167 38.167 33.5 60.5s19.333 45.166 27 68.499s13.667 47 18 71
s6.5 46.667 6.5 68v20c0 6.66699 -0.666992 13.334 -2 20.001l172 -4l8 8v27l-9 8h-177c-2.66699 14.667 -6.33398 29.5 -11.001 44.5l-14 44.5c-4.66699 14.667 -8.66699 29.5 -12 44.5s-5 30.167 -5 45.5c0 20 3.83301 36.833 11.5 50.5s17.834 24.667 30.501 33
s27.167 14.333 43.5 18s33.166 5.5 50.499 5.5c14 0 28 -1.33301 42 -4s27.167 -5.83398 39.5 -9.50098l31.5 -9.5c8.66699 -2.66699 14.334 -4 17.001 -4c2 0 3.66699 1 5 3s2 3.66699 2 5v29l-7 8c-20.667 6.66699 -42.167 11.834 -64.5 15.501s-44.5 5.5 -66.5 5.5
c-23.333 0 -45.833 -2.66699 -67.5 -8s-40.834 -13.833 -57.501 -25.5s-29.834 -26.667 -39.501 -45s-14.5 -40.833 -14.5 -67.5c0 -15.333 1.5 -30.5 4.5 -45.5s6.83301 -29.833 11.5 -44.5l14.5 -44.5c5 -15 9.16699 -29.833 12.5 -44.5h-64l-8 -8v-25l9 -8
c11.333 0 22.833 0.333008 34.5 1s23.5 1 35.5 1v-40c0 -22 -1.83301 -45.333 -5.5 -70s-9.33398 -49.167 -17.001 -73.5s-17.334 -47.5 -29.001 -69.5s-25.5 -41 -41.5 -57v-29l9 -8h358z" />
    <glyph glyph-name="yen" unicode="&#xa5;" horiz-adv-x="503" 
d="M453 701c0 3.33301 -2.33398 5.00098 -7.00098 5.00098h-27l-7 -5l-81 -175.5l-82 -175.5l-155 351l-7 5c-1.33301 0 -4 0.166992 -8 0.5s-8.16699 0.333008 -12.5 0s-8.16602 -0.833008 -11.499 -1.5s-5 -2 -5 -4s3.66699 -11.333 11 -28l27.5 -62l36 -80.5l37.5 -83
l32 -69.5l18 -39h-114l-7 -8v-22l7 -8h127v-124h-127l-7 -8v-22l7 -8h127v-131l7 -8h29l8 8v131h123l8 8v22l-8 8h-123v124h123l8 8v22l-8 8h-108c2 5.33301 7.66699 17.666 17 36.999l33 68.5l40 83.5l38.5 82l29 63.5c7.66699 17 11.5 26.167 11.5 27.5z" />
    <glyph glyph-name="brokenbar" unicode="&#xa6;" horiz-adv-x="505" 
d="M455 488c0 16.667 -5.83301 30.834 -17.5 42.501s-25.834 17.5 -42.501 17.5s-30.834 -5.83301 -42.501 -17.5s-17.5 -25.834 -17.5 -42.501s5.83301 -30.834 17.5 -42.501s25.834 -17.5 42.501 -17.5s30.834 5.83301 42.501 17.5s17.5 25.834 17.5 42.501zM185 488
c0 16.667 -5.83301 30.834 -17.5 42.501s-25.834 17.5 -42.501 17.5s-30.834 -5.83301 -42.501 -17.5s-17.5 -25.834 -17.5 -42.501s5.83301 -30.834 17.5 -42.501s25.834 -17.5 42.501 -17.5s30.834 5.83301 42.501 17.5s17.5 25.834 17.5 42.501zM305 101l0.000976562 596
l-9 8h-151l-8 -8v-23l9 -8l117 -1v-569c0 -20 -1.66699 -39.833 -5 -59.5s-9.33301 -37.5 -18 -53.5s-20.834 -28.833 -36.501 -38.5s-35.5 -14.5 -59.5 -14.5c-10 0 -18.5 1.16699 -25.5 3.5s-13.833 5.16602 -20.5 8.49902s-13 6.83301 -19 10.5s-13 6.83398 -21 9.50098
c-5.33301 0 -8 -3 -8 -9l6 -35l4 -6c12 -6.66699 25.667 -11.667 41 -15s30 -5 44 -5c31.333 0 57.333 5.83301 78 17.5s37 27.167 49 46.5s20.5 41.5 25.5 66.5s7.5 51.167 7.5 78.5zM405.001 -127l-7 5.99805h-23l-6 -6c0 -30 -8.33301 -55.5 -25 -76.5
s-41 -31.5 -73 -31.5c-32.667 0 -57.167 10.333 -73.5 31s-24.5 46.334 -24.5 77.001l-6 6h-22l-7 -6c1.33301 -42 12.833 -75.5 34.5 -100.5s54.5 -37.5 98.5 -37.5c42 0 74.5 12.833 97.5 38.5s35.167 58.834 36.5 99.501zM443.001 465.998
c0 -5.33301 -1.83301 -9.83301 -5.5 -13.5s-8.16699 -5.5 -13.5 -5.5s-9.83301 1.83301 -13.5 5.5s-5.5 8.16699 -5.5 13.5s1.83301 9.83301 5.5 13.5s8.16699 5.5 13.5 5.5s9.83301 -1.83301 13.5 -5.5s5.5 -8.16699 5.5 -13.5zM173.001 465.998
c0 -5.33301 -1.83301 -9.83301 -5.5 -13.5s-8.16699 -5.5 -13.5 -5.5s-9.83301 1.83301 -13.5 5.5s-5.5 8.16699 -5.5 13.5s1.83301 9.83301 5.5 13.5s8.16699 5.5 13.5 5.5s9.83301 -1.83301 13.5 -5.5s5.5 -8.16699 5.5 -13.5z" />
    <glyph glyph-name="section" unicode="&#xa7;" horiz-adv-x="244" 
d="M194 357c0 19.333 -2.5 38.3369 -7.5 57.0039s-10.333 37.334 -16 56.001s-11 37.167 -16 55.5s-7.5 37.166 -7.5 56.499c0 17.333 3.83301 34.833 11.5 52.5s18.167 32.167 31.5 43.5l3 6c0 4 -3 8 -9 12s-10.667 7 -14 9l-10 -2
c-14 -15.333 -25.5 -34.166 -34.5 -56.499s-13.5 -43.833 -13.5 -64.5c0 -19.333 2.33301 -38.333 7 -57s10 -37.334 16 -56.001s11.333 -37.334 16 -56.001s7 -37.334 7 -56.001c0 -12 -1.5 -22.5 -4.5 -31.5s-6.83301 -17.5 -11.5 -25.5s-9.83398 -16 -15.501 -24
s-11.167 -16.333 -16.5 -25c-4.66699 15.333 -9.66699 32.833 -15 52.5s-8 37.834 -8 54.501s3.83301 33.834 11.5 51.501s18.167 32.167 31.5 43.5l3 7c0 3.33301 -3 7 -9 11s-10.667 7 -14 9l-10 -1c-14 -15.333 -25.5 -34.166 -34.5 -56.499s-13.5 -43.833 -13.5 -64.5
c0 -19.333 2.33301 -38.333 7 -57s10 -37.334 16 -56.001s11.333 -37.5 16 -56.5s7 -37.833 7 -56.5c0 -13.333 -1.66699 -24.5 -5 -33.5s-7.5 -17.333 -12.5 -25s-10.333 -15.334 -16 -23.001s-10.5 -16.5 -14.5 -26.5c0 -1.33301 1 -3.33301 3 -6
s4.5 -5.33398 7.5 -8.00098s6 -4.83398 9 -6.50098s5.5 -2.5 7.5 -2.5c6 0 12.5 5.83301 19.5 17.5s13.167 25.167 18.5 40.5s9.83301 30 13.5 44s5.5 23.667 5.5 29c0 18.667 -2.16699 37.5 -6.5 56.5s-9.16602 37.167 -14.499 54.5c4 -1.33301 7.5 -4.5 10.5 -9.5
s7.5 -7.5 13.5 -7.5s12.5 5.83301 19.5 17.5s13.167 25 18.5 40s9.83301 29.667 13.5 44s5.5 24.166 5.5 29.499z" />
    <glyph glyph-name="dieresis" unicode="&#xa8;" horiz-adv-x="331" 
d="M281 575v44l-7 8h-44l-8 -8v-44l8 -8h44zM109 575v45l-8 8h-44l-7 -8v-45l7 -8h44z" />
    <glyph glyph-name="copyright" unicode="&#xa9;" horiz-adv-x="799" 
d="M749 352c0 48.667 -8.66699 94.834 -26 138.501s-41.5 81.834 -72.5 114.501s-67.667 58.5 -110 77.5s-88.5 28.5 -138.5 28.5s-96.333 -9.5 -139 -28.5s-79.834 -44.667 -111.501 -77s-56.5 -70.333 -74.5 -114s-27 -90.167 -27 -139.5s9 -95.666 27 -138.999
s42.833 -81.333 74.5 -114s68.834 -58.334 111.501 -77.001s89 -28 139 -28s96.167 9.5 138.5 28.5s79 44.667 110 77s55.167 70.166 72.5 113.499s26 89.666 26 138.999zM705 352c0 -42 -7.83203 -81.833 -23.499 -119.5s-37.167 -71 -64.5 -100s-59.333 -52 -96 -69
s-76.334 -25.5 -119.001 -25.5s-82.667 8.5 -120 25.5s-70 39.833 -98 68.5s-50 62 -66 100s-24 78 -24 120s8 82 24 120s38 71.5 66 100.5s60.667 52 98 69s77.333 25.5 120 25.5s82.5 -8.5 119.5 -25.5s69 -40 96 -69s48.333 -62.5 64 -100.5s23.5 -78 23.5 -120z
M546.001 174c0 2 0.160156 5.66797 0.493164 11.001s0.5 10.666 0.5 15.999c0 6 -0.666992 11 -2 15s-3.66602 6 -6.99902 6c-0.666992 0 -4.66699 -2.16699 -12 -6.5s-16.666 -9 -27.999 -14s-24.5 -9.66699 -39.5 -14s-30.5 -6.5 -46.5 -6.5c-24 0 -45 4.66699 -63 14
s-32.667 21.833 -44 37.5s-19.833 33.667 -25.5 54s-8.5 41.5 -8.5 63.5c0 24 2.16699 46.333 6.5 67s12 38.334 23 53.001s25.5 26.167 43.5 34.5s40.667 12.5 68 12.5c12 0 24.167 -1.33301 36.5 -4s23.833 -5.83398 34.5 -9.50098l28 -9.5c8 -2.66699 13.667 -4 17 -4
c2.66699 0 4.5 1 5.5 3s1.5 4 1.5 6v34l-6 8c-16 7.33301 -35.167 12.5 -57.5 15.5s-42.166 4.5 -59.499 4.5c-35.333 0 -65.166 -4.83301 -89.499 -14.5s-44 -23.5 -59 -41.5s-25.667 -40.167 -32 -66.5s-9.5 -55.833 -9.5 -88.5c0 -30 3.83301 -58 11.5 -84
s19.334 -48.5 35.001 -67.5s35.334 -34 59.001 -45s51.834 -16.5 84.501 -16.5c20 0 42 2.5 66 7.5s45.333 12.167 64 21.5z" />
    <glyph glyph-name="ordfeminine" unicode="&#xaa;" horiz-adv-x="283" 
d="M231 470l0.00292969 166.001c0 29.333 -7.5 49 -22.5 59s-35.833 15 -62.5 15c-12 0 -25.5 -1.83301 -40.5 -5.5s-27.833 -9.16699 -38.5 -16.5l-3 -7v-7c0 -3.33301 0.166992 -6.5 0.5 -9.5s1 -5.66699 2 -8s2.5 -3.5 4.5 -3.5c1.33301 0 4.16602 1.33301 8.49902 4
s10 5.66699 17 9s14.833 6.33301 23.5 9s17.667 4 27 4c16.667 0 29.334 -2.5 38.001 -7.5s13 -16.833 13 -35.5v-22c-14.667 0 -30.5 -0.333008 -47.5 -1s-33 -3.33398 -48 -8.00098s-27.5 -12.5 -37.5 -23.5s-15 -26.5 -15 -46.5c0 -22 6.66699 -40.167 20 -54.5
s31.666 -21.5 54.999 -21.5c15.333 0 29.166 3.5 41.499 10.5s23.166 16.833 32.499 29.5v-29l9 -8h15zM233.003 411.001v18l-9 8h-161l-8 -8v-18l9 -8h161zM197.003 584.001l-1.00098 -0.000976562c0 -12 -1.16699 -23.5 -3.5 -34.5s-6.33301 -21 -12 -30
s-13.167 -16.167 -22.5 -21.5s-21 -8 -35 -8c-12 0 -21.667 4.66699 -29 14s-11 19.666 -11 30.999c0 10.667 2.5 19.334 7.5 26.001s11.5 11.834 19.5 15.501s16.833 6 26.5 7s18.834 1.5 27.501 1.5h16c6 0 11.667 -0.333008 17 -1z" />
    <glyph glyph-name="guillemotleft" unicode="&#xab;" horiz-adv-x="443" 
d="M393 208l-4 8l-155 150l156 147l3 8l-7 25l-8 6c-2 0 -7.33301 -4 -16 -12l-31.5 -30l-40.5 -39.5l-41 -41l-34 -34.5l-19 -19l-2 -5c0 -2.66699 0.166992 -5.66699 0.5 -9s1.16602 -6 2.49902 -8l175 -174l5 -3c2.66699 0 5 1.33301 7 4s3.5 5.66699 4.5 9
s1.83301 6.83301 2.5 10.5s1.33398 6.16699 2.00098 7.5zM249 208l-0.996094 0.000976562l-3 8l-155 149l156 148l3 8c-0.666992 1.33301 -1.33398 3.66602 -2.00098 6.99902s-1.5 6.83301 -2.5 10.5s-2.33301 6.83398 -4 9.50098s-3.83398 4 -6.50098 4
c-1.33301 0 -6.33301 -4 -15 -12l-31.5 -30l-40.5 -39.5l-41.5 -41l-34.5 -34.5l-19 -19l-2 -5c0 -2.66699 0.166992 -5.66699 0.5 -9s1.16602 -6 2.49902 -8l18 -18.5l33.5 -34l41.5 -41l40.5 -40l31.5 -30.5c8.66699 -8 13.334 -12 14.001 -12
c5.33301 0 9.16602 4.16699 11.499 12.5s4.16602 14.166 5.49902 17.499z" />
    <glyph glyph-name="logicalnot" unicode="&#xac;" horiz-adv-x="441" 
d="M391 302v107l-8 7h-325l-8 -7v-23l8 -8h291v-76l8 -8h26z" />
    <glyph glyph-name="registered" unicode="&#xae;" horiz-adv-x="816" 
d="M766 354c0 49.333 -9.49512 95.667 -28.4951 139s-44.833 81.166 -77.5 113.499s-70.834 57.833 -114.501 76.5s-89.834 28 -138.501 28c-49.333 0 -95.5 -9.33301 -138.5 -28s-80.833 -44.334 -113.5 -77.001s-58.334 -70.667 -77.001 -114s-28 -89.333 -28 -138
c0 -49.333 9.33301 -95.666 28 -138.999s44.167 -81.5 76.5 -114.5s70.166 -59 113.499 -78s89.666 -28.5 138.999 -28.5s95.833 9.5 139.5 28.5s81.667 44.833 114 77.5s58 70.834 77 114.501s28.5 90.167 28.5 139.5zM722.005 354.001
c0 -42 -8.50098 -82.167 -25.501 -120.5s-40 -72 -69 -101s-62.5 -52 -100.5 -69s-78 -25.5 -120 -25.5s-82 8.66699 -120 26s-71.167 40.5 -99.5 69.5s-51 62.5 -68 100.5s-25.5 78 -25.5 120s8.5 81.833 25.5 119.5s39.833 71 68.5 100s61.834 52 99.501 69
s77.5 25.5 119.5 25.5s82 -8.5 120 -25.5s71.5 -40 100.5 -69s52 -62.333 69 -100s25.5 -77.5 25.5 -119.5zM572.004 130.001c0 1.33301 -0.333984 2.50098 -1.00098 3.50098s-1.33398 2.16699 -2.00098 3.5c-11.333 12 -20.5 26.333 -27.5 43l-20.5 48l-12 27.5
c-5.33301 12.333 -11.5 24.833 -18.5 37.5s-14.333 24 -22 34s-14.834 15.667 -21.501 17c12 3.33301 22.833 8.83301 32.5 16.5s18 16.667 25 27s12.5 21.5 16.5 33.5s6 24 6 36c0 44.667 -11.833 77 -35.5 97s-57.167 30 -100.5 30c-4 0 -11.167 -0.166992 -21.5 -0.5
s-21.166 -1 -32.499 -2s-21.666 -2.5 -30.999 -4.5s-14.666 -5 -15.999 -9v-437l9 -9h30l8 9v193h68c5.33301 0 11.333 -4.16699 18 -12.5s13.667 -18.833 21 -31.5s14.5 -26.834 21.5 -42.501l19.5 -45l16 -39l10 -25.5l8 -6h43c2 0 3.83301 1 5.5 3s3.16699 3.66699 4.5 5
zM479.003 457.002c0 -25.333 -7.66797 -46.167 -23.001 -62.5s-35.666 -24.5 -60.999 -24.5h-58v166c18 2 36 3 54 3c26.667 0 48 -6.66699 64 -20s24 -34 24 -62z" />
    <glyph glyph-name="macron" unicode="&#xaf;" horiz-adv-x="437" 
d="M387 563v24l-8 7h-321l-8 -7v-24l8 -8h321z" />
    <glyph glyph-name="degree" unicode="&#xb0;" horiz-adv-x="257" 
d="M207 583c0 22 -7.66797 40.5 -23.001 55.5s-34 22.5 -56 22.5s-40.5 -7.5 -55.5 -22.5s-22.5 -33.5 -22.5 -55.5c0 -22.667 7.5 -41.5 22.5 -56.5s33.833 -22.5 56.5 -22.5s41.334 7.66699 56.001 23s22 34 22 56zM172.999 583c0 -12.667 -4.16895 -23.667 -12.502 -33
s-19.166 -14 -32.499 -14s-24.166 4.5 -32.499 13.5s-12.5 20.167 -12.5 33.5s4.33301 24.5 13 33.5s19.667 13.5 33 13.5c12.667 0 23.167 -4.83301 31.5 -14.5s12.5 -20.5 12.5 -32.5z" />
    <glyph glyph-name="plusminus" unicode="&#xb1;" horiz-adv-x="417" 
d="M359 385v24l-8 7h-128l1 128l-8 7h-24l-7 -7l1 -128h-129l-7 -7v-24l7 -8l129 1l-1 -128l7 -8h24l8 8l-1 128l128 -1zM367 186v23l-7 8h-294l-8 -8v-23l8 -8h294z" />
    <glyph glyph-name="threesuperior" unicode="&#xb3;" horiz-adv-x="498" 
d="M448 488c0 16.667 -5.83301 30.834 -17.5 42.501s-25.834 17.5 -42.501 17.5s-30.834 -5.83301 -42.501 -17.5s-17.5 -25.834 -17.5 -42.501s5.83301 -30.834 17.5 -42.501s25.834 -17.5 42.501 -17.5s30.834 5.83301 42.501 17.5s17.5 25.834 17.5 42.501zM178 488
c0 16.667 -5.83301 30.834 -17.5 42.501s-25.834 17.5 -42.501 17.5s-30.834 -5.83301 -42.501 -17.5s-17.5 -25.834 -17.5 -42.501s5.83301 -30.834 17.5 -42.501s25.834 -17.5 42.501 -17.5s30.834 5.83301 42.501 17.5s17.5 25.834 17.5 42.501zM439 8l-0.000976562 117
l-8 8h-23l-8 -9v-83c-51.333 -2.66699 -102.666 -4 -153.999 -4h-153l17 43l32 81l41.5 106l46 117.5l45.5 115.5l38.5 100l27 71c7 18 10.5 27.667 10.5 29c0 2 -1 3.5 -3 4.5s-3.66699 1.5 -5 1.5h-28l-6 -5l-259 -666v-27l8 -8c124 0.666992 248 0.666992 372 0l6 3z
M279.999 -201c0 3.33301 -2.49902 6.16797 -7.49902 8.50098l-11.5 5.5l-10 -2c-9.33301 -14.667 -22.666 -22 -39.999 -22c-12.667 0 -21.834 4.5 -27.501 13.5s-8.5 19.167 -8.5 30.5c0 6 1.83301 13.167 5.5 21.5s8 16.833 13 25.5s10.333 16.667 16 24l14.5 19v-1l3 5
l-13 6c-2 5.33301 -6.66699 8 -14 8l-8 -4l-19 -25c-7.33301 -9.33301 -14.333 -19 -21 -29s-12.334 -20.333 -17.001 -31s-7 -20.334 -7 -29.001c0 -21.333 6.83301 -39.333 20.5 -54s31.5 -22 53.5 -22c6 0 13.5 1.33301 22.5 4s17.667 6.33398 26 11.001
s15.333 10.167 21 16.5s8.5 13.166 8.5 20.499zM436 466.002c0 -5.33301 -1.83301 -9.83301 -5.5 -13.5s-8.16699 -5.5 -13.5 -5.5s-9.83301 1.83301 -13.5 5.5s-5.5 8.16699 -5.5 13.5s1.83301 9.83301 5.5 13.5s8.16699 5.5 13.5 5.5s9.83301 -1.83301 13.5 -5.5
s5.5 -8.16699 5.5 -13.5zM166 466.002c0 -5.33301 -1.83301 -9.83301 -5.5 -13.5s-8.16699 -5.5 -13.5 -5.5s-9.83301 1.83301 -13.5 5.5s-5.5 8.16699 -5.5 13.5s1.83301 9.83301 5.5 13.5s8.16699 5.5 13.5 5.5s9.83301 -1.83301 13.5 -5.5s5.5 -8.16699 5.5 -13.5z" />
    <glyph glyph-name="acute" unicode="&#xb4;" horiz-adv-x="293" 
d="M243 764c0 4 -2.66699 6 -8 6h-35l-7 -3c-2 -3.33301 -7 -10.5 -15 -21.5l-27.5 -39l-33.5 -48l-32.5 -47l-24.5 -36.5c-6.66699 -10 -10 -15.333 -10 -16c0 -5.33301 3 -8 9 -8h18l5 3l17.5 21.5l31 39.5l37.5 48l36.5 47l27.5 37c7.33301 10 11 15.667 11 17z" />
    <glyph glyph-name="mu" unicode="&#xb5;" horiz-adv-x="483" 
d="M433 466l-8.00195 8.00488h-27l-8 -8v-258c0 -24 -4 -47 -12 -69s-19.5 -41.167 -34.5 -57.5s-32.833 -29.333 -53.5 -39s-43.667 -14.5 -69 -14.5c-23.333 0 -43.166 5.66699 -59.499 17s-29.666 25.833 -39.999 43.5s-17.833 37.167 -22.5 58.5s-7 41.666 -7 60.999
c0 43.333 0.666992 86.333 2 129s2 85.667 2 129c0 5.33301 -2.66699 8 -8 8h-27l-8 -8c-2 -93.333 -3 -186 -3 -278c0 -60.667 0.166992 -120.667 0.5 -180s0.833008 -119.333 1.5 -180l8 -8c2 0 5 -0.166992 9 -0.5s8 -0.5 12 -0.5s7.5 0.666992 10.5 2
s4.5 3.66602 4.5 6.99902c0 37.333 -1 74.666 -3 111.999s-3.66699 74.666 -5 111.999c4 -11.333 11.333 -20.833 22 -28.5s22.5 -13.834 35.5 -18.501s26.333 -8 40 -10s25.5 -3 35.5 -3c36.667 0 68.167 5.33301 94.5 16s48 26 65 46s29.667 44 38 72s12.5 59.333 12.5 94
z" />
    <glyph glyph-name="paragraph" unicode="&#xb6;" horiz-adv-x="429" 
d="M379 -92v792l-8 8l-57.5 2c-19 0.666992 -38.167 1 -57.5 1c-66 0 -116.833 -14.333 -152.5 -43s-53.5 -77.667 -53.5 -147c0 -68 18.333 -119.833 55 -155.5s88.667 -53.5 156 -53.5l5 -0.5c3.33301 -0.333008 5 0.166992 5 1.5c0 0.666992 -0.333008 1 -1 1v0v-406
l8 -8h25l8 8v764h25v-764l8 -8h27zM270 353l-2.00195 -2.99902c1.33301 1.33301 0.833008 1.5 -1.5 0.5s-4.16602 -1.5 -5.49902 -1.5c-53.333 0 -94.666 15.333 -123.999 46s-44 72.667 -44 126c0 55.333 14.167 94.666 42.5 117.999s68.5 35 120.5 35
c2.66699 0 5 -0.166992 7 -0.5s4.33301 -0.5 7 -0.5v-320z" />
    <glyph glyph-name="periodcentered" unicode="&#xb7;" horiz-adv-x="163" 
d="M113 392v48l-9 8h-46l-8 -8v-48l9 -8h46z" />
    <glyph glyph-name="periodcentered" unicode="&#x2219;" horiz-adv-x="163" 
d="M113 392v48l-9 8h-46l-8 -8v-48l9 -8h46z" />
    <glyph glyph-name="cedilla" unicode="&#xb8;" horiz-adv-x="269" 
d="M219 -115c0 8.66699 -2.16699 16.6689 -6.5 24.002s-10 13.666 -17 18.999s-14.5 10 -22.5 14s-16 7 -24 9h2l-38 12c0 4.66699 1.16699 9.66699 3.5 15s4.83301 10.5 7.5 15.5s5 9.16699 7 12.5s3 5.66602 3 6.99902c0 4.66699 -2.83301 7.33398 -8.5 8.00098
s-10.167 1 -13.5 1l-7 -4c-5.33301 -8.66699 -11 -19.167 -17 -31.5s-9 -23.833 -9 -34.5c0 -4.66699 1.83301 -8.83398 5.5 -12.501s8.16699 -6.83398 13.5 -9.50098s10.666 -5 15.999 -7s10 -3.66699 14 -5l-2 1c4 -1.33301 8.66699 -3 14 -5s10.5 -4.5 15.5 -7.5
s9.33301 -6.5 13 -10.5s5.5 -8.33301 5.5 -13c0 -13.333 -5.33301 -22.333 -16 -27s-21.667 -7 -33 -7c-9.33301 0 -17.666 1.16699 -24.999 3.5s-13.833 5 -19.5 8s-10.5 5.66699 -14.5 8s-7.33301 3.5 -10 3.5c-1.33301 0 -2.66602 -1 -3.99902 -3s-2 -3.66699 -2 -5v-28
l5 -7c10 -5.33301 21.5 -9.33301 34.5 -12s25.167 -4 36.5 -4s22.666 1.33301 33.999 4s21.333 6.83398 30 12.501s15.667 13 21 22s8 20.167 8 33.5z" />
    <glyph glyph-name="onesuperior" unicode="&#xb9;" horiz-adv-x="595" 
d="M545 620c0 3.33301 -2.33203 5.66699 -6.99902 7h-26l-7 -7c0 -34 -9.5 -63 -28.5 -87s-46.5 -36 -82.5 -36c-36.667 0 -64.334 11.667 -83.001 35s-28 52.666 -28 87.999l-7 7h-25c-4.66699 -1.33301 -7 -3.66602 -7 -6.99902c0 -48 13 -86.167 39 -114.5
s63 -42.5 111 -42.5c23.333 0 44.333 3.83301 63 11.5s34.5 18.5 47.5 32.5s23 30.5 30 49.5s10.5 40.167 10.5 63.5zM331.001 752.001c1.33301 4 -0.331055 6.66895 -4.99805 8.00195h-26c-1.33301 -1.33301 -3 -2.5 -5 -3.5s-3.66699 -2.5 -5 -4.5l-197 -505
c-9.33301 -25.333 -18.833 -53.333 -28.5 -84s-14.5 -59.667 -14.5 -87c0 -31.333 8.33301 -52.833 25 -64.5s39.667 -17.5 69 -17.5c6 0 13.167 0.5 21.5 1.5s16.666 2.5 24.999 4.5s16.166 4.66699 23.499 8s13.333 7.33301 18 12l11 29c1.33301 4 0 6.66699 -4 8
c-1.33301 0 -4.16602 -1.33301 -8.49902 -4s-10 -5.83398 -17 -9.50098s-15.333 -6.83398 -25 -9.50098s-19.834 -4 -30.501 -4c-43.333 0 -65 21.333 -65 64c0 24 4.5 50 13.5 78s17.833 53 26.5 75zM545.004 -79.9971c0 3.33301 -2.33203 5.66699 -6.99902 7h-26l-7 -7
c0 -34 -9.5 -63 -28.5 -87s-46.5 -36 -82.5 -36c-36.667 0 -64.334 11.667 -83.001 35s-28 52.666 -28 87.999l-7 7h-25c-4.66699 -1.33301 -7 -3.66602 -7 -6.99902c0 -48 13 -86.167 39 -114.5s63 -42.5 111 -42.5c23.333 0 44.333 3.83301 63 11.5s34.5 18.5 47.5 32.5
s23 30.5 30 49.5s10.5 40.167 10.5 63.5z" />
    <glyph glyph-name="ordmasculine" unicode="&#xba;" horiz-adv-x="332" 
d="M282 588c0 35.333 -10.498 64.668 -31.498 88.001s-49.5 35 -85.5 35c-40.667 0 -70 -11.167 -88 -33.5s-27 -52.833 -27 -91.5c0 -36.667 9.5 -67 28.5 -91s47.833 -36 86.5 -36c18 0 34.167 3.5 48.5 10.5s26.666 16.5 36.999 28.5s18.166 25.667 23.499 41
s8 31.666 8 48.999zM258.002 411.002v18l-8 8h-169l-8 -8v-18l8 -8h169zM241.002 588.002c0 -11.333 -1.49902 -22.666 -4.49902 -33.999s-7.66699 -21.833 -14 -31.5s-14.333 -17.5 -24 -23.5s-20.834 -9 -33.501 -9c-13.333 0 -25 2.66699 -35 8s-18.5 12.5 -25.5 21.5
s-12.333 19.333 -16 31s-5.5 23.5 -5.5 35.5s1.83301 23.667 5.5 35s9 21.333 16 30s15.667 15.667 26 21s21.833 8 34.5 8c11.333 0 21.666 -2.83301 30.999 -8.5s17.333 -13 24 -22s11.834 -18.833 15.501 -29.5s5.5 -21.334 5.5 -32.001z" />
    <glyph glyph-name="guillemotright" unicode="&#xbb;" horiz-adv-x="435" 
d="M385 360v11l-3 5l-176 173l-6 3c-5.33301 -0.666992 -9 -5 -11 -13s-3.66699 -14 -5 -18l4 -8l78 -73.5l78 -74.5l-157 -149l-3 -8c2 -5.33301 4 -11.333 6 -18s5.66699 -11 11 -13c1.33301 0 6.33301 4 15 12l31.5 30.5l40.5 40l41.5 41.5l34.5 34.5l19 18.5
c0 1.33301 0.333008 2.33301 1 3s1 1.66699 1 3zM251 360h-1v11l-2 5l-176 173l-6 3c-5.33301 -0.666992 -9 -5 -11 -13s-3.66699 -14 -5 -18l4 -8l157 -148l-158 -149l-2 -9l10 -24l7 -5c1.33301 0 6.33301 4 15 12l31.5 30l40.5 40l41.5 41.5l34 34l18.5 18.5
c0 1.33301 0.333008 2.33301 1 3s1 1.66699 1 3z" />
    <glyph glyph-name="onequarter" unicode="&#xbc;" horiz-adv-x="636" 
d="M586 620c0 3.33301 -2.33203 5.66699 -6.99902 7h-26l-7 -7c0 -34 -9.5 -63 -28.5 -87s-46.5 -36 -82.5 -36c-36.667 0 -64.334 11.667 -83.001 35s-28 52.666 -28 87.999l-7 7h-25c-4.66699 -1.33301 -7 -3.66602 -7 -6.99902c0 -48 13 -86.167 39 -114.5
s63 -42.5 111 -42.5c23.333 0 44.333 3.83301 63 11.5s34.5 18.5 47.5 32.5s23 30.5 30 49.5s10.5 40.167 10.5 63.5zM170.001 548.001c0 16.667 -5.83301 30.834 -17.5 42.501s-25.834 17.5 -42.501 17.5s-30.834 -5.83301 -42.501 -17.5s-17.5 -25.834 -17.5 -42.501
s5.83301 -30.834 17.5 -42.501s25.834 -17.5 42.501 -17.5s30.834 5.83301 42.501 17.5s17.5 25.834 17.5 42.501zM372.001 752.001c1.33301 4 -0.331055 6.66895 -4.99805 8.00195h-26c-1.33301 -1.33301 -3 -2.5 -5 -3.5s-3.66699 -2.5 -5 -4.5l-197 -505
c-9.33301 -25.333 -18.833 -53.333 -28.5 -84s-14.5 -59.667 -14.5 -87c0 -31.333 8.33301 -52.833 25 -64.5s39.667 -17.5 69 -17.5c6 0 13.167 0.5 21.5 1.5s16.666 2.5 24.999 4.5s16.166 4.66699 23.499 8s13.333 7.33301 18 12l11 29c1.33301 4 0 6.66699 -4 8
c-1.33301 0 -4.16602 -1.33301 -8.49902 -4s-10 -5.83398 -17 -9.50098s-15.333 -6.83398 -25 -9.50098s-19.834 -4 -30.501 -4c-43.333 0 -65 21.333 -65 64c0 24 4.5 50 13.5 78s17.833 53 26.5 75zM586.004 -79.9971c0 3.33301 -2.33203 5.66699 -6.99902 7h-26l-7 -7
c0 -34 -9.5 -63 -28.5 -87s-46.5 -36 -82.5 -36c-36.667 0 -64.334 11.667 -83.001 35s-28 52.666 -28 87.999l-7 7h-25c-4.66699 -1.33301 -7 -3.66602 -7 -6.99902c0 -48 13 -86.167 39 -114.5s63 -42.5 111 -42.5c23.333 0 44.333 3.83301 63 11.5s34.5 18.5 47.5 32.5
s23 30.5 30 49.5s10.5 40.167 10.5 63.5zM158.005 526.004c0 -5.33301 -1.83301 -9.83301 -5.5 -13.5s-8.16699 -5.5 -13.5 -5.5s-9.83301 1.83301 -13.5 5.5s-5.5 8.16699 -5.5 13.5s1.83301 9.83301 5.5 13.5s8.16699 5.5 13.5 5.5s9.83301 -1.83301 13.5 -5.5
s5.5 -8.16699 5.5 -13.5z" />
    <glyph glyph-name="onehalf" unicode="&#xbd;" horiz-adv-x="635" 
d="M585 578c0 3.33301 -2.33203 5.66699 -6.99902 7h-26l-7 -7c0 -34 -9.5 -63 -28.5 -87s-46.5 -36 -82.5 -36c-36.667 0 -64.334 11.667 -83.001 35s-28 52.666 -28 87.999l-7 7h-25c-4.66699 -1.33301 -7 -3.66602 -7 -6.99902c0 -48 13 -86.167 39 -114.5
s63 -42.5 111 -42.5c23.333 0 44.333 3.83301 63 11.5s34.5 18.5 47.5 32.5s23 30.5 30 49.5s10.5 40.167 10.5 63.5zM191.001 498.001c0 16.667 -5.83301 30.834 -17.5 42.501s-25.834 17.5 -42.501 17.5s-30.834 -5.83301 -42.501 -17.5s-17.5 -25.834 -17.5 -42.501
s5.83301 -30.834 17.5 -42.501s25.834 -17.5 42.501 -17.5s30.834 5.83301 42.501 17.5s17.5 25.834 17.5 42.501zM408.001 34.001c0 2 0.166992 5.16992 0.5 9.50293s0.333008 8.66602 0 12.999s-1 8.33301 -2 12s-2.83301 5.5 -5.5 5.5c-2 0 -7.5 -2.16699 -16.5 -6.5
s-20.333 -9.33301 -34 -15s-29 -10.667 -46 -15s-33.833 -6.5 -50.5 -6.5c-24.667 0 -46.834 2.5 -66.501 7.5s-36.5 13 -50.5 24s-24.667 25.5 -32 43.5s-11 40.333 -11 67c0 28 7.5 54.333 22.5 79s33.833 47 56.5 67s47.5 37.667 74.5 53s52.167 27.333 75.5 36l5 7
l4 190l-9 8c-2 0 -5.16699 0.166992 -9.5 0.5s-8.83301 0.5 -13.5 0.5s-8.66699 -0.666992 -12 -2s-5 -3.66602 -5 -6.99902v-85c0 -28 0.666992 -56 2 -84c-24 -11.333 -49.667 -26 -77 -44s-52.666 -38.5 -75.999 -61.5s-42.833 -47.833 -58.5 -74.5
s-23.5 -54.334 -23.5 -83.001c0 -33.333 4.83301 -61.5 14.5 -84.5s23.334 -41.5 41.001 -55.5s39.167 -24 64.5 -30s53.666 -9 84.999 -9c10.667 0 22.667 0.666992 36 2s26.833 3.16602 40.5 5.49902s26.667 5.66602 39 9.99902s23.5 9.5 33.5 15.5zM585.001 -71.9961
c0 3.33301 -2.33203 5.66699 -6.99902 7h-26l-7 -7c0 -34 -9.5 -63 -28.5 -87s-46.5 -36 -82.5 -36c-36.667 0 -64.334 11.667 -83.001 35s-28 52.666 -28 87.999l-7 7h-25c-4.66699 -1.33301 -7 -3.66602 -7 -6.99902c0 -48 13 -86.167 39 -114.5s63 -42.5 111 -42.5
c23.333 0 44.333 3.83301 63 11.5s34.5 18.5 47.5 32.5s23 30.5 30 49.5s10.5 40.167 10.5 63.5zM179.002 476.005c0 -5.33301 -1.83301 -9.83301 -5.5 -13.5s-8.16699 -5.5 -13.5 -5.5s-9.83301 1.83301 -13.5 5.5s-5.5 8.16699 -5.5 13.5s1.83301 9.83301 5.5 13.5
s8.16699 5.5 13.5 5.5s9.83301 -1.83301 13.5 -5.5s5.5 -8.16699 5.5 -13.5z" />
    <glyph glyph-name="threequarters" unicode="&#xbe;" horiz-adv-x="590" 
d="M540 388c0 16.667 -5.83301 30.834 -17.5 42.501s-25.834 17.5 -42.501 17.5s-30.834 -5.83301 -42.501 -17.5s-17.5 -25.834 -17.5 -42.501s5.83301 -30.834 17.5 -42.501s25.834 -17.5 42.501 -17.5s30.834 5.83301 42.501 17.5s17.5 25.834 17.5 42.501zM443 7
l0.00292969 146.997l-8 8h-23l-8 -9v-111c-22.667 -1.33301 -45.334 -2.5 -68.001 -3.5s-45.334 -1.5 -68.001 -1.5c-27.333 0 -54.333 0.166992 -81 0.5s-53.667 0.5 -81 0.5c16 20 34.833 42.333 56.5 67l68 78.5l70.5 85.5c23.333 29.333 44.166 58.833 62.499 88.5
s33.166 58.834 44.499 87.501s17 56 17 82c0 34 -4.16699 62.667 -12.5 86s-20.666 42.166 -36.999 56.499s-36.666 24.5 -60.999 30.5s-52.5 9 -84.5 9c-24 0 -48.333 -2.16699 -73 -6.5s-48.667 -9.5 -72 -15.5l-6 -8c0 -1.33301 -0.166992 -4 -0.5 -8
s-0.333008 -8.16699 0 -12.5s0.833008 -8.16602 1.5 -11.499s2 -5 4 -5c4.66699 0 12.167 1.5 22.5 4.5s22.166 6.16699 35.499 9.5s27.5 6.5 42.5 9.5s29.833 4.5 44.5 4.5c48 0 85.5 -11 112.5 -33s40.5 -58.667 40.5 -110c0 -23.333 -6 -49.166 -18 -77.499
s-27.833 -57.666 -47.5 -87.999s-41.667 -60.833 -66 -91.5s-48.833 -60 -73.5 -88l-70.5 -79l-56.5 -63v-32l8 -8h354h23zM270.003 387.997c0 16.667 -5.83301 30.834 -17.5 42.501s-25.834 17.5 -42.501 17.5s-30.834 -5.83301 -42.501 -17.5s-17.5 -25.834 -17.5 -42.501
s5.83301 -30.834 17.5 -42.501s25.834 -17.5 42.501 -17.5s30.834 5.83301 42.501 17.5s17.5 25.834 17.5 42.501zM516.003 -80.0029c0 3.33301 -2.33203 5.66699 -6.99902 7h-26l-7 -7c0 -34 -9.5 -63 -28.5 -87s-46.5 -36 -82.5 -36c-36.667 0 -64.334 11.667 -83.001 35
s-28 52.666 -28 87.999l-7 7h-25c-4.66699 -1.33301 -7 -3.66602 -7 -6.99902c0 -48 13 -86.167 39 -114.5s63 -42.5 111 -42.5c23.333 0 44.333 3.83301 63 11.5s34.5 18.5 47.5 32.5s23 30.5 30 49.5s10.5 40.167 10.5 63.5zM528.004 365.998
c0 -5.33301 -1.83301 -9.83301 -5.5 -13.5s-8.16699 -5.5 -13.5 -5.5s-9.83301 1.83301 -13.5 5.5s-5.5 8.16699 -5.5 13.5s1.83301 9.83301 5.5 13.5s8.16699 5.5 13.5 5.5s9.83301 -1.83301 13.5 -5.5s5.5 -8.16699 5.5 -13.5zM258.004 365.998
c0 -5.33301 -1.83301 -9.83301 -5.5 -13.5s-8.16699 -5.5 -13.5 -5.5s-9.83301 1.83301 -13.5 5.5s-5.5 8.16699 -5.5 13.5s1.83301 9.83301 5.5 13.5s8.16699 5.5 13.5 5.5s9.83301 -1.83301 13.5 -5.5s5.5 -8.16699 5.5 -13.5z" />
    <glyph glyph-name="questiondown" unicode="&#xbf;" horiz-adv-x="459" 
d="M328 668v36l-6 7h-36l-6 -7v-36l6 -7h36zM408 34c0 2 0.166992 5.16992 0.5 9.50293s0.333008 8.66602 0 12.999s-1 8.33301 -2 12s-2.83301 5.5 -5.5 5.5c-2 0 -7.5 -2.16699 -16.5 -6.5s-20.333 -9.33301 -34 -15s-29 -10.667 -46 -15s-33.833 -6.5 -50.5 -6.5
c-24.667 0 -46.834 2.5 -66.501 7.5s-36.5 13 -50.5 24s-24.667 25.5 -32 43.5s-11 40.333 -11 67c0 28 7.5 54.333 22.5 79s33.833 47 56.5 67s47.5 37.667 74.5 53s52.167 27.333 75.5 36l5 7l4 190l-9 8c-2 0 -5.16699 0.166992 -9.5 0.5s-8.83301 0.5 -13.5 0.5
s-8.66699 -0.666992 -12 -2s-5 -3.66602 -5 -6.99902v-85c0 -28 0.666992 -56 2 -84c-24 -11.333 -49.667 -26 -77 -44s-52.666 -38.5 -75.999 -61.5s-42.833 -47.833 -58.5 -74.5s-23.5 -54.334 -23.5 -83.001c0 -33.333 4.83301 -61.5 14.5 -84.5
s23.334 -41.5 41.001 -55.5s39.167 -24 64.5 -30s53.666 -9 84.999 -9c10.667 0 22.667 0.666992 36 2s26.833 3.16602 40.5 5.49902s26.667 5.66602 39 9.99902s23.5 9.5 33.5 15.5z" />
    <glyph glyph-name="Agrave" unicode="&#xc0;" horiz-adv-x="649" 
d="M400 728c0 0.666992 -2.83301 6.33398 -8.5 17.001l-21 39.5l-27.5 51l-28.5 52l-23.5 42.5c-6.66699 12 -11 19.667 -13 23l-7 4h-35c-5.33301 0 -8 -2.66699 -8 -8c0 -0.666992 3.16699 -6.33398 9.5 -17.001l24 -39.5l32 -51l33 -52l27 -42.5
c7.66699 -12 12.5 -19.667 14.5 -23l7 -3c0.666992 0 2.5 -0.166992 5.5 -0.5s5.83301 -0.333008 8.5 0s5.16699 1 7.5 2s3.5 2.83301 3.5 5.5zM599 6c0 2 -2.83203 11.167 -8.49902 27.5l-21.5 61l-28.5 79l-29.5 81l-24.5 68.5c-7 20 -11.833 33.333 -14.5 40l-118 338
l-8 5h-38l-7 -5l-35 -98l-51 -141l-57 -158l-53 -147l-39.5 -108c-10.333 -28 -15.5 -42.333 -15.5 -43c0 -2 1.16699 -3.5 3.5 -4.5s4.16602 -1.5 5.49902 -1.5h28l8 5l49 136.5l49 136.5h264l98 -273l8 -5c1.33301 -0 4 -0.166992 8 -0.5s8 -0.333008 12 0s7.66699 1 11 2
s5 2.5 5 4.5zM445.001 317h-239l122 335z" />
    <glyph glyph-name="Aacute" unicode="&#xc1;" horiz-adv-x="649" 
d="M452 942c0 5.33301 -2.66699 8 -8 8h-35l-7 -3c-2 -3.33301 -7 -10.5 -15 -21.5l-28 -39l-33.5 -48l-32.5 -47l-24.5 -36c-6.33301 -9.66699 -9.5 -15.167 -9.5 -16.5c0 -5.33301 3 -8 9 -8h18l6 3l16 21l31 40l38 48l36.5 46.5l27.5 36.5c7.33301 10 11 15.333 11 16z
M599 6c0 2 -2.83203 11.167 -8.49902 27.5l-21.5 61l-28.5 79l-29.5 81l-24.5 68.5c-7 20 -11.833 33.333 -14.5 40l-118 338l-8 5h-38l-7 -5l-35 -98l-51 -141l-57 -158l-53 -147l-39.5 -108c-10.333 -28 -15.5 -42.333 -15.5 -43c0 -2 1.16699 -3.5 3.5 -4.5
s4.16602 -1.5 5.49902 -1.5h28l8 5l49 136.5l49 136.5h264l98 -273l8 -5c1.33301 -0 4 -0.166992 8 -0.5s8 -0.333008 12 0s7.66699 1 11 2s5 2.5 5 4.5zM445.001 317h-239l122 335z" />
    <glyph glyph-name="Acircumflex" unicode="&#xc2;" horiz-adv-x="649" 
d="M544 723c0 1.33301 -4 6.16699 -12 14.5l-30 31l-39.5 40l-41 40.5l-34.5 33.5l-19 18.5c-1.33301 1.33301 -3.33301 2 -6 2h-52l-18.5 -18l-35 -33.5l-43 -41.5l-41 -40.5l-31 -31c-8.33301 -8.33301 -12.5 -12.833 -12.5 -13.5c0 -6 2.66699 -9 8 -9h28l85 80l87 79
l172 -159c4.66699 0 11.167 -0.166992 19.5 -0.5s13.5 2.16699 15.5 7.5zM599 6.00098c0 2 -2.83203 11.167 -8.49902 27.5l-21.5 61l-28.5 79l-29.5 81l-24.5 68.5c-7 20 -11.833 33.333 -14.5 40l-118 338l-8 5h-38l-7 -5l-35 -98l-51 -141l-57 -158l-53 -147l-39.5 -108
c-10.333 -28 -15.5 -42.333 -15.5 -43c0 -2 1.16699 -3.5 3.5 -4.5s4.16602 -1.5 5.49902 -1.5h28l8 5l49 136.5l49 136.5h264l98 -273l8 -5c1.33301 0 4 -0.166992 8 -0.5s8 -0.333008 12 0s7.66699 1 11 2s5 2.5 5 4.5zM445.001 317.001h-239l122 335z" />
    <glyph glyph-name="Atilde" unicode="&#xc3;" horiz-adv-x="649" 
d="M540 810l-12.002 18.0029l-6 4c-1.33301 0 -4 -2.33301 -8 -7s-9.16699 -9.66699 -15.5 -15s-14.166 -10.333 -23.499 -15s-20.333 -7 -33 -7c-14.667 0 -29.167 2.5 -43.5 7.5s-28.666 10.333 -42.999 16s-28.833 11 -43.5 16s-29.667 7.5 -45 7.5
c-19.333 0 -38.333 -5.83301 -57 -17.5s-34 -24.5 -46 -38.5v-10c2.66699 -3.33301 5.5 -7.33301 8.5 -12s6.83301 -7 11.5 -7l7 7.5c4.66699 5 10.834 10.5 18.501 16.5s16.5 11.5 26.5 16.5s20.333 7.5 31 7.5c14.667 0 29.167 -2.33301 43.5 -7
s28.666 -9.83398 42.999 -15.501s28.833 -10.834 43.5 -15.501s29.667 -7 45 -7c17.333 0 35 4.66699 53 14s32.667 20.666 44 33.999zM598.998 6.00293c0 2 -2.83203 11.167 -8.49902 27.5l-21.5 61l-28.5 79l-29.5 81l-24.5 68.5c-7 20 -11.833 33.333 -14.5 40l-118 338
l-8 5h-38l-7 -5l-35 -98l-51 -141l-57 -158l-53 -147l-39.5 -108c-10.333 -28 -15.5 -42.333 -15.5 -43c0 -2 1.16699 -3.5 3.5 -4.5s4.16602 -1.5 5.49902 -1.5h28l8 5l49 136.5l49 136.5h264l98 -273l8 -5c1.33301 0 4 -0.166992 8 -0.5s8 -0.333008 12 0s7.66699 1 11 2
s5 2.5 5 4.5zM444.999 317.003h-239l122 335z" />
    <glyph glyph-name="Adieresis" unicode="&#xc4;" horiz-adv-x="649" 
d="M445 748v44l-9 8h-43l-7 -8v-44l8 -8h43zM272 748v45l-8 8h-43l-7 -8v-45l8 -8h43zM599 6c0 2 -2.83203 11.167 -8.49902 27.5l-21.5 61l-28.5 79l-29.5 81l-24.5 68.5c-7 20 -11.833 33.333 -14.5 40l-118 338l-8 5h-38l-7 -5l-35 -98l-51 -141l-57 -158l-53 -147
l-39.5 -108c-10.333 -28 -15.5 -42.333 -15.5 -43c0 -2 1.16699 -3.5 3.5 -4.5s4.16602 -1.5 5.49902 -1.5h28l8 5l49 136.5l49 136.5h264l98 -273l8 -5c1.33301 -0 4 -0.166992 8 -0.5s8 -0.333008 12 0s7.66699 1 11 2s5 2.5 5 4.5zM445.001 317h-239l122 335z" />
    <glyph glyph-name="Aring" unicode="&#xc5;" horiz-adv-x="649" 
d="M599 6c0 2 -2.83105 11.166 -8.49805 27.499l-21.5 61l-28.5 79l-29.5 81l-24.5 68.5c-7 20 -11.833 33.333 -14.5 40l-112 321c13.333 5.33301 23.333 14.333 30 27s10 25.667 10 39c0 20 -7 36.833 -21 50.5s-31 20.5 -51 20.5c-19.333 0 -36 -6.83301 -50 -20.5
s-21 -30.5 -21 -50.5c0 -13.333 3.16699 -26.166 9.5 -38.499s16.166 -21.5 29.499 -27.5l-35 -97l-50 -138l-56 -153.5l-52 -142.5l-38 -105c-10 -27.333 -15 -41.333 -15 -42c0 -2 1.16699 -3.5 3.5 -4.5s4.16602 -1.5 5.49902 -1.5h28l8 5l49 136.5l49 136.5h264l98 -273
l8 -5c1.33301 -0 4 -0.166992 8 -0.5s8 -0.333008 12 0s7.66699 1 11 2s5 2.5 5 4.5zM369.002 749.999l-1 0.000976562c0 -12 -3.5 -22 -10.5 -30s-16.833 -12 -29.5 -12c-12 0 -21.667 4.16699 -29 12.5s-11 18.166 -11 29.499s3.83301 21.166 11.5 29.499
s17.5 12.5 29.5 12.5c11.333 0 20.833 -4.16699 28.5 -12.5s11.5 -18.166 11.5 -29.499zM446.002 317h-240l122 335z" />
    <glyph glyph-name="AE" unicode="&#xc6;" horiz-adv-x="790" 
d="M739 5c0 2 0.164062 5.16699 0.49707 9.5s0.5 8.5 0.5 12.5s-0.666992 7.5 -2 10.5s-3.66602 4.5 -6.99902 4.5c-46.667 0 -93.167 -0.666992 -139.5 -2s-92.833 -2 -139.5 -2l-3 314h149h24c8.66699 0 17 -0.333008 25 -1
c2.66699 -0.666992 5.33398 -1.16699 8.00098 -1.5s4 -0.833008 4 -1.5c6 0 9 2.66699 9 8v25l-8 8h-211c0 46.667 -0.333008 93.167 -1 139.5s-1 92.833 -1 139.5h276l4 30l-7 8h-348l-7 -5c-3.33301 -6.66699 -10.166 -21.667 -20.499 -45l-38.5 -85l-51 -111
l-56.5 -123.5l-55 -121.5l-47.5 -105l-33.5 -74.5c-8.33301 -19 -12.5 -29.167 -12.5 -30.5s1 -2.5 3 -3.5s3.66699 -1.5 5 -1.5h29l7 5l155 347h157l3 -344l7 -8c104.667 0 209.667 -1 315 -3zM405.997 389h-141l62.5 139.5l62.5 139.5h14
c0 -46.667 0.333008 -93.167 1 -139.5s1 -92.833 1 -139.5z" />
    <glyph glyph-name="Ccedilla" unicode="&#xc7;" horiz-adv-x="667" 
d="M616 44c0 1.33301 0.169922 3.84082 0.50293 7.50781s0.333008 7.5 0 11.5s-1 7.5 -2 10.5s-2.5 4.5 -4.5 4.5s-3.66699 -0.333008 -5 -1l-106.5 -31.5c-33.667 -9.66699 -70.5 -14.5 -110.5 -14.5c-49.333 0 -92.5 8.33301 -129.5 25s-67.667 39.834 -92 69.501
s-42.5 64.5 -54.5 104.5s-18 83.333 -18 130c0 49.333 5.66699 93.5 17 132.5s28.833 72 52.5 99s54 47.5 91 61.5s81.5 21 133.5 21c21.333 0 40 -0.833008 56 -2.5s31.5 -4.33398 46.5 -8.00098s30.167 -7.83398 45.5 -12.501l52 -16
c1.33301 -0.666992 2.33301 -0.833984 3 -0.500977s1.66699 0.5 3 0.5c4 0 6 2.33301 6 7v31l-5 6c-33.333 13.333 -67.333 22 -102 26s-69.667 6 -105 6c-117.333 0 -203 -30.167 -257 -90.5s-81 -147.166 -81 -260.499c0 -48 5.5 -93 16.5 -135s28.167 -79 51.5 -111
s53.166 -58.333 89.499 -79s80.166 -33.334 131.499 -38.001c-3.33301 -7.33301 -6.5 -14.666 -9.5 -21.999s-4.5 -15 -4.5 -23c0 -4.66699 1.83301 -8.83398 5.5 -12.501s8 -6.83398 13 -9.50098s10.333 -5 16 -7s10.167 -3.66699 13.5 -5l-1 1
c4 -1.33301 8.66699 -3 14 -5s10.5 -4.5 15.5 -7.5s9.16699 -6.5 12.5 -10.5s5 -8.33301 5 -13c0 -13.333 -5.16699 -22.333 -15.5 -27s-21.166 -7 -32.499 -7c-9.33301 0 -17.666 1.16699 -24.999 3.5s-14 5 -20 8s-10.833 5.66699 -14.5 8s-6.5 3.5 -8.5 3.5
c-4.66699 0 -7 -2.66699 -7 -8v-28l4 -7c10 -5.33301 21.5 -9.33301 34.5 -12s25.167 -4 36.5 -4s22.666 1.33301 33.999 4s21.333 6.83398 30 12.501s15.667 13 21 22s8 20.167 8 33.5c0 11.333 -2.16699 20.166 -6.5 26.499s-10 11.666 -17 15.999
s-14.5 8.16602 -22.5 11.499s-15.333 7.33301 -22 12h1l-37 12c0 5.33301 1 10.666 3 15.999s4.33301 10.666 7 15.999c18 -0.666992 37.5 -0.333984 58.5 0.999023s42.167 3.83301 63.5 7.5s42.166 8.16699 62.499 13.5s39.166 12 56.499 20z" />
    <glyph glyph-name="Egrave" unicode="&#xc8;" horiz-adv-x="434" 
d="M254 731c0 0.666992 -2.66699 6.33496 -8 17.002l-20.5 39.5l-27.5 51l-28.5 52l-23.5 43c-6.66699 12.333 -11 20.166 -13 23.499l-7 4h-35c-6 0 -9 -2.66699 -9 -8c0 -0.666992 3.16699 -6.33398 9.5 -17.001l24 -39.5l32 -51l33 -52l27 -42.5
c7.66699 -12 12.5 -19.667 14.5 -23l7 -4c3.33301 0 8.33301 -0.166992 15 -0.5s10 2.16699 10 7.5zM383 5.00098c0 2.66699 0.172852 6.16699 0.505859 10.5s0.333008 8.66602 0 12.999s-1.16602 8 -2.49902 11s-3.66602 4.5 -6.99902 4.5
c-22.667 0 -45.334 -0.833008 -68.001 -2.5s-45.334 -2.5 -68.001 -2.5h-69c-12.667 0 -25.334 0.166992 -38.001 0.5s-25.334 0.5 -38.001 0.5v307h145c19.333 0 38.5 -0.666992 57.5 -2s38.167 -2 57.5 -2c6 0 9 2.66699 9 8v27l-8 8h-261v281h145
c21.333 0 42.166 -0.666992 62.499 -2s41.166 -2 62.499 -2c5.33301 0 8 2.66699 8 8v27l-7 8h-306l-8 -8c0.666992 -230 0.666992 -460 0 -690l8 -8c53.333 -0 106.166 -0.166992 158.499 -0.5s105.166 -1.16602 158.499 -2.49902z" />
    <glyph glyph-name="Eacute" unicode="&#xc9;" horiz-adv-x="434" 
d="M329 942c0 4.66699 -2.33301 7 -7 7h-36l-6 -3c-2 -3.33301 -7 -10.5 -15 -21.5l-28 -39l-33.5 -48l-32.5 -47l-25 -36.5c-6.66699 -10 -10 -15.333 -10 -16c0 -5.33301 3 -8 9 -8h17l6 3l17.5 21.5l31 39.5l37.5 48l36.5 47l27.5 36.5
c7.33301 9.66699 11 15.167 11 16.5zM383 5c0 2.66699 0.172852 6.16699 0.505859 10.5s0.333008 8.66602 0 12.999s-1.16602 8 -2.49902 11s-3.66602 4.5 -6.99902 4.5c-22.667 0 -45.334 -0.833008 -68.001 -2.5s-45.334 -2.5 -68.001 -2.5h-69
c-12.667 0 -25.334 0.166992 -38.001 0.5s-25.334 0.5 -38.001 0.5v307h145c14 0 28.167 -0.666992 42.5 -2s28.5 -2 42.5 -2c6 0 9 2.66699 9 8v27l-8 8h-231v281h145c21.333 0 42.166 -0.666992 62.499 -2s41.166 -2 62.499 -2c5.33301 0 8 2.66699 8 8v27l-7 8h-306
l-8 -8c0.666992 -230 0.666992 -460 0 -690l8 -8c53.333 0 106.166 -0.166992 158.499 -0.5s105.166 -1.16602 158.499 -2.49902z" />
    <glyph glyph-name="Ecircumflex" unicode="&#xca;" horiz-adv-x="515" 
d="M465 723c0 1.33301 -3.99902 6.16699 -11.999 14.5l-30 31l-39.5 39.5l-41 40.5l-34.5 33.5c-10 9.33301 -16.333 15.333 -19 18c-1.33301 1.33301 -3.33301 2 -6 2h-51l-180 -173l-2 -6c0 -4.66699 3 -7 9 -7h27l172 158l171 -158
c5.33301 0 12.166 -0.166992 20.499 -0.5s13.5 2.16699 15.5 7.5zM433.001 5.00098c0 2.66699 0.167969 6.16602 0.500977 10.499s0.5 8.5 0.5 12.5c0 4.66699 -0.666992 8.5 -2 11.5s-4 4.5 -8 4.5c-22.667 0 -45.334 -0.833008 -68.001 -2.5s-45.667 -2.5 -69 -2.5h-68
c-12.667 0 -25.167 0.166992 -37.5 0.5s-25.166 0.5 -38.499 0.5v307h145c19.333 0 38.666 -0.666992 57.999 -2s38.666 -2 57.999 -2c5.33301 0 8 2.66699 8 8v27l-8 8h-261v281h145c20.667 0 41.334 -0.666992 62.001 -2s41.667 -2 63 -2c2 0 4 0.666992 6 2
s3 3.33301 3 6v27l-9 8h-306l-7 -8c0.666992 -116 1 -231 1 -345v-345l7 -8c52.667 -0 105.5 -0.166992 158.5 -0.5s106.167 -1.16602 159.5 -2.49902z" />
    <glyph glyph-name="Edieresis" unicode="&#xcb;" horiz-adv-x="434" 
d="M317 749v44l-8 8h-43l-8 -8v-44l8 -8h43zM145 749v45l-8 8h-43l-8 -8v-45l8 -8h43zM383 5c0 2.66699 0.172852 6.16699 0.505859 10.5s0.333008 8.66602 0 12.999s-1.16602 8 -2.49902 11s-3.66602 4.5 -6.99902 4.5c-22.667 0 -45.334 -0.833008 -68.001 -2.5
s-45.334 -2.5 -68.001 -2.5h-69c-12.667 0 -25.334 0.166992 -38.001 0.5s-25.334 0.5 -38.001 0.5v307h145c19.333 0 38.5 -0.666992 57.5 -2s38.167 -2 57.5 -2c6 0 9 2.66699 9 8v27l-8 8h-261v281h145c21.333 0 42.166 -0.666992 62.499 -2s41.166 -2 62.499 -2
c5.33301 0 8 2.66699 8 8v27l-7 8h-306l-8 -8c0.666992 -230 0.666992 -460 0 -690l8 -8c53.333 0 106.166 -0.166992 158.499 -0.5s105.166 -1.16602 158.499 -2.49902z" />
    <glyph glyph-name="Igrave" unicode="&#xcc;" horiz-adv-x="272" 
d="M222 720c0 0.666992 -2.83398 6.33203 -8.50098 16.999l-21 39.5l-27.5 51l-28.5 52l-23.5 42.5c-6.66699 12 -10.667 19.667 -12 23l-7 4h-35c-1.33301 0 -3.16602 -0.5 -5.49902 -1.5s-3.5 -2.5 -3.5 -4.5c0 -1.33301 3.16699 -7.16602 9.5 -17.499l24 -39l32 -51
l33 -52l27 -43l14.5 -23.5l7 -4c1.33301 0 3.33301 -0.166992 6 -0.5s5.5 -0.333008 8.5 0s5.5 1 7.5 2s3 2.83301 3 5.5zM188.999 7.99805v690l-8 8h-26l-8 -8v-690l8 -8h26z" />
    <glyph glyph-name="Iacute" unicode="&#xcd;" horiz-adv-x="293" 
d="M243 923c0 4.66699 -2.66699 7 -8 7h-35l-7 -3c-2 -3.33301 -7 -10.5 -15 -21.5l-28 -39.5l-33.5 -48l-32.5 -46.5c-10 -14.333 -18.167 -26.5 -24.5 -36.5s-9.5 -15.333 -9.5 -16c0 -5.33301 2.66699 -8 8 -8h18l5 3l17.5 21.5l31.5 39l38 48l36.5 47l27.5 36.5
c7.33301 10 11 15.667 11 17zM169 8v690l-7 8h-27l-8 -8v-690l8 -8h27z" />
    <glyph glyph-name="Icircumflex" unicode="&#xce;" horiz-adv-x="515" 
d="M465 722c0 1.33301 -4 6.16699 -12 14.5l-30 31l-39.5 40l-41 40.5l-34 33.5l-18.5 18.5c-2.66699 1.33301 -4.66699 2 -6 2h-51l-180 -174l-2 -6c-0.666992 -2 0 -3.66699 2 -5s4 -2 6 -2h28l86 79l85 80l172 -159c5.33301 0 12 -0.166992 20 -0.5s13 2.16699 15 7.5z
M280 8.00098v690l-8 8h-27l-8 -8v-690l8 -8h27z" />
    <glyph glyph-name="Idieresis" unicode="&#xcf;" horiz-adv-x="330" 
d="M280 735v44l-7 8h-43l-8 -8v-44l8 -8h43zM108 735v45l-8 8h-43l-7 -8v-45l7 -8h43zM189 8v690l-7 8h-27l-8 -8v-690l8 -8h27z" />
    <glyph glyph-name="Eth" unicode="&#xd0;" horiz-adv-x="139" 
d="M89 276v196l-8 8h-23l-8 -9v-196l8 -8h23z" />
    <glyph glyph-name="Ntilde" unicode="&#xd1;" horiz-adv-x="638" 
d="M541 819l-13 18.001l-6 4c-2 0 -5.16699 -2.33301 -9.5 -7s-10.333 -9.66699 -18 -15s-16.834 -10.333 -27.501 -15s-23 -7 -37 -7c-16.667 0 -33.334 2.5 -50.001 7.5s-33.167 10.333 -49.5 16s-32.833 11 -49.5 16s-33.667 7.5 -51 7.5c-5.33301 0 -14.333 -2 -27 -6
s-25.667 -9 -39 -15s-25 -12.5 -35 -19.5s-15 -13.5 -15 -19.5c0 -3.33301 1.83301 -7.16602 5.5 -11.499s6.83398 -7.83301 9.50098 -10.5l6 -3c1.33301 0 4.83301 2.5 10.5 7.5s12.834 10.5 21.501 16.5s18.5 11.5 29.5 16.5s22.5 7.5 34.5 7.5
c16.667 0 33.167 -2.33301 49.5 -7s32.833 -9.83398 49.5 -15.501s33.334 -10.834 50.001 -15.501s33.667 -7 51 -7c18.667 0 38.167 4.5 58.5 13.5s37.166 20.167 50.499 33.5zM588 8.00098v690.002l-9 8h-28l-8 -8l4 -627l-226 317.5l-229 314.5l-6 3h-28l-8 -8v-690l9 -8
h26l8 8c-0.666992 105.333 -1.16699 209.666 -1.5 312.999s-0.5 207.666 -0.5 312.999l227.5 -316.5l229.5 -314.5l6 -3h26z" />
    <glyph glyph-name="Ograve" unicode="&#xd2;" 
d="M436 738c0 0.666992 -2.83301 6.33301 -8.5 17l-21 39.5l-28 51l-29 52l-23.5 42.5c-6.66699 12 -11 19.667 -13 23l-7 4h-35c-5.33301 0 -8 -2.33301 -8 -7c0 -1.33301 3.16699 -7.33301 9.5 -18l24 -39.5l31.5 -51l32.5 -52l27.5 -42.5c8 -12 13 -19.667 15 -23l7 -4
h18c5.33301 0 8 2.66699 8 8zM696 359.999c0 53.333 -6.33203 101.666 -18.999 144.999s-32.167 80.166 -58.5 110.499s-59.833 53.833 -100.5 70.5s-89 25 -145 25s-104.333 -8.33301 -145 -25s-74.167 -40.167 -100.5 -70.5s-45.833 -67.166 -58.5 -110.499
s-19 -91.666 -19 -144.999c0 -52 6.5 -100.167 19.5 -144.5s33 -83 60 -116s60.667 -58.833 101 -77.5s88.166 -28 143.499 -28c54 0 101 9.66699 141 29s73.5 45.5 100.5 78.5s47.167 71.667 60.5 116s20 91.833 20 142.5zM652.001 359.999h-0.996094
c0 -43.333 -5.5 -84.833 -16.5 -124.5s-28 -74.667 -51 -105s-51.833 -54.5 -86.5 -72.5s-76 -27 -124 -27c-47.333 0 -88.5 9 -123.5 27s-64 42.167 -87 72.5s-40.167 65.333 -51.5 105s-17 81.167 -17 124.5c0 46 5.33301 88.167 16 126.5s27.167 71.5 49.5 99.5
s51.166 49.667 86.499 65s78 23 128 23c49.333 0 91.666 -7.66699 126.999 -23s64.166 -37 86.499 -65s38.666 -61.167 48.999 -99.5s15.5 -80.5 15.5 -126.5z" />
    <glyph glyph-name="Oacute" unicode="&#xd3;" 
d="M490 941c0 5.33301 -2.66699 8 -8 8h-35l-7 -3c-2 -3.33301 -6.83301 -10.5 -14.5 -21.5l-27.5 -39l-33.5 -48l-32.5 -47c-10 -14.333 -18.167 -26.5 -24.5 -36.5s-9.5 -15.333 -9.5 -16c0 -5.33301 3 -8 9 -8h17l6 3l16 21l31 40l38 48l36.5 46.5l27.5 36.5
c7.33301 10 11 15.333 11 16zM696 360c0 53.333 -6.33203 101.666 -18.999 144.999s-32.167 80.166 -58.5 110.499s-59.833 53.833 -100.5 70.5s-89 25 -145 25s-104.333 -8.33301 -145 -25s-74.167 -40.167 -100.5 -70.5s-45.833 -67.166 -58.5 -110.499
s-19 -91.666 -19 -144.999c0 -52 6.5 -100.167 19.5 -144.5s33 -83 60 -116s60.667 -58.833 101 -77.5s88.166 -28 143.499 -28c54 0 101 9.66699 141 29s73.5 45.5 100.5 78.5s47.167 71.667 60.5 116s20 91.833 20 142.5zM652.001 360h-0.996094
c0 -43.333 -5.5 -84.833 -16.5 -124.5s-28 -74.667 -51 -105s-51.833 -54.5 -86.5 -72.5s-76 -27 -124 -27c-47.333 0 -88.5 9 -123.5 27s-64 42.167 -87 72.5s-40.167 65.333 -51.5 105s-17 81.167 -17 124.5c0 46 5.33301 88.167 16 126.5s27.167 71.5 49.5 99.5
s51.166 49.667 86.499 65s78 23 128 23c49.333 0 91.666 -7.66699 126.999 -23s64.166 -37 86.499 -65s38.666 -61.167 48.999 -99.5s15.5 -80.5 15.5 -126.5z" />
    <glyph glyph-name="Ocircumflex" unicode="&#xd4;" 
d="M588 724c0 1.33301 -3.99902 6.16699 -11.999 14.5l-30 31l-39.5 40l-41 40.5l-34.5 33.5l-19 18.5c-1.33301 1.33301 -3.33301 2 -6 2h-52l-179 -174l-2 -6c0 -4.66699 2.66699 -7 8 -7h28l85.5 79l86.5 80l171 -159c5.33301 0 12.166 -0.166992 20.499 -0.5
s13.5 2.16699 15.5 7.5zM696.001 360.001c0 53.333 -6.33203 101.666 -18.999 144.999s-32.167 80.166 -58.5 110.499s-59.833 53.833 -100.5 70.5s-89 25 -145 25s-104.333 -8.33301 -145 -25s-74.167 -40.167 -100.5 -70.5s-45.833 -67.166 -58.5 -110.499
s-19 -91.666 -19 -144.999c0 -52 6.5 -100.167 19.5 -144.5s33 -83 60 -116s60.667 -58.833 101 -77.5s88.166 -28 143.499 -28c54 0 101 9.66699 141 29s73.5 45.5 100.5 78.5s47.167 71.667 60.5 116s20 91.833 20 142.5zM652.002 360.001h-0.996094
c0 -43.333 -5.5 -84.833 -16.5 -124.5s-28 -74.667 -51 -105s-51.833 -54.5 -86.5 -72.5s-76 -27 -124 -27c-47.333 0 -88.5 9 -123.5 27s-64 42.167 -87 72.5s-40.167 65.333 -51.5 105s-17 81.167 -17 124.5c0 46 5.33301 88.167 16 126.5s27.167 71.5 49.5 99.5
s51.166 49.667 86.499 65s78 23 128 23c49.333 0 91.666 -7.66699 126.999 -23s64.166 -37 86.499 -65s38.666 -61.167 48.999 -99.5s15.5 -80.5 15.5 -126.5z" />
    <glyph glyph-name="Otilde" unicode="&#xd5;" 
d="M556 798c-1.33301 2.66699 -3.66602 6.50293 -6.99902 11.5029s-6.33301 8.16699 -9 9.5c-1.33301 0 -4 -2.33301 -8 -7s-9.16699 -9.66699 -15.5 -15s-14.333 -10.333 -24 -15s-20.5 -7 -32.5 -7c-14.667 0 -29.167 2.5 -43.5 7.5s-28.833 10.333 -43.5 16
s-29.334 11 -44.001 16s-29.667 7.5 -45 7.5c-18.667 0 -37.5 -5.83301 -56.5 -17.5s-34.167 -24.5 -45.5 -38.5v-9c2.66699 -3.33301 5.5 -7.5 8.5 -12.5s6.5 -7.5 10.5 -7.5l7 7.5c4.66699 5 10.834 10.5 18.501 16.5s16.5 11.5 26.5 16.5s20.333 7.5 31 7.5
c14.667 0 29.334 -2.33301 44.001 -7s29.167 -9.83398 43.5 -15.501s28.833 -10.834 43.5 -15.501s29.667 -7 45 -7c17.333 0 34.666 4.66699 51.999 14s31.666 20.666 42.999 33.999zM696 360.003c0 53.333 -6.33203 101.666 -18.999 144.999s-32.167 80.166 -58.5 110.499
s-59.833 53.833 -100.5 70.5s-89 25 -145 25s-104.333 -8.33301 -145 -25s-74.167 -40.167 -100.5 -70.5s-45.833 -67.166 -58.5 -110.499s-19 -91.666 -19 -144.999c0 -52 6.5 -100.167 19.5 -144.5s33 -83 60 -116s60.667 -58.833 101 -77.5s88.166 -28 143.499 -28
c54 0 101 9.66699 141 29s73.5 45.5 100.5 78.5s47.167 71.667 60.5 116s20 91.833 20 142.5zM652.001 360.003h-0.996094c0 -43.333 -5.5 -84.833 -16.5 -124.5s-28 -74.667 -51 -105s-51.833 -54.5 -86.5 -72.5s-76 -27 -124 -27c-47.333 0 -88.5 9 -123.5 27
s-64 42.167 -87 72.5s-40.167 65.333 -51.5 105s-17 81.167 -17 124.5c0 46 5.33301 88.167 16 126.5s27.167 71.5 49.5 99.5s51.166 49.667 86.499 65s78 23 128 23c49.333 0 91.666 -7.66699 126.999 -23s64.166 -37 86.499 -65s38.666 -61.167 48.999 -99.5
s15.5 -80.5 15.5 -126.5z" />
    <glyph glyph-name="Odieresis" unicode="&#xd6;" 
d="M489 748v44l-8 8h-44l-8 -8v-44l9 -8h44zM316 748v45l-8 8h-44l-7 -8v-45l8 -8h44zM696 360c0 53.333 -6.33203 101.666 -18.999 144.999s-32.167 80.166 -58.5 110.499s-59.833 53.833 -100.5 70.5s-89 25 -145 25s-104.333 -8.33301 -145 -25
s-74.167 -40.167 -100.5 -70.5s-45.833 -67.166 -58.5 -110.499s-19 -91.666 -19 -144.999c0 -52 6.5 -100.167 19.5 -144.5s33 -83 60 -116s60.667 -58.833 101 -77.5s88.166 -28 143.499 -28c54 0 101 9.66699 141 29s73.5 45.5 100.5 78.5s47.167 71.667 60.5 116
s20 91.833 20 142.5zM652.001 360h-0.996094c0 -43.333 -5.5 -84.833 -16.5 -124.5s-28 -74.667 -51 -105s-51.833 -54.5 -86.5 -72.5s-76 -27 -124 -27c-47.333 0 -88.5 9 -123.5 27s-64 42.167 -87 72.5s-40.167 65.333 -51.5 105s-17 81.167 -17 124.5
c0 46 5.33301 88.167 16 126.5s27.167 71.5 49.5 99.5s51.166 49.667 86.499 65s78 23 128 23c49.333 0 91.666 -7.66699 126.999 -23s64.166 -37 86.499 -65s38.666 -61.167 48.999 -99.5s15.5 -80.5 15.5 -126.5z" />
    <glyph glyph-name="Oslash" unicode="&#xd8;" 
d="M696 360c0 20.667 -1.66602 44.3359 -4.99902 71.0029s-8.83301 53.334 -16.5 80.001s-18 51.5 -31 74.5s-28.833 41.167 -47.5 54.5c2 2 5.33301 5.83301 10 11.5l14.5 18.5c5 6.66699 9.33301 12.834 13 18.501s5.5 9.16699 5.5 10.5c0 4.66699 -2.66699 7 -8 7h-31
l-6 -3l-30 -40c-26 15.333 -56.667 27.166 -92 35.499s-68 12.5 -98 12.5c-56 0 -104.333 -8.16699 -145 -24.5s-74.334 -39.833 -101.001 -70.5s-46.334 -67.5 -59.001 -110.5s-19 -91.5 -19 -145.5c0 -22 1.5 -45 4.5 -69s8 -47.833 15 -71.5s15.833 -46.334 26.5 -68.001
s24 -40.834 40 -57.501l-13 -17l-21 -27.5c-7.33301 -9.66699 -13.833 -18.667 -19.5 -27s-8.5 -13.5 -8.5 -15.5c0 -4.66699 2.66699 -7 8 -7h32l6 3l46 61c13.333 -10.667 28.5 -20.334 45.5 -29.001s34.833 -16 53.5 -22s37.334 -10.667 56.001 -14s36.667 -5 54 -5
c54 0 101.167 9.5 141.5 28.5s73.833 45 100.5 78s46.5 71.667 59.5 116s19.5 92.166 19.5 143.499zM652.001 360.002l-0.998047 -0.00292969c0 -43.333 -5.5 -84.833 -16.5 -124.5s-27.833 -74.667 -50.5 -105s-51.334 -54.5 -86.001 -72.5s-76 -27 -124 -27
c-32 0 -64.833 5.33301 -98.5 16s-62.167 27.667 -85.5 51l382 508c14 -14.667 26 -32.167 36 -52.5s18.167 -41.666 24.5 -63.999s11.166 -44.666 14.499 -66.999s5 -43.166 5 -62.499zM541.003 630.999h-1l-377 -501c-10.667 15.333 -20.334 32.5 -29.001 51.5
s-16 38.667 -22 59s-10.5 40.666 -13.5 60.999s-4.5 39.833 -4.5 58.5c0 46 5.33301 88.333 16 127s27.334 71.834 50.001 99.501s51.667 49.167 87 64.5s78 23 128 23c28 0 56.667 -3 86 -9s56 -17.333 80 -34z" />
    <glyph glyph-name="Ugrave" unicode="&#xd9;" horiz-adv-x="624" 
d="M382 730c0 0.666992 -2.66699 6.33496 -8 17.002l-20.5 39.5l-27.5 51l-28.5 52l-23.5 43c-6.66699 12.333 -11 20.166 -13 23.499l-7 4h-35c-6 0 -9 -2.66699 -9 -8c0 -0.666992 3.16699 -6.33398 9.5 -17.001l24 -39.5l32 -51l33 -52l27 -42.5
c7.66699 -12 12.5 -19.667 14.5 -23l7 -4h18c4.66699 0 7 2.33301 7 7zM574 676.001v21.999l-8 8h-28l-8 -8v-22c0 -70.667 -0.166992 -141.334 -0.5 -212.001s-3.5 -141.334 -9.5 -212.001c-2.66699 -31.333 -8.66699 -60.333 -18 -87s-22.5 -49.834 -39.5 -69.501
s-37.833 -35.167 -62.5 -46.5s-54 -17 -88 -17c-37.333 0 -68.5 5.16699 -93.5 15.5s-45.5 25 -61.5 44s-28.167 42.167 -36.5 69.5s-13.833 58 -16.5 92c-6.66699 74 -10 148 -10 222v223l-8 8h-28l-8 -8v-28c0 -70 0.5 -139.833 1.5 -209.5s4.16699 -139.5 9.5 -209.5
c3.33301 -41.333 10 -77.833 20 -109.5s24.833 -58.5 44.5 -80.5s44.667 -38.667 75 -50s67.5 -17 111.5 -17c40.667 0 76 6.33301 106 19s55.333 30.334 76 53.001s36.667 49.834 48 81.501s18.333 66.5 21 104.5c5.33301 70.667 8.5 141.334 9.5 212.001
s1.5 141.334 1.5 212.001z" />
    <glyph glyph-name="Uacute" unicode="&#xda;" horiz-adv-x="624" 
d="M432 943c0 5.33301 -2.66699 8 -8 8h-35l-7 -3c-2 -3.33301 -7 -10.5 -15 -21.5l-27.5 -39l-33.5 -48l-32.5 -47l-24.5 -36.5c-6.66699 -10 -10 -15.333 -10 -16c0 -5.33301 2.66699 -8 8 -8h18l6 3l16.5 21l31.5 40l38 48l36.5 46.5l27.5 36.5
c7.33301 10 11 15.333 11 16zM574 676v21.999l-8 8h-28l-8 -8v-22c0 -70.667 -0.166992 -141.334 -0.5 -212.001s-3.5 -141.334 -9.5 -212.001c-2.66699 -31.333 -8.66699 -60.333 -18 -87s-22.5 -49.834 -39.5 -69.501s-37.833 -35.167 -62.5 -46.5s-54 -17 -88 -17
c-37.333 0 -68.5 5.16699 -93.5 15.5s-45.5 25 -61.5 44s-28.167 42.167 -36.5 69.5s-13.833 58 -16.5 92c-6.66699 74 -10 148 -10 222v223l-8 8h-28l-8 -8v-28c0 -70 0.5 -139.833 1.5 -209.5s4.16699 -139.5 9.5 -209.5c3.33301 -41.333 10 -77.833 20 -109.5
s24.833 -58.5 44.5 -80.5s44.667 -38.667 75 -50s67.5 -17 111.5 -17c40.667 0 76 6.33301 106 19s55.333 30.334 76 53.001s36.667 49.834 48 81.501s18.333 66.5 21 104.5c5.33301 70.667 8.5 141.334 9.5 212.001s1.5 141.334 1.5 212.001z" />
    <glyph glyph-name="Ucircumflex" unicode="&#xdb;" horiz-adv-x="624" 
d="M523 724c0 1.33301 -4 6.16699 -12 14.5l-30 31l-39.5 39.5l-41 40.5l-34 33.5l-18.5 18c-2.66699 1.33301 -4.66699 2 -6 2h-52l-179 -173l-3 -6c0 -4.66699 2.66699 -7 8 -7h29l85.5 78.5l85.5 79.5l172 -158c5.33301 0 12 -0.166992 20 -0.5s13 2.16699 15 7.5z
M574 676.001v21.999l-8 8h-28l-8 -8v-22c0 -70.667 -0.166992 -141.334 -0.5 -212.001s-3.5 -141.334 -9.5 -212.001c-2.66699 -31.333 -8.66699 -60.333 -18 -87s-22.5 -49.834 -39.5 -69.501s-37.833 -35.167 -62.5 -46.5s-54 -17 -88 -17
c-37.333 0 -68.5 5.16699 -93.5 15.5s-45.5 25 -61.5 44s-28.167 42.167 -36.5 69.5s-13.833 58 -16.5 92c-6.66699 74 -10 148 -10 222v223l-8 8h-28l-8 -8v-28c0 -70 0.5 -139.833 1.5 -209.5s4.16699 -139.5 9.5 -209.5c3.33301 -41.333 10 -77.833 20 -109.5
s24.833 -58.5 44.5 -80.5s44.667 -38.667 75 -50s67.5 -17 111.5 -17c40.667 0 76 6.33301 106 19s55.333 30.334 76 53.001s36.667 49.834 48 81.501s18.333 66.5 21 104.5c5.33301 70.667 8.5 141.334 9.5 212.001s1.5 141.334 1.5 212.001z" />
    <glyph glyph-name="Udieresis" unicode="&#xdc;" horiz-adv-x="624" 
d="M426 748v44l-7 8h-43l-8 -8v-44l8 -8h43zM254 748v45l-8 8h-43l-7 -8v-45l7 -8h43zM574 676v21.999l-8 8h-28l-8 -8v-22c0 -70.667 -0.166992 -141.334 -0.5 -212.001s-3.5 -141.334 -9.5 -212.001c-2.66699 -31.333 -8.66699 -60.333 -18 -87
s-22.5 -49.834 -39.5 -69.501s-37.833 -35.167 -62.5 -46.5s-54 -17 -88 -17c-37.333 0 -68.5 5.16699 -93.5 15.5s-45.5 25 -61.5 44s-28.167 42.167 -36.5 69.5s-13.833 58 -16.5 92c-6.66699 74 -10 148 -10 222v223l-8 8h-28l-8 -8v-28c0 -70 0.5 -139.833 1.5 -209.5
s4.16699 -139.5 9.5 -209.5c3.33301 -41.333 10 -77.833 20 -109.5s24.833 -58.5 44.5 -80.5s44.667 -38.667 75 -50s67.5 -17 111.5 -17c40.667 0 76 6.33301 106 19s55.333 30.334 76 53.001s36.667 49.834 48 81.501s18.333 66.5 21 104.5
c5.33301 70.667 8.5 141.334 9.5 212.001s1.5 141.334 1.5 212.001z" />
    <glyph glyph-name="germandbls" unicode="&#xdf;" horiz-adv-x="454" 
d="M404 139c0 34 -4.16699 61.8369 -12.5 83.5039s-18.833 39.5 -31.5 53.5s-26.334 25.667 -41.001 35s-28.334 18.666 -41.001 27.999s-23.167 19.833 -31.5 31.5s-12.5 27.167 -12.5 46.5c0 18.667 4.5 33.5 13.5 44.5s18.667 21.333 29 31s20 20.5 29 32.5
s13.5 28.667 13.5 50c0 18 -3.5 35.167 -10.5 51.5s-16.5 30.666 -28.5 42.999s-26 22.333 -42 30s-33 11.5 -51 11.5c-27.333 0 -49.666 -4.5 -66.999 -13.5s-31.333 -21.167 -42 -36.5s-18 -33.333 -22 -54s-6 -43 -6 -67v-532l9 -8h27l8 8v532c0 16 1.16699 32 3.5 48
s7 30.333 14 43s16.667 23 29 31s28.166 12 47.499 12c12 0 23.333 -3 34 -9s20 -13.833 28 -23.5s14.5 -20.334 19.5 -32.001s7.5 -23.167 7.5 -34.5c0 -14.667 -4.5 -26.834 -13.5 -36.501l-29 -30c-10.333 -10.333 -20 -22.5 -29 -36.5s-13.5 -32.333 -13.5 -55
c0 -27.333 4.16699 -49 12.5 -65s18.833 -29.333 31.5 -40s26.334 -20.167 41.001 -28.5s28.334 -18.333 41.001 -30s23.167 -26.334 31.5 -44.001s12.5 -41.167 12.5 -70.5c0 -31.333 -9.66699 -57.166 -29 -77.499s-45 -30.5 -77 -30.5c-10 0 -19.667 1.33301 -29 4
s-18.333 5.66699 -27 9s-17.5 6.5 -26.5 9.5s-18.167 5.16699 -27.5 6.5l-7 -8v-31l6 -8c17.333 -6.66699 35.5 -11.5 54.5 -14.5s38.167 -4.5 57.5 -4.5c44 0 79.5 13 106.5 39s40.5 61.333 40.5 106z" />
    <glyph glyph-name="agrave" unicode="&#xe0;" horiz-adv-x="448" 
d="M305 558c0 0.666992 -2.83301 6.33496 -8.5 17.002l-21 39.5l-27.5 51l-28.5 52l-23.5 43c-6.66699 12.333 -11 20.166 -13 23.499l-7 4h-35c-5.33301 0 -8 -2.66699 -8 -8c0 -0.666992 3.16699 -6.33398 9.5 -17.001l24 -39.5l32 -51l33 -52l27 -42.5
c7.66699 -12 12.5 -19.667 14.5 -23l7 -4c2.66699 0 7.5 -0.166992 14.5 -0.5s10.5 2.16699 10.5 7.5zM398 8.00098l-0.000976562 332.001c0 28 -3.66699 50.833 -11 68.5s-17.833 31.834 -31.5 42.501s-30.5 18 -50.5 22s-42.667 6 -68 6
c-12 0 -24.833 -0.833008 -38.5 -2.5s-27.334 -4.16699 -41.001 -7.5s-27 -7.66602 -40 -12.999s-24.5 -11.333 -34.5 -18l-3 -7c0 -2 -0.166992 -5 -0.5 -9s-0.333008 -8.33301 0 -13s1 -8.66699 2 -12s2.83301 -5 5.5 -5c1.33301 0 6.5 2.66699 15.5 8
s20.333 11.166 34 17.499s29.334 12.166 47.001 17.499s35.834 8 54.501 8c36.667 0 65.667 -7.16699 87 -21.5s32 -41.5 32 -81.5v-54c-18.667 0.666992 -39.334 1 -62.001 1c-22 0 -44.333 -1 -67 -3s-44.667 -5.83301 -66 -11.5s-40.333 -14.167 -57 -25.5
s-30 -25.833 -40 -43.5s-15 -39.834 -15 -66.501c0 -42.667 13.333 -77.167 40 -103.5s61.334 -39.5 104.001 -39.5c38 0 70.667 9.33301 98 28s49.333 44.667 66 78v-92l8 -8h24zM355.999 252.002l-0.999023 0.000976562c0 -8.66699 -0.166992 -17.334 -0.5 -26.001
s-0.833008 -17.334 -1.5 -26.001c-2 -22 -7 -43.167 -15 -63.5s-18.667 -38.5 -32 -54.5s-29.5 -28.667 -48.5 -38s-40.5 -14 -64.5 -14c-14.667 0 -28 3 -40 9s-22.333 13.833 -31 23.5s-15.334 21 -20.001 34s-7 26.5 -7 40.5c0 24.667 5.5 44.667 16.5 60
s25 27.333 42 36s36 14.334 57 17.001s41.833 4 62.5 4h41c14 0 28 -0.666992 42 -2z" />
    <glyph glyph-name="aacute" unicode="&#xe1;" horiz-adv-x="448" 
d="M341 764c0 4 -2.66699 6 -8 6h-35l-7 -3c-2 -3.33301 -6.83301 -10.5 -14.5 -21.5l-27.5 -39l-33.5 -48l-32.5 -47c-10 -14.333 -18.167 -26.5 -24.5 -36.5s-9.5 -15.333 -9.5 -16c0 -5.33301 3 -8 9 -8h17l6 3l17 21.5l31 39.5l37.5 48l36 47l27.5 37
c7.33301 10 11 15.667 11 17zM398 8l-0.000976562 332.001c0 28 -3.66699 50.833 -11 68.5s-17.833 31.834 -31.5 42.501s-30.5 18 -50.5 22s-42.667 6 -68 6c-12 0 -24.833 -0.833008 -38.5 -2.5s-27.334 -4.16699 -41.001 -7.5s-27 -7.66602 -40 -12.999
s-24.5 -11.333 -34.5 -18l-3 -7c0 -2 -0.166992 -5 -0.5 -9s-0.333008 -8.33301 0 -13s1 -8.66699 2 -12s2.83301 -5 5.5 -5c1.33301 0 6.5 2.66699 15.5 8s20.333 11.166 34 17.499s29.334 12.166 47.001 17.499s35.834 8 54.501 8c36.667 0 65.667 -7.16699 87 -21.5
s32 -41.5 32 -81.5v-54c-18.667 0.666992 -39.334 1 -62.001 1c-22 0 -44.333 -1 -67 -3s-44.667 -5.83301 -66 -11.5s-40.333 -14.167 -57 -25.5s-30 -25.833 -40 -43.5s-15 -39.834 -15 -66.501c0 -42.667 13.333 -77.167 40 -103.5s61.334 -39.5 104.001 -39.5
c38 0 70.667 9.33301 98 28s49.333 44.667 66 78v-92l8 -8h24zM355.999 252.001l-0.999023 0.000976562c0 -8.66699 -0.166992 -17.334 -0.5 -26.001s-0.833008 -17.334 -1.5 -26.001c-2 -22 -7 -43.167 -15 -63.5s-18.667 -38.5 -32 -54.5s-29.5 -28.667 -48.5 -38
s-40.5 -14 -64.5 -14c-14.667 0 -28 3 -40 9s-22.333 13.833 -31 23.5s-15.334 21 -20.001 34s-7 26.5 -7 40.5c0 24.667 5.5 44.667 16.5 60s25 27.333 42 36s36 14.334 57 17.001s41.833 4 62.5 4h41c14 0 28 -0.666992 42 -2z" />
    <glyph glyph-name="acircumflex" unicode="&#xe2;" horiz-adv-x="515" 
d="M465 560c0 1.33301 -4.00098 6.33301 -12.001 15l-30 31.5l-39.5 39.5l-41 40.5l-34 33.5l-18.5 18c-2.66699 1.33301 -4.66699 2 -6 2h-51l-180 -174l-2 -6c-1.33301 -5.33301 1.33398 -8 8.00098 -8h27l172 160l172 -160c5.33301 0 12 -0.333008 20 -1s13 2.33301 15 9
zM410.999 8l0.000976562 332.001c0 28 -3.66699 50.833 -11 68.5s-17.833 31.834 -31.5 42.501s-30.5 18 -50.5 22s-42.333 6 -67 6c-12 0 -24.833 -0.833008 -38.5 -2.5s-27.334 -4.16699 -41.001 -7.5s-26.834 -7.66602 -39.501 -12.999s-24 -11.333 -34 -18l-3 -7
c0 -2 -0.166992 -5 -0.5 -9s-0.333008 -8.33301 0 -13s1 -8.66699 2 -12s2.83301 -5 5.5 -5c0.666992 0 5.33398 2.66699 14.001 8s20 11.166 34 17.499s29.667 12.166 47 17.499s35.333 8 54 8c36.667 0 65.667 -7.16699 87 -21.5s32 -41.5 32 -81.5v-54
c-18.667 0.666992 -39.334 1 -62.001 1c-22 0 -44.333 -1 -67 -3s-44.667 -5.83301 -66 -11.5s-40.166 -14.167 -56.499 -25.5s-29.5 -25.833 -39.5 -43.5s-15 -39.834 -15 -66.501c0 -42.667 13.167 -77.167 39.5 -103.5s60.833 -39.5 103.5 -39.5c38 0 71 9.16699 99 27.5
s49.667 44.5 65 78.5v-92l8 -8h25zM369 252.001c-0.666992 -8.66699 -0.999023 -17.3301 -0.999023 -25.9971s-0.333008 -17.334 -1 -26.001c-1.33301 -22 -6 -43.333 -14 -64s-18.833 -38.834 -32.5 -54.501s-30 -28.167 -49 -37.5s-40.5 -14 -64.5 -14
c-14.667 0 -28 3 -40 9s-22.333 13.833 -31 23.5s-15.334 21 -20.001 34s-7 26.5 -7 40.5c0 24.667 5.5 44.667 16.5 60s25 27.166 42 35.499s36 14 57 17s41.5 4.5 61.5 4.5h41c14 0 28 -0.666992 42 -2z" />
    <glyph glyph-name="atilde" unicode="&#xe3;" horiz-adv-x="482" 
d="M432 657c-2 3.33301 -4.3291 7.83594 -6.99609 13.5029s-6.33398 8.5 -11.001 8.5c-1.33301 0 -3.83301 -2.33301 -7.5 -7s-8.83398 -9.83398 -15.501 -15.501s-14.5 -10.834 -23.5 -15.501s-19.5 -7 -31.5 -7c-14.667 0 -29.167 2.5 -43.5 7.5
s-28.666 10.333 -42.999 16s-29 11 -44 16s-30.167 7.5 -45.5 7.5c-18.667 0 -37.334 -5.33301 -56.001 -16s-34 -23 -46 -37v-11c1.33301 -1.33301 4 -5 8 -11s6.33301 -9 7 -9c2.66699 0 6.5 2.5 11.5 7.5s11.333 10.5 19 16.5s16.167 11.5 25.5 16.5
s19.666 7.5 30.999 7.5c14.667 0 29.334 -2.33301 44.001 -7s29.167 -10 43.5 -16s28.833 -11.333 43.5 -16s29.667 -7 45 -7c17.333 0 34.666 4.66699 51.999 14s31.666 20.666 42.999 33.999zM397.004 8.00293l0.00292969 332.001c0 28 -3.66699 50.833 -11 68.5
s-17.833 31.834 -31.5 42.501s-30.334 18 -50.001 22s-42.167 6 -67.5 6c-12 0 -24.833 -0.833008 -38.5 -2.5s-27.334 -4.16699 -41.001 -7.5s-26.834 -7.66602 -39.501 -12.999s-24 -11.333 -34 -18l-3 -7c0 -2 -0.166992 -5 -0.5 -9s-0.333008 -8.33301 0 -13
s1 -8.66699 2 -12s2.83301 -5 5.5 -5c0.666992 0 5.5 2.66699 14.5 8s20.5 11.166 34.5 17.499s29.667 12.166 47 17.499s35.333 8 54 8c36.667 0 65.667 -7.16699 87 -21.5s32 -41.5 32 -81.5v-54c-18.667 0.666992 -39.334 1 -62.001 1c-22 0 -44.333 -1 -67 -3
s-44.667 -5.83301 -66 -11.5s-40.333 -14.167 -57 -25.5s-30 -25.833 -40 -43.5s-15 -39.834 -15 -66.501c0 -42.667 13.333 -77.167 40 -103.5s61.334 -39.5 104.001 -39.5c37.333 0 70 9.16699 98 27.5s50 44.5 66 78.5v-92l8 -8h25zM356.007 252.004
l-0.999023 0.00390625c-0.666992 -8.66699 -1 -17.334 -1 -26.001s-0.333008 -17.334 -1 -26.001c-1.33301 -22 -6 -43.333 -14 -64s-18.833 -38.834 -32.5 -54.501s-30 -28.167 -49 -37.5s-40.5 -14 -64.5 -14c-14.667 0 -28 3 -40 9s-22.333 13.833 -31 23.5
s-15.334 21 -20.001 34s-7 26.5 -7 40.5c0 24.667 5.5 44.667 16.5 60s25 27.166 42 35.499s36.167 14 57.5 17s42 4.5 62 4.5h41c14 0 28 -0.666992 42 -2z" />
    <glyph glyph-name="adieresis" unicode="&#xe4;" horiz-adv-x="448" 
d="M342 575v44l-9 8h-43l-7 -8v-44l8 -8h43zM170 575v45l-8 8h-44l-7 -8v-45l8 -8h44zM398 8l-0.000976562 332.001c0 28 -3.66699 50.833 -11 68.5s-17.833 31.834 -31.5 42.501s-30.5 18 -50.5 22s-42.667 6 -68 6c-12 0 -24.833 -0.833008 -38.5 -2.5
s-27.334 -4.16699 -41.001 -7.5s-27 -7.66602 -40 -12.999s-24.5 -11.333 -34.5 -18l-3 -7c0 -2 -0.166992 -5 -0.5 -9s-0.333008 -8.33301 0 -13s1 -8.66699 2 -12s2.83301 -5 5.5 -5c1.33301 0 6.5 2.66699 15.5 8s20.333 11.166 34 17.499s29.334 12.166 47.001 17.499
s35.834 8 54.501 8c36.667 0 65.667 -7.16699 87 -21.5s32 -41.5 32 -81.5v-54c-18.667 0.666992 -39.334 1 -62.001 1c-22 0 -44.333 -1 -67 -3s-44.667 -5.83301 -66 -11.5s-40.333 -14.167 -57 -25.5s-30 -25.833 -40 -43.5s-15 -39.834 -15 -66.501
c0 -42.667 13.333 -77.167 40 -103.5s61.334 -39.5 104.001 -39.5c38 0 70.667 9.33301 98 28s49.333 44.667 66 78v-92l8 -8h24zM355.999 252.001l-0.999023 0.000976562c0 -8.66699 -0.166992 -17.334 -0.5 -26.001s-0.833008 -17.334 -1.5 -26.001
c-2 -22 -7 -43.167 -15 -63.5s-18.667 -38.5 -32 -54.5s-29.5 -28.667 -48.5 -38s-40.5 -14 -64.5 -14c-14.667 0 -28 3 -40 9s-22.333 13.833 -31 23.5s-15.334 21 -20.001 34s-7 26.5 -7 40.5c0 24.667 5.5 44.667 16.5 60s25 27.333 42 36s36 14.334 57 17.001
s41.833 4 62.5 4h41c14 0 28 -0.666992 42 -2z" />
    <glyph glyph-name="aring" unicode="&#xe5;" horiz-adv-x="448" 
d="M322 583c0 22 -7.66699 40.5 -23 55.5s-34 22.5 -56 22.5c-21.333 0 -39.833 -7.5 -55.5 -22.5s-23.5 -33.5 -23.5 -55.5c0 -22.667 7.5 -41.5 22.5 -56.5s34.167 -22.5 57.5 -22.5c22 0 40.5 7.66699 55.5 23s22.5 34 22.5 56zM398 8l-0.000976562 332.001
c0 28 -3.66699 50.833 -11 68.5s-17.833 31.834 -31.5 42.501s-30.5 18 -50.5 22s-42.667 6 -68 6c-12 0 -24.833 -0.833008 -38.5 -2.5s-27.334 -4.16699 -41.001 -7.5s-27 -7.66602 -40 -12.999s-24.5 -11.333 -34.5 -18l-3 -7c0 -2 -0.166992 -5 -0.5 -9
s-0.333008 -8.33301 0 -13s1 -8.66699 2 -12s2.83301 -5 5.5 -5c1.33301 0 6.5 2.66699 15.5 8s20.333 11.166 34 17.499s29.334 12.166 47.001 17.499s35.834 8 54.501 8c36.667 0 65.667 -7.16699 87 -21.5s32 -41.5 32 -81.5v-54c-18.667 0.666992 -39.334 1 -62.001 1
c-22 0 -44.333 -1 -67 -3s-44.667 -5.83301 -66 -11.5s-40.333 -14.167 -57 -25.5s-30 -25.833 -40 -43.5s-15 -39.834 -15 -66.501c0 -42.667 13.333 -77.167 40 -103.5s61.334 -39.5 104.001 -39.5c38 0 70.667 9.33301 98 28s49.333 44.667 66 78v-92l8 -8h24z
M288.999 583.001h-1c0 -13.333 -4 -24.5 -12 -33.5s-19 -13.5 -33 -13.5c-13.333 0 -24.166 4.5 -32.499 13.5s-12.5 20.167 -12.5 33.5s4.33301 24.5 13 33.5s19.667 13.5 33 13.5s24.166 -4.5 32.499 -13.5s12.5 -20.167 12.5 -33.5zM355.999 252.001
c-0.666992 -8.66699 -1.16602 -17.333 -1.49902 -26s-0.833008 -17.334 -1.5 -26.001c-2 -22 -7 -43.167 -15 -63.5s-18.667 -38.5 -32 -54.5s-29.5 -28.667 -48.5 -38s-40.5 -14 -64.5 -14c-14.667 0 -28 3 -40 9s-22.333 13.833 -31 23.5s-15.334 21 -20.001 34
s-7 26.5 -7 40.5c0 24.667 5.5 44.667 16.5 60s25 27.333 42 36s36 14.334 57 17.001s41.833 4 62.5 4h41c14 0 28 -0.666992 42 -2z" />
    <glyph glyph-name="ae" unicode="&#xe6;" horiz-adv-x="800" 
d="M750 293c0 28 -4.33398 53.499 -13.001 76.499s-21 42.833 -37 59.5s-35.333 29.5 -58 38.5s-48.334 13.5 -77.001 13.5c-36 0 -69.167 -7.83301 -99.5 -23.5s-56.166 -38.5 -77.499 -68.5c-5.33301 14.667 -13.333 27.667 -24 39s-22.834 21 -36.501 29
s-28.167 14 -43.5 18s-30.333 6 -45 6c-26 0 -53.833 -4.83301 -83.5 -14.5s-55.167 -22.167 -76.5 -37.5l-3 -6c0 -2 -0.166992 -4.66699 -0.5 -8s-0.333008 -6.66602 0 -9.99902s1 -6.33301 2 -9s2.83301 -4 5.5 -4c1.33301 0 6.5 2.83301 15.5 8.5s20.833 11.667 35.5 18
s31 12.333 49 18s36.667 8.5 56 8.5c36 0 63.833 -8 83.5 -24s29.5 -43 29.5 -81v-54c-28.667 2.66699 -60.5 3.66699 -95.5 3s-67.833 -5.66699 -98.5 -15s-56.334 -24.833 -77.001 -46.5s-31 -52.167 -31 -91.5c0 -20.667 3.33301 -39.667 10 -57s16 -32.333 28 -45
s26.5 -22.5 43.5 -29.5s36.167 -10.5 57.5 -10.5c42.667 0 80.334 12.167 113.001 36.5s54.667 57.166 66 98.499c16.667 -45.333 43.334 -79.166 80.001 -101.499s78.667 -33.5 126 -33.5c12 0 24.667 0.833008 38 2.5s26.833 4 40.5 7s27 6.83301 40 11.5s24.5 10 34.5 16
l3 7c0 1.33301 0.166992 4 0.5 8s0.5 8 0.5 12c0 4.66699 -0.5 8.66699 -1.5 12s-2.83301 5 -5.5 5c-0.666992 0 -5.5 -2.33301 -14.5 -7s-20.5 -9.83398 -34.5 -15.501s-29.833 -10.834 -47.5 -15.501s-35.5 -7 -53.5 -7c-30 0 -56.167 5 -78.5 15s-41.166 24 -56.499 42
s-26.833 39.167 -34.5 63.5s-11.5 50.5 -11.5 78.5v22c58.667 -0.666992 116.5 -0.666992 173.5 0s114.833 2.33398 173.5 5.00098l8 8c0.666992 5.33301 1.16699 10.333 1.5 15s0.5 9.33398 0.5 14.001zM707.999 290.999c-105.333 -4 -210.331 -6 -314.998 -6
c2 21.333 8 41.666 18 60.999s22.833 36.333 38.5 51s33.5 26.334 53.5 35.001s40.667 13 62 13c23.333 0 43.666 -4 60.999 -12s31.833 -19 43.5 -33s20.667 -30.333 27 -49s10.166 -38.667 11.499 -60zM351.001 251.999c-0.666992 -26 -3.33203 -52.335 -7.99902 -79.002
s-12.834 -50.5 -24.501 -71.5s-28 -38.167 -49 -51.5s-47.833 -20 -80.5 -20c-30.667 0 -54.667 10.333 -72 31s-26 45.667 -26 75c0 24.667 5.5 44.834 16.5 60.501s25 27.834 42 36.501s36 14.5 57 17.5s41.5 4.5 61.5 4.5c28 0 55.667 -1 83 -3z" />
    <glyph glyph-name="ccedilla" unicode="&#xe7;" horiz-adv-x="479" 
d="M427 38c0 5.33301 0.331055 12.1699 0.998047 20.5029s-2 13.833 -8 16.5l-14 -7c-9.33301 -4.66699 -21.166 -9.83398 -35.499 -15.501s-30.666 -10.834 -48.999 -15.501s-36.833 -7 -55.5 -7c-32 0 -59 6 -81 18s-40 28 -54 48s-24.167 43.167 -30.5 69.5
s-9.5 53.833 -9.5 82.5c0 28 3.5 54.167 10.5 78.5s17.833 45.166 32.5 62.499s32.834 31 54.501 41s47.5 15 77.5 15c14.667 0 29.834 -1.66699 45.501 -5s30.167 -7.16602 43.5 -11.499s24.666 -8.16602 33.999 -11.499s15.333 -5 18 -5c4 0 6 2.33301 6 7v31l-5 7
c-21.333 8 -44.666 14 -69.999 18s-49.333 6 -72 6c-36 0 -67.5 -5.5 -94.5 -16.5s-49.5 -26.833 -67.5 -47.5s-31.5 -45.334 -40.5 -74.001s-13.5 -60.334 -13.5 -95.001c0 -35.333 3.5 -68.166 10.5 -98.499s18.667 -56.666 35 -78.999s37.5 -40.333 63.5 -54
s58 -21.167 96 -22.5c-3.33301 -6.66699 -6.33301 -13.5 -9 -20.5s-4 -14.167 -4 -21.5c0 -4.66699 1.83301 -8.83398 5.5 -12.501s8 -6.83398 13 -9.50098s10.333 -5 16 -7s10.167 -3.66699 13.5 -5l-1 1c4 -1.33301 8.66699 -3 14 -5s10.5 -4.5 15.5 -7.5
s9.16699 -6.5 12.5 -10.5s5 -8.33301 5 -13c0 -13.333 -5.16699 -22.333 -15.5 -27s-21.166 -7 -32.499 -7c-8.66699 0 -16.834 1.16699 -24.501 3.5s-14.5 5 -20.5 8l-15.5 8c-4.33301 2.33301 -7.16602 3.5 -8.49902 3.5c-4 0 -6 -2.66699 -6 -8v-28l3 -7
c10.667 -5.33301 22.5 -9.33301 35.5 -12s25.167 -4 36.5 -4s22.666 1.33301 33.999 4s21.333 6.83398 30 12.501s15.667 13 21 22s8 20.167 8 33.5c0 9.33301 -2.16699 17.5 -6.5 24.5s-10 13.333 -17 19s-14.5 10.334 -22.5 14.001s-16 6.5 -24 8.5h1l-36 12
c0 5.33301 1 10.666 3 15.999s4.33301 10.666 7 15.999c21.333 1.33301 44.666 5 69.999 11s47.666 14.333 66.999 25z" />
    <glyph glyph-name="egrave" unicode="&#xe8;" horiz-adv-x="492" 
d="M331 558c0 0.666992 -2.66699 6.33496 -8 17.002l-20.5 39.5l-27.5 51l-28.5 52l-23.5 43c-6.66699 12.333 -11 20.166 -13 23.499l-7 4h-35c-6 0 -9 -2.66699 -9 -8c0 -0.666992 3.16699 -6.33398 9.5 -17.001l24 -39.5l32 -51l33 -52l27 -42.5
c7.66699 -12 12.5 -19.667 14.5 -23l7 -4c3.33301 0 8.33301 -0.166992 15 -0.5s10 2.16699 10 7.5zM442 252.001c0 30 -2.83203 58.6729 -8.49902 86.0059s-15.167 51.666 -28.5 72.999s-31.5 38.333 -54.5 51s-51.833 19 -86.5 19s-65.334 -5.66699 -92.001 -17
s-49 -27 -67 -47s-31.667 -44 -41 -72s-14 -58.667 -14 -92c0 -38.667 3.66699 -73.834 11 -105.501s19.333 -58.834 36 -81.501s38.834 -40.334 66.501 -53.001s62.167 -19 103.5 -19c12 0 24.667 0.833008 38 2.5s26.666 4 39.999 7s26.5 6.83301 39.5 11.5
s24.5 10 34.5 16l4 7c0 2 0.166992 5 0.5 9s0.333008 8 0 12s-1 7.66699 -2 11s-2.83301 5 -5.5 5c-1.33301 0 -6.5 -2.33301 -15.5 -7s-20.5 -9.83398 -34.5 -15.501s-29.5 -10.834 -46.5 -15.501s-34.5 -7 -52.5 -7c-31.333 0 -58 5.33301 -80 16s-40 25.167 -54 43.5
s-24.333 40 -31 65s-10 52.167 -10 81.5c57.333 0 114.333 0.833008 171 2.5s113.667 3.5 171 5.5zM400.001 281.007c-46.667 -3.33301 -93.168 -5.49902 -139.501 -6.49902s-92.833 -1.5 -139.5 -1.5h-29c0.666992 24.667 5.16699 47.667 13.5 69s20 39.5 35 54.5
s33 26.833 54 35.5s44.167 13 69.5 13c22.667 0 42.5 -4.66699 59.5 -14s31 -21.833 42 -37.5s19.333 -33.334 25 -53.001s8.83398 -39.5 9.50098 -59.5z" />
    <glyph glyph-name="eacute" unicode="&#xe9;" horiz-adv-x="492" 
d="M374 764c0 4 -2.66699 6 -8 6h-35l-7 -3c-2 -3.33301 -7 -10.5 -15 -21.5l-28 -39l-33.5 -48l-32.5 -47l-24.5 -36c-6.33301 -9.66699 -9.5 -15.167 -9.5 -16.5c0 -5.33301 2.66699 -8 8 -8h18l6 3l17.5 21.5l31 39.5l37.5 48l36.5 47l27.5 37
c7.33301 10 11 15.667 11 17zM442 252c0 30 -2.83203 58.6729 -8.49902 86.0059s-15.167 51.666 -28.5 72.999s-31.5 38.333 -54.5 51s-51.833 19 -86.5 19s-65.334 -5.66699 -92.001 -17s-49 -27 -67 -47s-31.667 -44 -41 -72s-14 -58.667 -14 -92
c0 -38.667 3.66699 -73.834 11 -105.501s19.333 -58.834 36 -81.501s38.834 -40.334 66.501 -53.001s62.167 -19 103.5 -19c12 0 24.667 0.833008 38 2.5s26.666 4 39.999 7s26.5 6.83301 39.5 11.5s24.5 10 34.5 16l4 7c0 2 0.166992 5 0.5 9s0.333008 8 0 12
s-1 7.66699 -2 11s-2.83301 5 -5.5 5c-1.33301 0 -6.5 -2.33301 -15.5 -7s-20.5 -9.83398 -34.5 -15.501s-29.5 -10.834 -46.5 -15.501s-34.5 -7 -52.5 -7c-31.333 0 -58 5.33301 -80 16s-40 25.167 -54 43.5s-24.333 40 -31 65s-10 52.167 -10 81.5
c57.333 0 114.333 0.833008 171 2.5s113.667 3.5 171 5.5zM400.001 281.006c-46.667 -3.33301 -93.168 -5.49902 -139.501 -6.49902s-92.833 -1.5 -139.5 -1.5h-29c0.666992 24.667 5.16699 47.667 13.5 69s20 39.5 35 54.5s33 26.833 54 35.5s44.167 13 69.5 13
c22.667 0 42.5 -4.66699 59.5 -14s31 -21.833 42 -37.5s19.333 -33.334 25 -53.001s8.83398 -39.5 9.50098 -59.5z" />
    <glyph glyph-name="ecircumflex" unicode="&#xea;" horiz-adv-x="524" 
d="M474 560c0 1.33301 -3.99902 6.33301 -11.999 15l-30 31.5l-39.5 39.5l-41 40.5l-34 33.5l-18.5 18c-2.66699 1.33301 -4.66699 2 -6 2h-52l-179 -174l-3 -6c0 -5.33301 2.66699 -8 8 -8h28l172 160l171 -160c5.33301 0 12.166 -0.333008 20.499 -1s13.5 2.33301 15.5 9z
M441.001 252c0 30 -2.83105 58.6699 -8.49805 86.0029s-15.167 51.666 -28.5 72.999s-31.5 38.333 -54.5 51s-51.833 19 -86.5 19s-65.334 -5.66699 -92.001 -17s-49 -27 -67 -47s-31.5 -44 -40.5 -72s-13.5 -58.667 -13.5 -92c0 -38 3.5 -73 10.5 -105s19 -59.333 36 -82
s39.167 -40.334 66.5 -53.001s61.666 -19 102.999 -19c12 0 24.667 0.833008 38 2.5s26.666 4 39.999 7s26.5 6.83301 39.5 11.5s24.5 10 34.5 16l4 7c0 2 0.166992 5 0.5 9s0.333008 8 0 12s-1 7.66699 -2 11s-2.83301 5 -5.5 5c-0.666992 0 -5.66699 -2.33301 -15 -7
s-21 -9.83398 -35 -15.501s-29.667 -10.834 -47 -15.501s-34.666 -7 -51.999 -7c-31.333 0 -58 5.33301 -80 16s-40 25.334 -54 44.001s-24.167 40.5 -30.5 65.5s-9.83301 51.833 -10.5 80.5c57.333 0 114.333 0.833008 171 2.5s113.667 3.5 171 5.5zM400.003 281.003
c-46.667 -3.33301 -93.332 -5.49902 -139.999 -6.49902s-93.334 -1.5 -140.001 -1.5h-29c0.666992 24.667 5.16699 47.667 13.5 69s20 39.5 35 54.5s32.833 26.833 53.5 35.5s44 13 70 13c23.333 0 43.333 -4.66699 60 -14s30.5 -21.833 41.5 -37.5
s19.333 -33.334 25 -53.001s9.16699 -39.5 10.5 -59.5z" />
    <glyph glyph-name="edieresis" unicode="&#xeb;" horiz-adv-x="492" 
d="M364 575v44l-8 8h-43l-7 -8v-44l7 -8h43zM193 575v45l-8 8h-44l-7 -8v-45l7 -8h44zM442 252c0 30 -2.83203 58.6729 -8.49902 86.0059s-15.167 51.666 -28.5 72.999s-31.5 38.333 -54.5 51s-51.833 19 -86.5 19s-65.334 -5.66699 -92.001 -17s-49 -27 -67 -47
s-31.667 -44 -41 -72s-14 -58.667 -14 -92c0 -38.667 3.66699 -73.834 11 -105.501s19.333 -58.834 36 -81.501s38.834 -40.334 66.501 -53.001s62.167 -19 103.5 -19c12 0 24.667 0.833008 38 2.5s26.666 4 39.999 7s26.5 6.83301 39.5 11.5s24.5 10 34.5 16l4 7
c0 2 0.166992 5 0.5 9s0.333008 8 0 12s-1 7.66699 -2 11s-2.83301 5 -5.5 5c-1.33301 0 -6.5 -2.33301 -15.5 -7s-20.5 -9.83398 -34.5 -15.501s-29.5 -10.834 -46.5 -15.501s-34.5 -7 -52.5 -7c-31.333 0 -58 5.33301 -80 16s-40 25.167 -54 43.5s-24.333 40 -31 65
s-10 52.167 -10 81.5c57.333 0 114.333 0.833008 171 2.5s113.667 3.5 171 5.5zM400.001 281.006c-46.667 -3.33301 -93.168 -5.49902 -139.501 -6.49902s-92.833 -1.5 -139.5 -1.5h-29c0.666992 24.667 5.16699 47.667 13.5 69s20 39.5 35 54.5s33 26.833 54 35.5
s44.167 13 69.5 13c22.667 0 42.5 -4.66699 59.5 -14s31 -21.833 42 -37.5s19.333 -33.334 25 -53.001s8.83398 -39.5 9.50098 -59.5z" />
    <glyph glyph-name="igrave" unicode="&#xec;" horiz-adv-x="272" 
d="M222 558c0 0.666992 -2.66699 6.33496 -8 17.002l-20.5 39.5l-27.5 51l-28.5 52l-23.5 43c-6.66699 12.333 -11 20.166 -13 23.499l-7 4h-35c-6 0 -9 -2.66699 -9 -8c0 -0.666992 3.16699 -6.33398 9.5 -17.001l24 -39.5l32 -51l33 -52l27 -42.5
c7.66699 -12 12.5 -19.667 14.5 -23l7 -4c3.33301 0 8.33301 -0.166992 15 -0.5s10 2.16699 10 7.5zM168 8.00098v458l-8 8h-26l-8 -8v-458l8 -8h26z" />
    <glyph glyph-name="iacute" unicode="&#xed;" horiz-adv-x="293" 
d="M243 764c0 4 -2.66699 6 -8 6h-35l-7 -3c-2 -3.33301 -7 -10.5 -15 -21.5l-27.5 -39l-33.5 -48l-32.5 -47l-24.5 -36.5c-6.66699 -10 -10 -15.333 -10 -16c0 -5.33301 3 -8 9 -8h18l5 3l17.5 21.5l31 39.5l37.5 48l36.5 47l27.5 37c7.33301 10 11 15.667 11 17zM158 8
v458l-8 8h-26l-8 -8v-458l9 -8h26z" />
    <glyph glyph-name="icircumflex" unicode="&#xee;" horiz-adv-x="515" 
d="M465 560c0 1.33301 -4 6.33301 -12 15l-30 31.5l-39.5 39.5l-41 40.5l-34.5 33.5c-10 9.33301 -16.333 15.333 -19 18c-1.33301 1.33301 -3.33301 2 -6 2h-51l-180 -174l-2 -6c0 -5.33301 3 -8 9 -8h27l172 160l172 -160c5.33301 0 12 -0.333008 20 -1s13 2.33301 15 9z
M258 8v458l-8 8h-26l-8 -8v-458l9 -8h26z" />
    <glyph glyph-name="idieresis" unicode="&#xef;" horiz-adv-x="331" 
d="M281 575v44l-8 8h-43l-8 -8v-44l9 -8h43zM108 575v45l-8 8h-43l-7 -8v-45l8 -8h43zM183 8v458l-9 8h-27l-7 -8v-458l8 -8h27z" />
    <glyph glyph-name="eth" unicode="&#xf0;" horiz-adv-x="164" 
d="M114 2v48l-9 8h-47l-8 -8v-48l9 -8h47z" />
    <glyph glyph-name="ntilde" unicode="&#xf1;" horiz-adv-x="494" 
d="M444 657c-2 3.33301 -4.33301 7.83594 -7 13.5029s-6 8.5 -10 8.5c-1.33301 0 -3.83301 -2.33301 -7.5 -7s-9 -9.83398 -16 -15.501s-15.167 -10.834 -24.5 -15.501s-20 -7 -32 -7c-14.667 0 -29.167 2.5 -43.5 7.5s-28.666 10.333 -42.999 16s-29 11 -44 16
s-30.167 7.5 -45.5 7.5c-18.667 0 -37.334 -5.33301 -56.001 -16s-34 -23 -46 -37v-11c1.33301 -1.33301 4 -5 8 -11s6.33301 -9 7 -9c2.66699 0 6.5 2.5 11.5 7.5s11.333 10.5 19 16.5s16.167 11.5 25.5 16.5s19.666 7.5 30.999 7.5c14.667 0 29.334 -2.33301 44.001 -7
s29.334 -10 44.001 -16s29.167 -11.333 43.5 -16s29.166 -7 44.499 -7c17.333 0 34.833 4.66699 52.5 14s32.167 20.666 43.5 33.999zM440 8.00293l0.00390625 305.001c0 29.333 -4.5 54.5 -13.5 75.5s-21.833 38.167 -38.5 51.5s-36.334 23.166 -59.001 29.499
s-48 9.5 -76 9.5c-32.667 0 -63.334 -7.16699 -92.001 -21.5s-52.334 -35.5 -71.001 -63.5l-3 72l-8 8h-21l-8 -8v-458l9 -8h25l8 8v314c0 17.333 5.66699 33.333 17 48s25.166 27.5 41.499 38.5s33.833 19.5 52.5 25.5s35.667 9 51 9c20 0 39 -2.66699 57 -8
s33.5 -13.5 46.5 -24.5s23.333 -24.5 31 -40.5s11.5 -35 11.5 -57v-305l8 -8h25z" />
    <glyph glyph-name="ograve" unicode="&#xf2;" horiz-adv-x="543" 
d="M349 558c0 0.666992 -2.83301 6.33496 -8.5 17.002l-21 39.5l-27.5 51l-28.5 52l-23.5 43c-6.66699 12.333 -11 20.166 -13 23.499l-7 4h-35c-5.33301 0 -8 -2.66699 -8 -8c0 -0.666992 3.16699 -6.33398 9.5 -17.001l24 -39.5l32 -51l33 -52l27 -42.5
c7.66699 -12 12.5 -19.667 14.5 -23l7 -4c2.66699 0 7.5 -0.166992 14.5 -0.5s10.5 2.16699 10.5 7.5zM493 239.001c0 36.667 -4.16699 70 -12.5 100s-21.333 55.5 -39 76.5s-40.5 37.167 -68.5 48.5s-61.667 17 -101 17s-73 -5.66699 -101 -17s-51 -27.5 -69 -48.5
s-31.167 -46.333 -39.5 -76s-12.5 -63.167 -12.5 -100.5c0 -35.333 4.5 -68 13.5 -98s22.833 -55.833 41.5 -77.5s42 -38.667 70 -51s60.667 -18.5 98 -18.5s69.833 6.16699 97.5 18.5s50.5 29.333 68.5 51s31.5 47.5 40.5 77.5s13.5 62.667 13.5 98zM452 239.001
l-0.99707 0.00292969c0 -28 -3.5 -54.667 -10.5 -80s-17.833 -47.5 -32.5 -66.5s-33.334 -34.167 -56.001 -45.5s-49.334 -17 -80.001 -17s-57.334 5.66699 -80.001 17s-41.5 26.5 -56.5 45.5s-26.167 41.167 -33.5 66.5s-11 52 -11 80c0 29.333 3.5 56.666 10.5 81.999
s17.833 47.166 32.5 65.499s33.5 32.666 56.5 42.999s50.5 15.5 82.5 15.5s59.333 -5.16699 82 -15.5s41.167 -24.833 55.5 -43.5s24.833 -40.5 31.5 -65.5s10 -52.167 10 -81.5z" />
    <glyph glyph-name="oacute" unicode="&#xf3;" horiz-adv-x="543" 
d="M398 764c0 4 -2.66699 6 -8 6h-35l-7 -3c-2 -3.33301 -7 -10.5 -15 -21.5l-28 -39l-33.5 -48l-32.5 -47l-24.5 -36c-6.33301 -9.66699 -9.5 -15.167 -9.5 -16.5c0 -5.33301 3 -8 9 -8h18l6 3l17 21.5l31 39.5l37.5 48l36 47l27.5 37c7.33301 10 11 15.667 11 17zM493 239
c0 36.667 -4.16699 70 -12.5 100s-21.333 55.5 -39 76.5s-40.5 37.167 -68.5 48.5s-61.667 17 -101 17s-73 -5.66699 -101 -17s-51 -27.5 -69 -48.5s-31.167 -46.333 -39.5 -76s-12.5 -63.167 -12.5 -100.5c0 -35.333 4.5 -68 13.5 -98s22.833 -55.833 41.5 -77.5
s42 -38.667 70 -51s60.667 -18.5 98 -18.5s69.833 6.16699 97.5 18.5s50.5 29.333 68.5 51s31.5 47.5 40.5 77.5s13.5 62.667 13.5 98zM452 239l-0.99707 0.00292969c0 -28 -3.5 -54.667 -10.5 -80s-17.833 -47.5 -32.5 -66.5s-33.334 -34.167 -56.001 -45.5
s-49.334 -17 -80.001 -17s-57.334 5.66699 -80.001 17s-41.5 26.5 -56.5 45.5s-26.167 41.167 -33.5 66.5s-11 52 -11 80c0 29.333 3.5 56.666 10.5 81.999s17.833 47.166 32.5 65.499s33.5 32.666 56.5 42.999s50.5 15.5 82.5 15.5s59.333 -5.16699 82 -15.5
s41.167 -24.833 55.5 -43.5s24.833 -40.5 31.5 -65.5s10 -52.167 10 -81.5z" />
    <glyph glyph-name="ocircumflex" unicode="&#xf4;" horiz-adv-x="543" 
d="M466 560c0 1.33301 -4 6.33301 -12 15l-30 31.5l-39.5 39.5l-41 40.5l-34 33.5l-18.5 18c-2.66699 1.33301 -4.66699 2 -6 2h-52l-180 -174l-2 -6c-1.33301 -5.33301 1.33398 -8 8.00098 -8h28l86 80.5l86 79.5l171 -160c5.33301 0 12.166 -0.333008 20.499 -1
s13.5 2.33301 15.5 9zM493 239c0 36.667 -4.16699 70 -12.5 100s-21.333 55.5 -39 76.5s-40.334 37.167 -68.001 48.5s-61.167 17 -100.5 17s-73 -5.66699 -101 -17s-51 -27.5 -69 -48.5s-31.167 -46.333 -39.5 -76s-12.5 -63.167 -12.5 -100.5c0 -35.333 4.5 -68 13.5 -98
s22.833 -55.833 41.5 -77.5s41.834 -38.667 69.501 -51s60.167 -18.5 97.5 -18.5s69.833 6.16699 97.5 18.5s50.5 29.333 68.5 51s31.5 47.5 40.5 77.5s13.5 62.667 13.5 98zM452 239c0 -28 -3.49707 -54.6641 -10.4971 -79.9971s-17.833 -47.5 -32.5 -66.5
s-33.334 -34.167 -56.001 -45.5s-49.334 -17 -80.001 -17s-57.334 5.66699 -80.001 17s-41.5 26.5 -56.5 45.5s-26.167 41.167 -33.5 66.5s-11 52 -11 80c0 29.333 3.5 56.666 10.5 81.999s17.667 47.166 32 65.499s33 32.666 56 42.999s50.5 15.5 82.5 15.5
s59.333 -5.16699 82 -15.5s41.167 -24.833 55.5 -43.5s24.833 -40.5 31.5 -65.5s10 -52.167 10 -81.5z" />
    <glyph glyph-name="otilde" unicode="&#xf5;" horiz-adv-x="543" 
d="M457 657c-2 3.33301 -4.33301 7.83691 -7 13.5039s-6 8.5 -10 8.5c-1.33301 0 -3.83301 -2.33301 -7.5 -7s-9 -9.83398 -16 -15.501s-15.167 -10.834 -24.5 -15.501s-20 -7 -32 -7c-14.667 0 -29.167 2.5 -43.5 7.5s-28.666 10.333 -42.999 16s-29 11 -44 16
s-30.167 7.5 -45.5 7.5c-18.667 0 -37.334 -5.5 -56.001 -16.5s-34 -23.167 -46 -36.5v-12l13 -17l10 1c9.33301 11.333 21.166 21.666 35.499 30.999s28.833 14 43.5 14s29.334 -2.33301 44.001 -7s29.334 -10 44.001 -16s29.167 -11.333 43.5 -16s29.166 -7 44.499 -7
c17.333 0 34.833 4.66699 52.5 14s32.167 20.666 43.5 33.999zM493 239.004c0 36.667 -4.16699 70 -12.5 100s-21.333 55.5 -39 76.5s-40.5 37.167 -68.5 48.5s-61.667 17 -101 17s-73 -5.66699 -101 -17s-51 -27.5 -69 -48.5s-31.167 -46.333 -39.5 -76
s-12.5 -63.167 -12.5 -100.5c0 -35.333 4.5 -68 13.5 -98s22.833 -55.833 41.5 -77.5s42 -38.667 70 -51s60.667 -18.5 98 -18.5s69.833 6.16699 97.5 18.5s50.5 29.333 68.5 51s31.5 47.5 40.5 77.5s13.5 62.667 13.5 98zM452 239.004l-0.99707 0.00292969
c0 -28 -3.5 -54.667 -10.5 -80s-17.833 -47.5 -32.5 -66.5s-33.334 -34.167 -56.001 -45.5s-49.334 -17 -80.001 -17s-57.334 5.66699 -80.001 17s-41.5 26.5 -56.5 45.5s-26.167 41.167 -33.5 66.5s-11 52 -11 80c0 29.333 3.5 56.666 10.5 81.999
s17.833 47.166 32.5 65.499s33.5 32.666 56.5 42.999s50.5 15.5 82.5 15.5s59.333 -5.16699 82 -15.5s41.167 -24.833 55.5 -43.5s24.833 -40.5 31.5 -65.5s10 -52.167 10 -81.5z" />
    <glyph glyph-name="odieresis" unicode="&#xf6;" horiz-adv-x="543" 
d="M383 575v44l-8 8h-43l-8 -8v-44l9 -8h43zM210 575v45l-7 8h-44l-8 -8v-45l9 -8h44zM493 239c0 36.667 -4.16699 70 -12.5 100s-21.333 55.5 -39 76.5s-40.5 37.167 -68.5 48.5s-61.667 17 -101 17s-73 -5.66699 -101 -17s-51 -27.5 -69 -48.5s-31.167 -46.333 -39.5 -76
s-12.5 -63.167 -12.5 -100.5c0 -35.333 4.5 -68 13.5 -98s22.833 -55.833 41.5 -77.5s42 -38.667 70 -51s60.667 -18.5 98 -18.5s69.833 6.16699 97.5 18.5s50.5 29.333 68.5 51s31.5 47.5 40.5 77.5s13.5 62.667 13.5 98zM452 239l-0.99707 0.00292969
c0 -28 -3.5 -54.667 -10.5 -80s-17.833 -47.5 -32.5 -66.5s-33.334 -34.167 -56.001 -45.5s-49.334 -17 -80.001 -17s-57.334 5.66699 -80.001 17s-41.5 26.5 -56.5 45.5s-26.167 41.167 -33.5 66.5s-11 52 -11 80c0 29.333 3.5 56.666 10.5 81.999
s17.833 47.166 32.5 65.499s33.5 32.666 56.5 42.999s50.5 15.5 82.5 15.5s59.333 -5.16699 82 -15.5s41.167 -24.833 55.5 -43.5s24.833 -40.5 31.5 -65.5s10 -52.167 10 -81.5z" />
    <glyph glyph-name="divide" unicode="&#xf7;" horiz-adv-x="409" 
d="M234 462v48l-8 8h-47l-8 -8v-48l9 -7h47zM359 351v24l-8 8h-294l-7 -8v-24l8 -8h294zM233 219v48l-7 8h-47l-8 -8v-48l9 -8h47z" />
    <glyph glyph-name="oslash" unicode="&#xf8;" horiz-adv-x="543" 
d="M493 239c0 14 -1.00391 29.668 -3.00391 47.001s-5.16699 34.5 -9.5 51.5s-10.333 33.167 -18 48.5s-17.5 28 -29.5 38c2 2 4.83301 5.16699 8.5 9.5l11.5 13.5c4 4.66699 7.5 9.16699 10.5 13.5s4.5 7.5 4.5 9.5c0 4.66699 -2.66699 7 -8 7h-26l-6 -3l-21 -28
c-18 11.333 -39.667 20 -65 26s-48.666 9 -69.999 9c-39.333 0 -73 -5.66699 -101 -17s-51 -27.5 -69 -48.5s-31.167 -46.333 -39.5 -76s-12.5 -63.167 -12.5 -100.5c0 -14 1 -29.333 3 -46s5.33301 -33.167 10 -49.5s10.834 -31.833 18.501 -46.5s17.167 -27 28.5 -37
c-1.33301 -2 -4.16602 -5.5 -8.49902 -10.5s-8.66602 -10.5 -12.999 -16.5l-11.5 -16.5c-3.33301 -5 -5 -8.16699 -5 -9.5c0 -4.66699 2.33301 -7 7 -7h26l6 3c3.33301 5.33301 7.33301 10.666 12 15.999l14 16c18.667 -12 40.5 -21.833 65.5 -29.5s48.5 -11.5 70.5 -11.5
c37.333 0 69.833 6.16699 97.5 18.5s50.5 29.5 68.5 51.5s31.5 47.833 40.5 77.5s13.5 62.167 13.5 97.5zM451.996 239.001l-0.996094 0.000976562c0 -28 -3.5 -54.667 -10.5 -80s-17.833 -47.5 -32.5 -66.5s-33.334 -34.167 -56.001 -45.5s-49.334 -17 -80.001 -17
c-18.667 0 -38.334 2.66699 -59.001 8s-38.334 14.666 -53.001 27.999l124.5 162l124.5 162c14 -20 24.667 -44.167 32 -72.5s11 -54.5 11 -78.5zM382 414.002l-0.999023 0.00390625l-247 -322c-13.333 20 -23.833 43.667 -31.5 71s-11.5 52.666 -11.5 75.999
c0 29.333 3.5 56.666 10.5 81.999s17.833 47.166 32.5 65.499s33.5 32.666 56.5 42.999s50.5 15.5 82.5 15.5c18.667 0 37.667 -2.33301 57 -7s36.666 -12.667 51.999 -24z" />
    <glyph glyph-name="ugrave" unicode="&#xf9;" horiz-adv-x="483" 
d="M324 558c0 0.666992 -2.66699 6.33496 -8 17.002l-20.5 39.5l-27.5 51l-28.5 52l-23.5 43c-6.66699 12.333 -11 20.166 -13 23.499l-7 4h-35c-6 0 -9 -2.66699 -9 -8c0 -0.666992 3.16699 -6.33398 9.5 -17.001l24 -39.5l32 -51l33 -52l27 -42.5
c7.66699 -12 12.5 -19.667 14.5 -23l7 -4c3.33301 0 8.33301 -0.166992 15 -0.5s10 2.16699 10 7.5zM433 8.00098l-0.00292969 457.999l-8 8h-26l-7 -8c0 -44.667 -0.166992 -89 -0.5 -133s-0.5 -88.333 -0.5 -133c0 -23.333 -4.66699 -45.333 -14 -66
s-21.666 -38.667 -36.999 -54s-33.5 -27.5 -54.5 -36.5s-42.833 -13.5 -65.5 -13.5c-24 0 -44.167 4.33301 -60.5 13s-29.666 20.5 -39.999 35.5s-17.666 32 -21.999 51s-6.5 39.167 -6.5 60.5l3 276c-1.33301 4.66699 -3.66602 7.33398 -6.99902 8.00098h-26l-8 -8
c-2 -92 -3 -184 -3 -276c0 -27.333 3.16699 -53 9.5 -77s16.333 -44.833 30 -62.5s31.334 -31.5 53.001 -41.5s47.5 -15 77.5 -15c39.333 0 73.666 9.16699 102.999 27.5s52.666 44.5 69.999 78.5l1 -92l8 -8h23z" />
    <glyph glyph-name="uacute" unicode="&#xfa;" horiz-adv-x="483" 
d="M364 764c0 4 -2.66699 6 -8 6h-35l-7 -3c-2 -3.33301 -7 -10.5 -15 -21.5l-27.5 -39l-33.5 -48l-32.5 -47l-24.5 -36.5c-6.66699 -10 -10 -15.333 -10 -16c0 -5.33301 2.66699 -8 8 -8h18l6 3l17.5 21.5l31 39.5l37.5 48l36.5 47l27.5 37c7.33301 10 11 15.667 11 17z
M433 8l-0.00292969 457.999l-8 8h-26l-7 -8c0 -44.667 -0.166992 -89 -0.5 -133s-0.5 -88.333 -0.5 -133c0 -23.333 -4.66699 -45.333 -14 -66s-21.666 -38.667 -36.999 -54s-33.5 -27.5 -54.5 -36.5s-42.833 -13.5 -65.5 -13.5c-24 0 -44.167 4.33301 -60.5 13
s-29.666 20.5 -39.999 35.5s-17.666 32 -21.999 51s-6.5 39.167 -6.5 60.5l3 276c-1.33301 4.66699 -3.66602 7.33398 -6.99902 8.00098h-26l-8 -8c-2 -92 -3 -184 -3 -276c0 -27.333 3.16699 -53 9.5 -77s16.333 -44.833 30 -62.5s31.334 -31.5 53.001 -41.5
s47.5 -15 77.5 -15c39.333 0 73.666 9.16699 102.999 27.5s52.666 44.5 69.999 78.5l1 -92l8 -8h23z" />
    <glyph glyph-name="ucircumflex" unicode="&#xfb;" horiz-adv-x="514" 
d="M464 560c0 1.33301 -4.00098 6.33301 -12.001 15l-30 31.5l-39 39.5l-40.5 40.5l-34 33.5l-18.5 18c-2.66699 1.33301 -4.66699 2 -6 2h-51l-180 -174l-2 -6c-1.33301 -5.33301 1.33398 -8 8.00098 -8h27l172 160l171 -160c5.33301 0 12 -0.333008 20 -1s13 2.33301 15 9
zM434.999 8l0.00292969 458l-8 8h-25l-8 -8c0 -44.667 -0.166992 -89 -0.5 -133s-0.5 -88.333 -0.5 -133c0 -23.333 -4.5 -45.166 -13.5 -65.499s-21.333 -38.333 -37 -54s-33.834 -28 -54.501 -37s-42.334 -13.5 -65.001 -13.5c-24 0 -44.167 4.33301 -60.5 13
s-29.5 20.5 -39.5 35.5s-17.333 32 -22 51s-7 39.167 -7 60.5c0 8 0.166992 19.667 0.5 35s0.833008 32.166 1.5 50.499l2 57.5c0.666992 20 1 38.667 1 56c0 18 -0.166992 33.833 -0.5 47.5s-0.833008 23.5 -1.5 29.5c-1.33301 5.33301 -4 8 -8 8h-26l-7 -8
c-2 -92 -3 -184 -3 -276c0 -27.333 3.16699 -53 9.5 -77s16.333 -44.833 30 -62.5s31.167 -31.5 52.5 -41.5s47.333 -15 78 -15c38.667 0 72.667 9.16699 102 27.5s52.666 44.5 69.999 78.5l2 -92l8 -8h22z" />
    <glyph glyph-name="udieresis" unicode="&#xfc;" horiz-adv-x="483" 
d="M352 575v44l-7 8h-43l-8 -8v-44l8 -8h43zM181 575v45l-7 8h-44l-8 -8v-45l8 -8h44zM433 8l-0.00292969 457.999l-8 8h-26l-7 -8c0 -44.667 -0.166992 -89 -0.5 -133s-0.5 -88.333 -0.5 -133c0 -23.333 -4.66699 -45.333 -14 -66s-21.666 -38.667 -36.999 -54
s-33.5 -27.5 -54.5 -36.5s-42.833 -13.5 -65.5 -13.5c-24 0 -44.167 4.33301 -60.5 13s-29.666 20.5 -39.999 35.5s-17.666 32 -21.999 51s-6.5 39.167 -6.5 60.5l3 276c-1.33301 4.66699 -3.66602 7.33398 -6.99902 8.00098h-26l-8 -8c-2 -92 -3 -184 -3 -276
c0 -27.333 3.16699 -53 9.5 -77s16.333 -44.833 30 -62.5s31.334 -31.5 53.001 -41.5s47.5 -15 77.5 -15c39.333 0 73.666 9.16699 102.999 27.5s52.666 44.5 69.999 78.5l1 -92l8 -8h23z" />
    <glyph glyph-name="ydieresis" unicode="&#xff;" horiz-adv-x="546" 
d="M382 575v44l-8 8h-43l-8 -8v-44l8 -8h43zM209 575v45l-7 8h-44l-8 -8v-45l8 -8h44zM496 469c0 1.33301 -1.00195 2.49902 -3.00195 3.49902s-3.66699 1.5 -5 1.5h-31l-7 -5l-91 -206.5l-92 -206.5l-173 413l-7 5c-1.33301 0 -4 0.166992 -8 0.5
s-8.16699 0.333008 -12.5 0s-8.16602 -1 -11.499 -2s-5 -2.5 -5 -4.5c0 -1.33301 4.33301 -12.666 13 -33.999l33 -80l44 -104.5l45 -107l37 -87.5l20 -46c-1.33301 -3.33301 -4.66602 -10.5 -9.99902 -21.5l-18 -38.5l-21.5 -46l-21 -45
c-6.33301 -14 -11.5 -25.833 -15.5 -35.5s-6 -15.167 -6 -16.5c0 -2 1 -3.33301 3 -4s3.66699 -1 5 -1h30l7 4c2.66699 6.66699 9.16699 21 19.5 43l37.5 81l48.5 106l53.5 117.5l52.5 116l45.5 100.5l32 71c8 18 12 27.667 12 29z" />
    <glyph glyph-name="OE" unicode="&#x152;" horiz-adv-x="1034" 
d="M983 5c0 5.33301 0.330078 12.667 0.99707 22s-2.33301 15 -9 17c-19.333 -1.33301 -38.5 -2.5 -57.5 -3.5s-38.167 -1.5 -57.5 -1.5c-28 0 -55.833 0.166992 -83.5 0.5s-55.5 0.5 -83.5 0.5v307h150h13c6.66699 0 13.834 -0.166992 21.501 -0.5
s14.834 -0.833008 21.501 -1.5s11.334 -1.33398 14.001 -2.00098c6 0 9 2.66699 9 8v27l-8 8h-221v281h145c21.333 0 42.333 -0.666992 63 -2s41.667 -2 63 -2c5.33301 0 8 2.66699 8 8v27l-8 8h-306l-8 -8v-131c-14 27.333 -30.833 50.333 -50.5 69
s-41.334 33.5 -65.001 44.5s-49.167 18.833 -76.5 23.5s-55.666 7 -84.999 7c-56 0 -104.333 -8.33301 -145 -25s-74.167 -40.167 -100.5 -70.5s-45.833 -67.166 -58.5 -110.499s-19 -91.666 -19 -144.999c0 -51.333 6.5 -99.333 19.5 -144s32.833 -83.5 59.5 -116.5
s60.334 -58.833 101.001 -77.5s88.334 -28 143.001 -28c60 0 114.167 13.667 162.5 41s86.5 68 114.5 122v-149l8 -8c53.333 0 106.166 0.166992 158.499 0.5s105.166 -0.833984 158.499 -3.50098zM649.997 360.001c0 -43.333 -5.49902 -84.833 -16.499 -124.5
s-27.833 -74.667 -50.5 -105s-51.334 -54.5 -86.001 -72.5s-76 -27 -124 -27c-47.333 0 -88.5 9 -123.5 27s-64 42.167 -87 72.5s-40.167 65.333 -51.5 105s-17 81.167 -17 124.5c0 46 5.16699 88.167 15.5 126.5s26.833 71.5 49.5 99.5s51.5 49.667 86.5 65
s77.5 23 127.5 23s92.5 -7.66699 127.5 -23s63.5 -37 85.5 -65s38.167 -61.167 48.5 -99.5s15.5 -80.5 15.5 -126.5z" />
    <glyph glyph-name="oe" unicode="&#x153;" horiz-adv-x="894" 
d="M844 252c0 29.333 -2.82617 57.6729 -8.49316 85.0059s-15.167 51.666 -28.5 72.999s-31.333 38.5 -54 51.5s-51.334 19.5 -86.001 19.5c-42.667 0 -81.5 -9.33301 -116.5 -28s-61.167 -48.334 -78.5 -89.001c-9.33301 18 -21.333 34.167 -36 48.5
s-30.834 26.5 -48.501 36.5s-36.334 17.833 -56.001 23.5s-39.5 8.5 -59.5 8.5c-39.333 0 -73 -5.66699 -101 -17s-51 -27.5 -69 -48.5s-31.167 -46.333 -39.5 -76s-12.5 -63.167 -12.5 -100.5c0 -35.333 4.5 -68 13.5 -98s22.833 -55.833 41.5 -77.5s42 -38.667 70 -51
s60.667 -18.5 98 -18.5c44 0 83.833 10.167 119.5 30.5s62.167 51.5 79.5 93.5c14.667 -44 40.5 -75.667 77.5 -95s77.833 -29 122.5 -29c23.333 0 48.666 3.33301 75.999 10s51.666 15.667 72.999 27l4 7c0 2 0.166992 5 0.5 9s0.333008 8 0 12s-1 7.66699 -2 11
s-2.83301 5 -5.5 5c-1.33301 0 -6.33301 -2.33301 -15 -7s-19.834 -9.83398 -33.501 -15.501s-29 -10.834 -46 -15.501s-34.5 -7 -52.5 -7c-32 0 -59 5.16699 -81 15.5s-40.167 24.666 -54.5 42.999s-24.833 40.166 -31.5 65.499s-10.334 52.666 -11.001 81.999
c58 1.33301 115.333 2.33301 172 3s113.667 2.33398 171 5.00098zM803.007 281.007h-1.00195c-51.333 0 -102.666 -1.33301 -153.999 -4s-103 -4 -155 -4c0 24.667 4.5 47.5 13.5 68.5s21.5 39.167 37.5 54.5s34.667 27.333 56 36s44.333 13 69 13
c24 0 44.333 -4.66699 61 -14s30.334 -21.5 41.001 -36.5s18.5 -32.5 23.5 -52.5s7.83301 -40.333 8.5 -61zM453.005 239.007h-0.999023c0 -28 -3.66699 -54.667 -11 -80s-18.333 -47.5 -33 -66.5s-33.334 -34.167 -56.001 -45.5s-49.334 -17 -80.001 -17
s-57.334 5.5 -80.001 16.5s-41.5 26 -56.5 45s-26.167 41.167 -33.5 66.5s-11 52.333 -11 81c0 29.333 3.5 56.666 10.5 81.999s17.833 47.166 32.5 65.499s33.5 32.666 56.5 42.999s50.5 15.5 82.5 15.5s59.333 -5.16699 82 -15.5s41.334 -24.666 56.001 -42.999
s25.334 -40.166 32.001 -65.499s10 -52.666 10 -81.999z" />
    <glyph glyph-name="Scaron" unicode="&#x160;" horiz-adv-x="401" 
d="M351 -70c0 3.33301 -2.33203 5.66699 -6.99902 7h-26l-7 -7c0 -34 -9.5 -63 -28.5 -87s-46.5 -36 -82.5 -36c-36.667 0 -64.334 11.667 -83.001 35s-28 52.666 -28 87.999l-7 7h-25c-4.66699 -1.33301 -7 -3.66602 -7 -6.99902c0 -48 13 -86.167 39 -114.5
s63 -42.5 111 -42.5c23.333 0 44.333 3.83301 63 11.5s34.5 18.5 47.5 32.5s23 30.5 30 49.5s10.5 40.167 10.5 63.5z" />
    <glyph glyph-name="Ydieresis" unicode="&#x178;" horiz-adv-x="511" 
d="M366 748v45l-7 8h-43l-8 -8v-45l8 -8h43zM194 748v45l-7 8h-43l-8 -8v-45l8 -8h43zM461 701c0 1.33301 -1.00098 2.5 -3.00098 3.5s-3.66699 1.5 -5 1.5h-26l-7 -5l-83 -178.5l-83 -178.5l-160 357l-7 5c-1.33301 0 -4 0.166992 -8 0.5s-8.16699 0.333008 -12.5 0
s-8.16602 -0.833008 -11.499 -1.5s-5 -2 -5 -4s4 -12.333 12 -31l30.5 -69l41 -89.5l42.5 -92.5l35 -77c10 -22 16.667 -36.333 20 -43v-291l7 -8h29l8 8v293l19.5 40.5l36 76l43.5 92l42.5 90.5l32 70c8.33301 18.667 12.5 29 12.5 31z" />
    <glyph glyph-name="florin" unicode="&#x192;" horiz-adv-x="549" 
d="M499 687l-1.99902 31.9951l-4 6c-8 4.66699 -18.667 7.66699 -32 9s-24.666 2 -33.999 2c-40 0 -70.667 -9 -92 -27s-37.333 -40.667 -48 -68s-17.834 -57.333 -21.501 -90s-7.5 -63.667 -11.5 -93h-42c-5.33301 -2.66699 -8 -7 -8 -13
c0 -5.33301 -0.666992 -10.666 -2 -15.999c0 -4.66699 2.66699 -7.66699 8 -9h41l-59 -411c-1.33301 -10 -3.5 -21.167 -6.5 -33.5s-7.33301 -23.666 -13 -33.999s-13 -19.166 -22 -26.499s-19.833 -11 -32.5 -11c-13.333 0 -24 2.66699 -32 8s-17.333 9.66602 -28 12.999
c-5.33301 0 -8 -2.66699 -8 -8v-30l5 -7c9.33301 -5.33301 19.666 -8.83301 30.999 -10.5s22.333 -2.5 33 -2.5c18.667 0 34.667 4.33301 48 13s24.5 19.834 33.5 33.501s16.167 28.667 21.5 45s9.33301 32.5 12 48.5c10.667 68.667 20.334 137.334 29.001 206.001
s18.334 137.667 29.001 207h83c5.33301 2.66699 8.16602 6.83398 8.49902 12.501s0.5 11.167 0.5 16.5c0.666992 4.66699 -2.83301 7.66699 -10.5 9s-16.834 2 -27.501 2c-10 0 -19.833 -0.333008 -29.5 -1s-16.5 -1 -20.5 -1c2.66699 22 5.16699 47 7.5 75
s7.33301 54.333 15 79s19.834 45.5 36.501 62.5s41 25.5 73 25.5c18 0 32.167 -3.5 42.5 -10.5s17.166 -10.5 20.499 -10.5c5.33301 0 8 2.66699 8 8z" />
    <glyph glyph-name="circumflex" unicode="&#x2c6;" horiz-adv-x="515" 
d="M465 560c0 1.33301 -4 6.33301 -12 15l-30 31.5l-39.5 39.5l-41 40.5l-34.5 33.5c-10 9.33301 -16.333 15.333 -19 18c-1.33301 1.33301 -3.33301 2 -6 2h-51l-180 -174l-2 -6c0 -5.33301 3 -8 9 -8h27l172 160l172 -160c5.33301 0 12 -0.333008 20 -1s13 2.33301 15 9z
" />
    <glyph glyph-name="tilde" unicode="&#x2dc;" horiz-adv-x="526" 
d="M476 657l-12.001 19.001l-6 4c-2 0 -5.33301 -2.33301 -10 -7s-10.667 -10 -18 -16s-16.166 -11.333 -26.499 -16s-22.5 -7 -36.5 -7c-17.333 0 -34.166 2.5 -50.499 7.5s-32.833 10.333 -49.5 16s-33.334 11 -50.001 16s-33.667 7.5 -51 7.5
c-5.33301 0 -14.333 -1.83301 -27 -5.5s-25.5 -8.16699 -38.5 -13.5s-24.667 -11.5 -35 -18.5s-15.5 -13.5 -15.5 -19.5c0 -1.33301 0.833008 -3.5 2.5 -6.5s3.5 -6 5.5 -9s4 -5.66699 6 -8s3.33301 -3.5 4 -3.5c2.66699 0 7 2.5 13 7.5s13.167 10.5 21.5 16.5
s18 11.5 29 16.5s22.5 7.5 34.5 7.5c16.667 0 33.5 -2.33301 50.5 -7s33.667 -10 50 -16s32.833 -11.333 49.5 -16s33.667 -7 51 -7c19.333 0 38.833 4.66699 58.5 14s36.167 20.666 49.5 33.999z" />
    <glyph glyph-name="endash" unicode="&#x2013;" horiz-adv-x="408" 
d="M358 353v23l-7 8h-294l-7 -8v-23l7 -8h294z" />
    <glyph glyph-name="emdash" unicode="&#x2014;" horiz-adv-x="703" 
d="M653 353v23l-9 8h-586l-8 -8v-23l9 -8h586z" />
    <glyph glyph-name="quoteleft" unicode="&#x2018;" horiz-adv-x="197" 
d="M147 761c0 5.33301 -3 8.00098 -9 8.00098h-18l-7 -6c-0.666992 -2.66699 -2.66699 -9.66699 -6 -21l-12 -40l-15 -48.5l-14.5 -47.5l-11 -36.5c-3 -9.66699 -4.5 -14.834 -4.5 -15.501c0 -4.66699 3 -7 9 -7h35l8 5l4.5 22l8.5 39.5l11 47.5
c4 16.667 7.5 32.167 10.5 46.5l7.5 36.5c2 10 3 15.667 3 17z" />
    <glyph glyph-name="quoteright" unicode="&#x2019;" horiz-adv-x="215" 
d="M165 766c0 4.66699 -2.66504 7 -7.99805 7h-35l-8 -6c-0.666992 -2.66699 -2.83398 -9.83398 -6.50098 -21.501l-12.5 -40.5l-15 -49.5l-14.5 -48.5l-11 -37c-3 -10 -4.5 -15.333 -4.5 -16c0 -2 1 -3.66699 3 -5s4 -2 6 -2h18l7 5
c1.33301 2.66699 4.16602 9.83398 8.49902 21.501l15.5 41l19 49.5l18.5 48.5l14 37.5c3.66699 10 5.5 15.333 5.5 16z" />
    <glyph glyph-name="quotesinglbase" unicode="&#x201a;" horiz-adv-x="215" 
d="M165 117c0 5.33301 -2.66504 8 -7.99805 8h-35l-8 -6c-0.666992 -2.66699 -2.83398 -9.83398 -6.50098 -21.501l-12.5 -40.5l-15 -49.5l-14.5 -48.5l-11 -37c-3 -10 -4.5 -15.333 -4.5 -16c0 -2 1 -3.66699 3 -5s4 -2 6 -2h18l7 5
c1.33301 2.66699 4.16602 9.83398 8.49902 21.501l15.5 40.5l19 49.5l18.5 48.5l14 37c3.66699 10 5.5 15.333 5.5 16z" />
    <glyph glyph-name="quotedblleft" unicode="&#x201c;" horiz-adv-x="297" 
d="M247 758c0 5.33301 -2.66699 8.00098 -8 8.00098h-18l-7 -6c-0.666992 -2.66699 -2.83398 -9.5 -6.50098 -20.5l-13 -39l-15.5 -48l-15 -47l-11.5 -36c-3 -9.66699 -4.5 -14.834 -4.5 -15.501c0 -4.66699 2.66699 -7 8 -7h35l8 5l5 21l9.5 39
c3.66699 14.667 7.33398 30.5 11.001 47.5s7.16699 32.5 10.5 46.5l8.5 35.5c2.33301 9.66699 3.5 15.167 3.5 16.5zM149 758.001c0 5.33301 -2.66699 8.00098 -8 8.00098h-17l-8 -6c-0.666992 -2.66699 -2.83398 -9.5 -6.50098 -20.5l-13 -39l-15.5 -48l-15 -47l-11.5 -36
c-3 -9.66699 -4.5 -14.834 -4.5 -15.501c0 -4.66699 2.66699 -7 8 -7h35l8 5l5 21l9.5 39c3.66699 14.667 7.33398 30.5 11.001 47.5s7.16699 32.5 10.5 46.5l8.5 35.5c2.33301 9.66699 3.5 15.167 3.5 16.5z" />
    <glyph glyph-name="quotedblright" unicode="&#x201d;" horiz-adv-x="303" 
d="M253 764c0 5.33301 -2.99902 7.99805 -8.99902 7.99805h-35l-8 -6l-5.5 -21c-3 -11.333 -6.33301 -24.666 -10 -39.999s-7.83398 -31.666 -12.501 -48.999l-12.5 -48l-9 -37c-2.33301 -10 -3.5 -15.333 -3.5 -16c0 -5.33301 3 -8 9 -8h17l8 5
c0.666992 2.66699 3 9.66699 7 21l14 40.5l16.5 49.5l16 48l12.5 37c3.33301 10 5 15.333 5 16zM155.001 763.998c0 5.33301 -2.99902 7.99805 -8.99902 7.99805h-35l-8 -6l-5.5 -21c-3 -11.333 -6.33301 -24.666 -10 -39.999s-7.83398 -31.666 -12.501 -48.999l-12.5 -48
l-9 -37c-2.33301 -10 -3.5 -15.333 -3.5 -16c0 -5.33301 3 -8 9 -8h18l8 5c0.666992 2.66699 3 9.66699 7 21s8.5 24.833 13.5 40.5l16.5 49.5l16 48l12 37c3.33301 10 5 15.333 5 16z" />
    <glyph glyph-name="quotedblbase" unicode="&#x201e;" horiz-adv-x="303" 
d="M253 113c0 5.33301 -2.99902 7.99707 -8.99902 7.99707h-35l-8 -6l-5.5 -21c-3 -11.333 -6.33301 -24.666 -10 -39.999s-7.83398 -31.666 -12.501 -48.999l-12.5 -48l-9 -37c-2.33301 -10 -3.5 -15.333 -3.5 -16c0 -5.33301 3 -8 9 -8h17l8 5
c0.666992 2.66699 3 9.83398 7 21.501l14 40.5l17 49l16 48l12 37c3.33301 10 5 15.333 5 16zM155.001 112.997c0 5.33301 -2.99902 7.99707 -8.99902 7.99707h-35l-8 -6l-5.5 -21c-3 -11.333 -6.33301 -24.666 -10 -39.999s-7.83398 -31.666 -12.501 -48.999l-12.5 -48
l-9 -37c-2.33301 -10 -3.5 -15.333 -3.5 -16c0 -5.33301 3 -8 9 -8h18l8 5c0.666992 2.66699 3 9.83398 7 21.501l13.5 40.5l16.5 49l16 48l12 37c3.33301 10 5 15.333 5 16z" />
    <glyph glyph-name="dagger" unicode="&#x2020;" horiz-adv-x="413" 
d="M363 515v23l-9 8h-296l-8 -8v-23l9 -8h296zM224 5v747l-8 8h-28l-8 -8v-747l9 -8h28z" />
    <glyph glyph-name="daggerdbl" unicode="&#x2021;" horiz-adv-x="656" 
d="M606 620c0 3.33301 -2.33203 5.66699 -6.99902 7h-26l-7 -7c0 -34 -9.5 -63 -28.5 -87s-46.5 -36 -82.5 -36c-36.667 0 -64.334 11.667 -83.001 35s-28 52.666 -28 87.999l-7 7h-25c-4.66699 -1.33301 -7 -3.66602 -7 -6.99902c0 -48 13 -86.167 39 -114.5
s63 -42.5 111 -42.5c23.333 0 44.333 3.83301 63 11.5s34.5 18.5 47.5 32.5s23 30.5 30 49.5s10.5 40.167 10.5 63.5zM369.001 698.001l-6 8h-27l-10 -8l-183 -660h-77l-10 -8l-6 -23l6 -8h196l10 8l6 23l-6 8h-76zM476.001 -69.999c0 3.33301 -2.33203 5.66699 -6.99902 7
h-26l-7 -7c0 -34 -9.5 -63 -28.5 -87s-46.5 -36 -82.5 -36c-36.667 0 -64.334 11.667 -83.001 35s-28 52.666 -28 87.999l-7 7h-25c-4.66699 -1.33301 -7 -3.66602 -7 -6.99902c0 -48 13 -86.167 39 -114.5s63 -42.5 111 -42.5c23.333 0 44.333 3.83301 63 11.5
s34.5 18.5 47.5 32.5s23 30.5 30 49.5s10.5 40.167 10.5 63.5z" />
    <glyph glyph-name="bullet" unicode="&#x2022;" horiz-adv-x="257" 
d="M207 347c0 22 -7.66699 40.668 -23 56.001s-34 23 -56 23s-40.5 -7.66699 -55.5 -23s-22.5 -34 -22.5 -56c0 -22.667 7.5 -41.334 22.5 -56.001s33.833 -22 56.5 -22c22 0 40.5 7.5 55.5 22.5s22.5 33.5 22.5 55.5z" />
    <glyph glyph-name="ellipsis" unicode="&#x2026;" horiz-adv-x="681" 
d="M631 2v48l-8 8h-47l-8 -8v-48l9 -8h47zM371 2v48l-8 8h-46l-8 -8v-48l9 -8h46zM112 2v48l-8 8h-47l-7 -8v-48l8 -8h47z" />
    <glyph glyph-name="perthousand" unicode="&#x2030;" horiz-adv-x="706" 
d="M297 577c0 36.667 -9 65.5 -27 86.5s-46 31.5 -84 31.5c-38.667 0 -67 -10.333 -85 -31s-27 -49.667 -27 -87c0 -36 9.33301 -65.167 28 -87.5s46.667 -33.5 84 -33.5c36 0 63.5 11.5 82.5 34.5s28.5 51.833 28.5 86.5zM519 704c0 4.66699 -2.66699 7 -8 7h-29l-7 -4
l-27.5 -45l-52 -86l-68.5 -112.5l-76.5 -125l-74.5 -123.5l-64 -106.5l-45 -75c-11.333 -19 -17 -28.833 -17 -29.5c0 -5.33301 2.66699 -8 8 -8h30l7 4l27 45l52 86l68.5 113l76 125.5l74.5 123l64 106l45 75.5c11.333 19.333 17 29.333 17 30zM656 111
c0 36.667 -8.66797 65.168 -26.001 85.501s-45 30.5 -83 30.5c-27.333 0 -50.333 -6 -69 -18s-31 -32 -37 -60c-6 28 -18.167 48 -36.5 60s-41.166 18 -68.499 18c-38.667 0 -66.5 -10 -83.5 -30s-25.5 -48.667 -25.5 -86c0 -34.667 9.16699 -62.834 27.5 -84.501
s45.5 -32.5 81.5 -32.5c27.333 0 50.333 7.16699 69 21.5s30.667 34.833 36 61.5c5.33301 -27.333 17.333 -48 36 -62s42 -21 70 -21c35.333 0 62.333 11 81 33s28 50 28 84zM261.999 577.001c0 -24 -6.16699 -44.667 -18.5 -62s-31.5 -26 -57.5 -26
c-26.667 0 -46.167 8.5 -58.5 25.5s-18.5 37.833 -18.5 62.5c0 25.333 6 45.833 18 61.5s31.667 23.5 59 23.5s46.833 -8 58.5 -24s17.5 -36.333 17.5 -61zM615.999 112.001c0 -22 -5.33203 -41.002 -15.999 -57.002s-28.334 -24 -53.001 -24c-24 0 -41.5 8 -52.5 24
s-16.5 35 -16.5 57c0 22.667 5.33301 41.334 16 56.001s28.334 22 53.001 22c25.333 0 43.166 -7.16699 53.499 -21.5s15.5 -33.166 15.5 -56.499zM405 111.999c0 -22 -5.50195 -41 -16.502 -57s-28.5 -24 -52.5 -24s-41.5 8 -52.5 24s-16.5 35 -16.5 57
c0 22.667 5.33301 41.334 16 56.001s28.334 22 53.001 22s42.334 -7.33301 53.001 -22s16 -33.334 16 -56.001z" />
    <glyph glyph-name="guilsinglleft" unicode="&#x2039;" horiz-adv-x="300" 
d="M250 208l-2.99902 8l-156 150l156 147l3 8l-7 25l-8 6c-2 0 -7.33301 -4 -16 -12l-31.5 -30l-40.5 -39.5l-41 -41l-33.5 -34.5c-9.66699 -10 -16.167 -16.333 -19.5 -19l-2 -5c-0.666992 -2.66699 -0.833984 -5.66699 -0.500977 -9s1.16602 -6 2.49902 -8l175 -174l6 -3
c2.66699 0 5 1.33301 7 4s3.5 5.83398 4.5 9.50098s1.83301 7.16699 2.5 10.5s1.33398 5.66602 2.00098 6.99902z" />
    <glyph glyph-name="guilsinglright" unicode="&#x203a;" horiz-adv-x="301" 
d="M251 360v11l-3 5l-176 173l-6 3c-5.33301 -0.666992 -9 -5 -11 -13s-3.66699 -14 -5 -18l4 -8l158 -148l-159 -149l-2 -9l10 -24l7 -5c1.33301 0 6.33301 4 15 12l31.5 30l40.5 40l41.5 41.5l34 34l18.5 18.5c0 1.33301 0.333008 2.33301 1 3s1 1.66699 1 3z" />
    <glyph glyph-name="currency" unicode="&#x20ac;" horiz-adv-x="709" 
d="M658 44c0 1.33301 0.168945 3.83398 0.501953 7.50098s0.333008 7.5 0 11.5s-1 7.5 -2 10.5s-2.5 4.5 -4.5 4.5s-3.66699 -0.333008 -5 -1l-107 -31.5c-34 -9.66699 -70.667 -14.5 -110 -14.5c-76 0 -138.5 20.167 -187.5 60.5s-81.167 97.5 -96.5 171.5h445l7 8v24l-7 8
h-452c-2 18.667 -3 37.667 -3 57c0 21.333 1 42.666 3 63.999h452l7 8v24l-7 8h-445c8 37.333 20.333 69.333 37 96s37.167 48.5 61.5 65.5s52.166 29.333 83.499 37s65.333 11.5 102 11.5c37.333 0 71.333 -3.66699 102 -11s63.334 -16.666 98.001 -27.999
c1.33301 -0.666992 2.33301 -0.833984 3 -0.500977s1.66699 0.5 3 0.5c4 0 6 2.33301 6 7v31l-5 6c-33.333 13.333 -67.333 22 -102 26s-69.667 6 -105 6c-43.333 0 -83.333 -4.5 -120 -13.5s-69.167 -23.333 -97.5 -43s-52 -45.167 -71 -76.5s-32.5 -69.333 -40.5 -114h-44
l-7 -8v-24l7 -8h38c-4 -40.667 -4 -81 0 -121h-38l-7 -8v-24l7 -8h43c15.333 -89.333 51.666 -156.5 108.999 -201.5s131 -67.5 221 -67.5c15.333 0 33 1 53 3s40.167 4.83301 60.5 8.5s40.166 8.16699 59.499 13.5s36 11.333 50 18z" />
    <glyph glyph-name="trademark" unicode="&#x2122;" horiz-adv-x="759" 
d="M709 353v345l-7 8h-31l-7 -4l-73.5 -143.5l-74.5 -143.5l-156 287l-6 4h-27l-8 -8v-345l8 -8h26l7 8v271l142 -275l7 -4h11l7 4l141 280v-276l8 -8h26zM305 672l0.00195312 26l-8 8h-239l-7 -8c0 -2 -0.166992 -5 -0.5 -9s-0.5 -8 -0.5 -12
c0 -3.33301 0.666992 -6.33301 2 -9s3.66602 -4 6.99902 -4c16 0 32.167 0.5 48.5 1.5s32.5 1.5 48.5 1.5v-314l8 -8h25l8 8v314h38c2 0 6.83301 -0.333008 14.5 -1s15.667 -1.16699 24 -1.5s15.666 0 21.999 1s9.5 3.16699 9.5 6.5z" />
    <glyph glyph-name="notequal" unicode="&#xe000;" horiz-adv-x="408" 
d="M358 275v23l-7 8h-166l70 123h96l7 8v23l-7 8h-75c2 2.66699 5.83301 8.66699 11.5 18l17.5 30l16 29.5c4.66699 9 7 14.5 7 16.5s-1 3.5 -3 4.5s-3.66699 1.5 -5 1.5h-27l-7 -4l-27.5 -48l-27.5 -48h-174l-7 -8v-23l7 -8h153l-71 -123h-82l-7 -8v-23l7 -8h60l-11.5 -20
l-18 -31.5c-6.33301 -11 -12 -21.333 -17 -31s-7.5 -15.5 -7.5 -17.5s1 -3.5 3 -4.5s3.66699 -1.5 5 -1.5h28l7 4l29 51l29 51h187z" />
    <glyph glyph-name="infinity" unicode="&#xe001;" horiz-adv-x="751" 
d="M701 366c0 21.333 -3.67188 41.167 -11.0049 59.5s-17.5 34.166 -30.5 47.499s-28.667 23.666 -47 30.999s-38.166 11 -59.499 11c-18 0 -35.5 -3.66699 -52.5 -11s-33.167 -16.666 -48.5 -27.999s-29.666 -24 -42.999 -38s-25.333 -27.333 -36 -40
c-9.33301 10.667 -21.166 22.834 -35.499 36.501s-29.666 26.5 -45.999 38.5s-33 22 -50 30s-32.833 12 -47.5 12c-22 0 -41.833 -3.83301 -59.5 -11.5s-32.667 -18.167 -45 -31.5s-22 -29 -29 -47s-10.5 -37.667 -10.5 -59c0 -45.333 12.333 -81.833 37 -109.5
s60.334 -41.5 107.001 -41.5c16.667 0 33.5 3.5 50.5 10.5s33.167 16 48.5 27s29.5 23.167 42.5 36.5s24.5 26.333 34.5 39c10 -12 21.833 -24.667 35.5 -38s28.334 -25.5 44.001 -36.5s32 -20.167 49 -27.5s33.5 -11 49.5 -11c45.333 0 82.166 13.667 110.499 41
s42.5 64 42.5 110zM658.995 366.001c0 -16 -2.83203 -30.835 -8.49902 -44.502s-13.334 -25.5 -23.001 -35.5s-21.334 -17.833 -35.001 -23.5s-28.5 -8.5 -44.5 -8.5c-14.667 0 -29.334 3.66699 -44.001 11s-28.667 16.5 -42 27.5s-25.5 23 -36.5 36
s-20.5 25.167 -28.5 36.5c8 9.33301 18.167 20.333 30.5 33s25.666 24.834 39.999 36.501s29 21.5 44 29.5s28.833 12 41.5 12c14.667 0 28.334 -3 41.001 -9s23.834 -14.167 33.501 -24.5s17.334 -22.166 23.001 -35.499s8.5 -27 8.5 -41zM344.996 361.999
c-8 -11.333 -17.668 -23.166 -29.001 -35.499s-23.666 -24 -36.999 -35s-27.166 -20 -41.499 -27s-28.833 -10.5 -43.5 -10.5c-34 0 -59.5 10.667 -76.5 32s-25.5 48 -25.5 80c0 14 2.5 27.667 7.5 41s12 25.166 21 35.499s19.667 18.5 32 24.5s26.166 9 41.499 9
c14 0 28.333 -4 43 -12s28.5 -17.833 41.5 -29.5s25.333 -24 37 -37s21.5 -24.833 29.5 -35.5z" />
    <glyph glyph-name="lessequal" unicode="&#xe002;" horiz-adv-x="423" 
d="M372 253c0 3.33301 -1.33203 6.00098 -3.99902 8.00098c-18 12 -38.167 24.667 -60.5 38s-45.5 26.5 -69.5 39.5l-71 39l-65 36.5l30 17l53 30l63 35.5l60.5 35l45.5 28c12 7.66699 18 12.167 18 13.5c0 0.666992 -0.833008 2.5 -2.5 5.5s-3.5 6 -5.5 9
s-4.16699 5.66699 -6.5 8s-4.16602 3.5 -5.49902 3.5c-2 0 -10 -3.83301 -24 -11.5l-52 -29.5l-67 -39.5l-68.5 -40.5l-56.5 -33.5c-16 -9.66699 -26 -15.834 -30 -18.501l-4 -7v-10l4 -7c4 -2.66699 14 -8.83398 30 -18.501l56.5 -34l68.5 -40.5l67 -39l52.5 -30
c14.333 -8 22.166 -12 23.499 -12s3.16602 1.16699 5.49902 3.5s4.5 4.83301 6.5 7.5s3.83301 5.33398 5.5 8.00098s2.5 4.66699 2.5 6zM373.001 137.001v23l-8 8h-294l-8 -8v-23l8 -8h294z" />
    <glyph glyph-name="greaterequal" unicode="&#xe003;" horiz-adv-x="423" 
d="M373 409l0.000976562 9.99805l-4 7c-4.66699 2.66699 -14.834 8.83398 -30.501 18.501l-56 33.5l-68.5 40.5l-67 39.5l-52.5 29.5c-14.333 7.66699 -22.166 11.5 -23.499 11.5c-2 0 -4 -1 -6 -3l-7.5 -11.5c-3.66699 -5.66699 -5.5 -9.5 -5.5 -11.5
s1.33301 -4.33301 4 -7c42 -28 85.667 -54 131 -78l134 -74l-29.5 -17l-52.5 -30l-63 -36l-60.5 -35.5l-45.5 -28c-12 -7.66699 -18 -12.167 -18 -13.5s0.833008 -3.33301 2.5 -6l5.5 -8.5c2 -3 4.16699 -5.66699 6.5 -8s4.16602 -3.5 5.49902 -3.5s9.16602 4 23.499 12
l52 30l67 39l68.5 40.5l55.5 34c15.667 9.66699 25.834 15.834 30.501 18.501zM359.001 136.998v23l-8 8h-293l-8 -8v-23l8 -8h293z" />
    <glyph glyph-name="summation" unicode="&#xe004;" horiz-adv-x="503" 
d="M453 5l0.000976562 27l-7 8c-54.667 -0.666992 -109.334 -1 -164.001 -1h-164l233 323l1 9l-101 147.5l-101 148.5h114c9.33301 0 22 -0.333008 38 -1l49.5 -2c17 -0.666992 33 -1.16699 48 -1.5s26.5 0.166992 34.5 1.5c2.66699 0.666992 4.66699 1.33398 6 2.00098
s2 2.66699 2 6c0 5.33301 0.333008 12.5 1 21.5s-2.33301 14.5 -9 16.5c-44.667 -1.33301 -89 -2.33301 -133 -3s-88.333 -1 -133 -1c-4 0 -11.167 0.166992 -21.5 0.5s-20.833 0.5 -31.5 0.5c-10 0 -19.167 -0.5 -27.5 -1.5s-12.5 -3.16699 -12.5 -6.5
c0 -1.33301 0.666992 -3.33301 2 -6c13.333 -22 28 -43.5 44 -64.5s31.333 -42.167 46 -63.5l66.5 -98l65.5 -98l-30.5 -46l-49.5 -71.5l-57.5 -82.5l-54.5 -78.5l-41 -59c-10.667 -15.667 -16 -23.834 -16 -24.501c0 -4.66699 2.33301 -7 7 -7h144c81.333 0 163 -1 245 -3
c4.66699 1.33301 7 4 7 8z" />
    <glyph glyph-name="product" unicode="&#xe005;" horiz-adv-x="698" 
d="M648 670l-0.00195312 28l-8 8c-194 -0.666992 -387.667 -0.666992 -581 0l-8 -8c0 -2.66699 -0.166992 -6 -0.5 -10s-0.333008 -8 0 -12s1.16602 -7.33301 2.49902 -10s3.66602 -4 6.99902 -4c9.33301 0 18.333 0.833008 27 2.5s17.667 2.5 27 2.5h31
c-1.33301 -110.667 -3.16602 -220.5 -5.49902 -329.5s-4.16602 -218.833 -5.49902 -329.5l8 -8h27l8 8c1.33301 110.667 3 220.5 5 329.5s3.66699 218.833 5 329.5h325l10 -659l8 -8h26l8 8c-1.33301 110.667 -3.16602 220.5 -5.49902 329.5
s-4.16602 218.833 -5.49902 329.5c14.667 0 29.167 -0.166992 43.5 -0.5s28.5 -1.83301 42.5 -4.5z" />
    <glyph glyph-name="approxequal" unicode="&#xe006;" horiz-adv-x="349" 
d="M299 428l-0.999023 9.99805c-1.33301 1.33301 -3.16602 3 -5.49902 5s-4.16602 3 -5.49902 3c-2 0 -4.5 -1.16699 -7.5 -3.5s-6.5 -4.83301 -10.5 -7.5s-8.83301 -5.16699 -14.5 -7.5s-12.5 -3.5 -20.5 -3.5c-8.66699 0 -17.667 1.66699 -27 5l-28 10.5
c-9.33301 3.66699 -19 7.16699 -29 10.5s-20 5 -30 5c-5.33301 0 -11.833 -1.66699 -19.5 -5s-15.334 -7.5 -23.001 -12.5s-14.167 -10.667 -19.5 -17s-8 -12.166 -8 -17.499c0 -1.33301 2 -3.83301 6 -7.5s6.66699 -5.5 8 -5.5c2.66699 0 5.66699 1.5 9 4.5
s7.33301 6.16699 12 9.5s9.83398 6.5 15.501 9.5s12.167 4.5 19.5 4.5c9.33301 0 18.666 -1.66699 27.999 -5s18.833 -7 28.5 -11s19.167 -7.66699 28.5 -11s19 -5 29 -5c13.333 0 25.666 4.33301 36.999 13s20.666 18.334 27.999 29.001zM299.001 316.998l-1.00098 9.99707
c-1.33301 0.666992 -3.16602 2 -5.49902 4s-4.16602 3 -5.49902 3c-3.33301 0 -9.16602 -3.5 -17.499 -10.5s-20.166 -10.5 -35.499 -10.5c-9.33301 0 -18.5 1.5 -27.5 4.5s-18.333 6.5 -28 10.5s-19.334 7.5 -29.001 10.5s-19.5 4.5 -29.5 4.5
c-5.33301 0 -11.833 -1.66699 -19.5 -5s-15.334 -7.5 -23.001 -12.5s-14.167 -10.667 -19.5 -17s-8 -12.166 -8 -17.499c0 -1.33301 2 -3.66602 6 -6.99902s6.66699 -5 8 -5c2 0 4.83301 1.5 8.5 4.5l12 9.5c4.33301 3.33301 9.5 6.5 15.5 9.5s12.667 4.5 20 4.5
c8.66699 0 17.667 -1.66699 27 -5s18.833 -7 28.5 -11s19.334 -7.66699 29.001 -11s19.5 -5 29.5 -5c13.333 0 25.666 4.33301 36.999 13s20.666 18.334 27.999 29.001z" />
    <glyph glyph-name="Delta" unicode="&#xe007;" horiz-adv-x="639" 
d="M589 6c0 2.66699 -3.33301 12.332 -10 28.999l-23 56l-25.5 59c-8.33301 18.667 -13.833 31.334 -16.5 38.001l-75.5 186.5l-71.5 187.5l-7 5h-58l-6 -5l-246 -557c0 -1.33301 1 -2.5 3 -3.5s3.66699 -1.5 5 -1.5h523c1.33301 0 3 0.5 5 1.5s3 2.5 3 4.5zM524 41.998
h-408l106.5 242l106.5 242h5z" />
    </font>
</defs>
</svg>
