<?xml version="1.0" encoding="UTF-8" standalone="no"?>
<!-- Created with Inkscape (http://www.inkscape.org/) -->

<svg
   xmlns:dc="http://purl.org/dc/elements/1.1/"
   xmlns:cc="http://creativecommons.org/ns#"
   xmlns:rdf="http://www.w3.org/1999/02/22-rdf-syntax-ns#"
   xmlns:svg="http://www.w3.org/2000/svg"
   xmlns="http://www.w3.org/2000/svg"
   xmlns:sodipodi="http://sodipodi.sourceforge.net/DTD/sodipodi-0.dtd"
   xmlns:inkscape="http://www.inkscape.org/namespaces/inkscape"
   width="50"
   height="50"
   id="svg3051"
   version="1.1"
   inkscape:version="0.91 r"
   sodipodi:docname="pictobouffe.svg">
  <defs
     id="defs3053" />
  <sodipodi:namedview
     id="base"
     pagecolor="#ffffff"
     bordercolor="#666666"
     borderopacity="1.0"
     inkscape:pageopacity="0.0"
     inkscape:pageshadow="2"
     inkscape:zoom="2.9350456"
     inkscape:cx="89.382055"
     inkscape:cy="77.891597"
     inkscape:document-units="px"
     inkscape:current-layer="layer5"
     showgrid="false"
     showguides="true"
     inkscape:guide-bbox="true"
     inkscape:snap-from-guide="false"
     inkscape:window-width="1535"
     inkscape:window-height="876"
     inkscape:window-x="65"
     inkscape:window-y="24"
     inkscape:window-maximized="1"
     objecttolerance="1"
     gridtolerance="1"
     guidetolerance="1">
    <sodipodi:guide
       orientation="1,0"
       position="995.71429,648.57143"
       id="guide3860" />
    <sodipodi:guide
       orientation="1,0"
       position="10.357143,723.92857"
       id="guide3864" />
    <sodipodi:guide
       orientation="1,0"
       position="747.14286,951.42857"
       id="guide3866" />
    <sodipodi:guide
       orientation="1,0"
       position="1100.3571,756.07143"
       id="guide3868" />
    <sodipodi:guide
       orientation="1,0"
       position="-1155.7143,2211.4286"
       id="guide3975" />
    <sodipodi:guide
       orientation="1,0"
       position="-1185.7143,2214.2857"
       id="guide3977" />
    <sodipodi:guide
       orientation="0,1"
       position="94.717439,72.911986"
       id="guide3986" />
    <sodipodi:guide
       orientation="1,0"
       position="692.14286,943.57143"
       id="guide3039" />
    <sodipodi:guide
       orientation="1,0"
       position="874.7921,1303.0968"
       id="guide3857" />
  </sodipodi:namedview>
  <metadata
     id="metadata3056">
    <rdf:RDF>
      <cc:Work
         rdf:about="">
        <dc:format>image/svg+xml</dc:format>
        <dc:type
           rdf:resource="http://purl.org/dc/dcmitype/StillImage" />
        <dc:title></dc:title>
      </cc:Work>
    </rdf:RDF>
  </metadata>
  <g
     inkscape:label="Calque 1"
     inkscape:groupmode="layer"
     id="layer1"
     transform="translate(0,-1002.3622)">
    <path
       sodipodi:nodetypes="ccccccccccc"
       inkscape:connector-curvature="0"
       id="path3903"
       d="m -1167.3624,900.52184 0,50.57143 -868.5714,0 0,130.57143 884.5714,0 0,-181.14286 48.2857,0 0,231.14286 -983.1428,0 0,-231.14286 z"
       style="fill:#000000;fill-opacity:1;stroke:#000000;stroke-width:1px;stroke-linecap:butt;stroke-linejoin:miter;stroke-opacity:1" />
    <rect
       y="784.52185"
       x="-1152.791"
       height="50.714279"
       width="50.357101"
       id="rect3905"
       style="fill:#e60000;fill-opacity:1;stroke:none" />
    <rect
       y="1080.5934"
       x="-1082.0765"
       height="50.714279"
       width="50.357101"
       id="rect3909"
       style="fill:#e60000;fill-opacity:1;stroke:none" />
    <rect
       style="fill:#e60000;fill-opacity:1;stroke:none"
       id="rect3911"
       width="50.357101"
       height="50.714279"
       x="-2085.6479"
       y="1162.7362" />
    <rect
       y="32.463249"
       x="-1013.895"
       height="50.714279"
       width="50.357101"
       id="rect3953"
       style="fill:#e60000;fill-opacity:1;stroke:none" />
    <rect
       style="fill:#e60000;fill-opacity:1;stroke:none"
       id="rect3955"
       width="50.357101"
       height="50.714279"
       x="-1076.3834"
       y="172.11739" />
    <rect
       y="407.83173"
       x="-1069.9547"
       height="50.714279"
       width="50.357101"
       id="rect3957"
       style="fill:#e60000;fill-opacity:1;stroke:none" />
    <rect
       style="fill:#e60000;fill-opacity:1;stroke:none"
       id="rect3959"
       width="50.357101"
       height="50.714279"
       x="-997.73254"
       y="-144.31343" />
    <path
       sodipodi:nodetypes="ccccccccccc"
       inkscape:connector-curvature="0"
       id="path3961"
       d="m -1185.403,-1126.8085 0,54.5714 -854.5714,570.00003 0,58.57143 884.5714,0 0,-697.14286 48.2857,-36 0,783.14286 -983.1429,0 0,-147.14286 z"
       style="fill:#000000;fill-opacity:1;stroke:#000000;stroke-width:1px;stroke-linecap:butt;stroke-linejoin:miter;stroke-opacity:1" />
    <rect
       y="-820.10547"
       x="-1030.0575"
       height="50.714279"
       width="50.357101"
       id="rect3963"
       style="fill:#e60000;fill-opacity:1;stroke:none" />
    <rect
       style="fill:#e60000;fill-opacity:1;stroke:none"
       id="rect3965"
       width="50.357101"
       height="50.714279"
       x="-1092.5458"
       y="-680.45135" />
    <rect
       y="-444.737"
       x="-1086.1172"
       height="50.714279"
       width="50.357101"
       id="rect3967"
       style="fill:#e60000;fill-opacity:1;stroke:none" />
    <rect
       style="fill:#e60000;fill-opacity:1;stroke:none"
       id="rect3969"
       width="50.357101"
       height="50.714279"
       x="-2089.6887"
       y="-362.59412" />
    <rect
       transform="matrix(0.96592583,-0.25881905,0.25881905,0.96592583,0,0)"
       y="-1404.0519"
       x="-1939.5066"
       height="50.714279"
       width="50.357101"
       id="rect3971"
       style="fill:#e60000;fill-opacity:1;stroke:none" />
    <rect
       style="fill:#e60000;fill-opacity:1;stroke:none"
       id="rect3973"
       width="50.357101"
       height="50.714279"
       x="-1013.895"
       y="-996.8822" />
    <path
       style="fill:#000000;fill-opacity:1;stroke:#000000;stroke-width:1px;stroke-linecap:butt;stroke-linejoin:miter;stroke-opacity:1"
       d="m -1233.9744,112.90579 0,54.5714 -854.5714,296.00003 0,58.57143 884.5714,0 0,-423.14286 48.2857,-36 0,509.14286 -983.1429,0 0,-147.14286 z"
       id="path3979"
       inkscape:connector-curvature="0"
       sodipodi:nodetypes="ccccccccccc" />
    <rect
       y="3091.4583"
       x="-1642.0688"
       height="50.714279"
       width="50.357101"
       id="rect3930"
       style="fill:#e60000;fill-opacity:1;stroke:none" />
  </g>
  <g
     inkscape:groupmode="layer"
     id="layer6"
     inkscape:label="cercle"
     transform="translate(0,-950)">
    <path
       id="path3924"
       d="m -1603.0751,1437.3995 c -298.6604,1.4232 -480.6435,251.8582 -479.7187,487.1562 1.179,299.9924 253.9652,486.4523 486.8125,484.5625 274.2915,-2.2262 481.9818,-225.7841 487.8437,-484.5625 3.9163,-172.8851 -146.4152,-484.2678 -487.8437,-487.125 -2.3661,-0.02 -4.7421,-0.042 -7.0938,-0.031 z m 10.9688,54.2812 c 165.9804,0.5354 430.1679,141.672 423.25,435.75 -4.2857,182.1845 -144.2679,430 -427.125,430 -120,0 -434.3125,-111.4464 -434.3125,-432.875 0,-180 154.3125,-429.9866 434.3125,-432.8438 1.2946,-0.013 2.568,-0.035 3.875,-0.031 z"
       style="fill:#000000;fill-opacity:1;stroke:#000000;stroke-width:1px;stroke-linecap:butt;stroke-linejoin:miter;stroke-opacity:1"
       inkscape:connector-curvature="0" />
    <path
       id="path3932"
       d="m -1625.2985,2562.7094 c -298.6604,1.4232 -480.6435,251.8583 -479.7187,487.1563 1.1791,299.9924 253.9652,486.4522 486.8125,484.5625 274.2916,-2.2262 481.9818,-225.7841 487.8437,-484.5625 3.9163,-172.8851 -146.4151,-484.2679 -487.8437,-487.125 -2.3661,-0.02 -4.7421,-0.043 -7.0938,-0.031 z m 10.9688,54.2813 c 165.9804,0.5354 430.1679,141.6719 423.25,435.75 -4.2857,182.1845 -144.2679,430 -427.125,430 -120,0 -434.3125,-111.4465 -434.3125,-432.875 0,-180 154.3125,-429.9866 434.3125,-432.8438 1.2946,-0.013 2.5681,-0.036 3.875,-0.031 z"
       style="fill:#000000;fill-opacity:1;stroke:#000000;stroke-width:1px;stroke-linecap:butt;stroke-linejoin:miter;stroke-opacity:1"
       inkscape:connector-curvature="0" />
    <path
       id="path3936"
       d="m -1645.6518,4005.6964 c -298.6604,1.4233 -480.6435,251.8583 -479.7187,487.1563 1.179,299.9924 253.9652,486.4523 486.8125,484.5625 274.2915,-2.2262 481.9818,-225.7841 487.8437,-484.5625 3.9163,-172.8851 -146.4152,-484.2679 -487.8437,-487.125 -2.3661,-0.02 -4.7421,-0.043 -7.0938,-0.031 z m 10.9688,54.2813 c 165.9804,0.5354 430.1679,141.672 423.25,435.75 -4.2857,182.1845 -144.2679,430 -427.125,430 -120,0 -434.3125,-111.4464 -434.3125,-432.875 0,-180 154.3125,-429.9866 434.3125,-432.8438 1.2945,-0.013 2.568,-0.035 3.875,-0.031 z"
       style="fill:#000000;fill-opacity:1;stroke:#000000;stroke-width:1px;stroke-linecap:butt;stroke-linejoin:miter;stroke-opacity:1"
       inkscape:connector-curvature="0" />
  </g>
  <g
     inkscape:groupmode="layer"
     id="layer5"
     inkscape:label="333"
     transform="translate(0,-950)">
    <path
       sodipodi:nodetypes="ccccccc"
       inkscape:connector-curvature="0"
       id="path3926"
       d="m -1619.9947,1954.4173 265.6428,-144.5714 -25.2857,-43 -191.7143,102.5 0,-312.9286 -49.6428,0 c 0.6486,132.6653 -1.4025,265.3503 1,398 z"
       style="fill:#000000;fill-opacity:1;stroke:#000000;stroke-width:1px;stroke-linecap:butt;stroke-linejoin:miter;stroke-opacity:1" />
    <path
       sodipodi:nodetypes="ccccccc"
       inkscape:connector-curvature="0"
       id="path3934"
       d="m -1642.2181,3079.7273 243.4195,205.0021 29.2016,-36.8375 -221.6211,-192.5863 -2.3571,-373.5783 -49.6429,0 c 0.6486,132.6653 -1.4024,265.3502 1,398 z"
       style="fill:#000000;fill-opacity:1;stroke:#000000;stroke-width:1px;stroke-linecap:butt;stroke-linejoin:miter;stroke-opacity:1" />
    <path
       sodipodi:nodetypes="ccccccc"
       inkscape:connector-curvature="0"
       id="path3938"
       d="m -1663.5714,4472.2067 -210.4944,199.4488 37.2829,39.9341 225.2115,-213.297 -2.3572,-373.5783 -49.6428,0 c 0.6486,132.6653 -2.4025,214.8426 0,347.4924 z"
       style="fill:#000000;fill-opacity:1;stroke:#000000;stroke-width:1px;stroke-linecap:butt;stroke-linejoin:miter;stroke-opacity:1" />
    <path
       style="fill:#000000;fill-opacity:1;stroke:none"
       d="m 26.954961,981.42389 c -2.40425,0.007 -4.533971,0.61908 -5.305552,1.14444 -2.653939,-1.52335 -9.191825,-1.23962 -11.9256953,0.54976 0.039323,-0.0211 -3.2452882,3.91804 -3.2452882,3.91804 0,0 32.7314635,0.46019 34.6662805,0.078 -0.004,-0.004 2.513766,-4.29281 2.513766,-4.29281 -1.218476,-1.12719 -7.896066,-1.86286 -11.42388,-0.17735 -1.624604,-0.90778 -3.52518,-1.225 -5.279631,-1.2201 z m -10.314252,0.72947 c 2.91461,-0.0179 5.364015,0.5759 4.70361,0.79684 -1.142318,0.38216 -2.285303,1.91067 -2.513767,2.36927 0,0 0.58022,0.31853 0.610181,0.30621 0.945406,-1.2554 1.54918,-1.78576 2.81768,-2.50759 1.268513,-0.72184 5.19122,-1.64311 9.747648,0 -0.752213,0.57533 -1.751682,1.36102 -1.980145,2.27822 l 0.76096,0 c 0.959263,-1.12491 1.480605,-1.75522 2.665724,-2.27822 3.367859,-1.48629 8.377322,-0.37775 9.011418,0.29083 -0.03906,0.0201 -1.66917,2.90365 -1.66917,2.90365 L 8.2559756,986.1506 10.544756,983.55198 c 1.594188,-1.047 3.969093,-1.38554 6.095953,-1.39862 z m 26.313353,5.43844 c -2.94187,-0.045 -2.875488,4.3135 -6.127771,4.30109 -2.309339,-0.0208 -1.564228,-3.83558 -7.441199,-3.86248 l -22.9443581,-0.10518 -0.084799,0.61123 c 0,0 20.6227944,0.0316 22.6039294,0.0697 6.772662,0.13048 4.443728,3.66764 8.080833,3.71706 4.412657,-0.2877 3.655802,-4.30472 6.381019,-4.18997 -0.06434,-0.0345 -0.325113,-0.53556 -0.325113,-0.53556 -0.04828,-0.002 -0.0959,-0.005 -0.142528,-0.006 z m 0.467641,0.54147 c 0.0053,0.002 0.0094,0.004 0.01204,0 -0.004,-1.9e-4 -0.008,2e-4 -0.01204,0 z m -36.7936748,1.09951 c -0.5004099,0.004 -0.5863997,0.37695 0.094296,0.74957 0.8377082,0.4586 2.741267,3.28587 4.939203,3.133 2.197949,-0.15286 3.285575,-2.44499 4.199442,-2.67428 0.913854,-0.22931 2.360579,1.06995 3.655214,1.06995 1.294635,0 1.827801,-0.76499 3.274741,-0.99429 1.446953,-0.2293 6.473977,-0.68784 10.586359,0.22936 0.639513,0.14263 -1.675777,-1.06995 -2.894253,-1.06995 -1.21849,0 -5.102248,-0.22919 -8.453067,0.45872 -1.508907,0.30976 -1.447729,0.68767 -2.970827,0.61123 -1.523099,-0.0764 -0.989665,-0.99311 -3.198167,-0.99311 -2.208502,0 -1.903358,2.6747 -4.035702,2.75114 -2.1323432,0.0764 -3.6557359,-2.36909 -4.7884229,-3.20986 -0.1552604,-0.043 -0.2932667,-0.0623 -0.408749,-0.0615 z m -0.091888,1.47548 c -0.1045948,-0.002 -0.2614736,0.014 -0.4994469,0.0378 l -3.3501371,4.81538 c 2.4888483,0.43088 39.1929751,0.15293 39.3204151,0.22937 1.26977,-1.07008 2.140435,-4.9679 1.574941,-4.9679 -0.565508,0 -0.793021,3.60082 -2.056733,3.89794 -2.25371,-0.23791 -36.4019518,0.4586 -36.9350243,0 -0.5330858,-0.4586 2.284835,-3.13432 2.208676,-3.59292 -0.052297,-0.31528 -0.032636,-0.41376 -0.2626908,-0.4197 z"
       id="path3043"
       inkscape:connector-curvature="0" />
    <path
       style="fill:#000000;fill-opacity:1;stroke:#000000;stroke-width:0.03776366px;stroke-linecap:butt;stroke-linejoin:miter;stroke-opacity:1"
       d="m 33.529013,980.99795 c 0,0 -0.02367,-6.33842 -0.03812,-7.88234 0.667187,-0.48968 0.426779,-1.03607 -0.01899,-1.38135 -0.0107,-1.34817 -0.01899,-6.70782 -0.01899,-6.70782 0,0 3.965428,-1.64333 4.803122,-1.79619 0.228477,-0.0478 0.200871,-0.6165 0.108875,-0.88962 0.01338,0.0421 -0.324337,-0.20284 -0.324337,-0.20284 l -0.01338,-1.96257 4.330118,0 0,1.98496 -0.349644,0 c 0,0 -0.335746,0.76434 0.04507,1.07007 0.380781,0.30573 5.107758,1.79619 5.107758,1.79619 l 0.0214,6.70782 c -0.687356,0.48426 -0.63752,1.00658 -0.116632,1.38135 0.05618,0.10053 0.475973,19.72281 -0.323655,19.83745 l -2.868065,0 0.459227,-1.03108 1.761513,-10e-4 c 0,0 0,-15.49559 0,-18.85324 -0.520018,-0.12964 -0.93504,-0.72562 0,-1.2926 0,-1.25057 0,-6.21084 0,-6.21084 0,0 -4.18426,-1.83863 -4.442912,-2.0278 -0.258665,-0.18915 -0.27418,-0.64283 -0.213363,-1.23291 0.06086,-0.59008 0.231714,-0.34143 0.569668,-0.4764 l 0,-1.3644 -3.64307,0 0,1.3644 c 0,0.1806 0.367032,-0.10602 0.386078,0.18065 0.07611,0.38217 0.47596,0.95542 -0.09523,1.52866 -0.571165,0.57326 -4.365242,2.0278 -4.365242,2.0278 0,0 0,4.84232 0,6.1285 0.374241,0.46045 0.863509,0.87185 0,1.5886 0,1.55094 0,7.71708 0,7.71708 z"
       id="path3861"
       inkscape:connector-curvature="0"
       sodipodi:nodetypes="cccccccccccccccccccccczcccccccccccc" />
  </g>
  <g
     inkscape:groupmode="layer"
     id="layer4"
     inkscape:label="22"
     transform="translate(0,-950)" />
</svg>
