<?xml version="1.0" encoding="UTF-8" standalone="no"?>
<!-- Created with Inkscape (http://www.inkscape.org/) -->

<svg
   xmlns:dc="http://purl.org/dc/elements/1.1/"
   xmlns:cc="http://creativecommons.org/ns#"
   xmlns:rdf="http://www.w3.org/1999/02/22-rdf-syntax-ns#"
   xmlns:svg="http://www.w3.org/2000/svg"
   xmlns="http://www.w3.org/2000/svg"
   xmlns:sodipodi="http://sodipodi.sourceforge.net/DTD/sodipodi-0.dtd"
   xmlns:inkscape="http://www.inkscape.org/namespaces/inkscape"
   width="200"
   height="200"
   id="svg3051"
   version="1.1"
   inkscape:version="0.48.4 r9939"
   sodipodi:docname="pictocouchage.svg">
  <defs
     id="defs3053" />
  <sodipodi:namedview
     id="base"
     pagecolor="#ffffff"
     bordercolor="#666666"
     borderopacity="1.0"
     inkscape:pageopacity="0.0"
     inkscape:pageshadow="2"
     inkscape:zoom="1.979899"
     inkscape:cx="90.438759"
     inkscape:cy="125.28736"
     inkscape:document-units="px"
     inkscape:current-layer="layer5"
     showgrid="false"
     showguides="true"
     inkscape:guide-bbox="true"
     inkscape:snap-from-guide="false"
     inkscape:window-width="1600"
     inkscape:window-height="876"
     inkscape:window-x="0"
     inkscape:window-y="24"
     inkscape:window-maximized="1"
     objecttolerance="1"
     gridtolerance="1"
     guidetolerance="1">
    <sodipodi:guide
       orientation="1,0"
       position="995.71429,648.57143"
       id="guide3860" />
    <sodipodi:guide
       orientation="1,0"
       position="10.357143,723.92857"
       id="guide3864" />
    <sodipodi:guide
       orientation="1,0"
       position="747.14286,951.42857"
       id="guide3866" />
    <sodipodi:guide
       orientation="1,0"
       position="1100.3571,756.07143"
       id="guide3868" />
    <sodipodi:guide
       orientation="1,0"
       position="-1155.7143,2211.4286"
       id="guide3975" />
    <sodipodi:guide
       orientation="1,0"
       position="-1185.7143,2214.2857"
       id="guide3977" />
    <sodipodi:guide
       orientation="0,1"
       position="688.57143,17.142857"
       id="guide3986" />
    <sodipodi:guide
       orientation="1,0"
       position="692.14286,943.57143"
       id="guide3039" />
    <sodipodi:guide
       orientation="1,0"
       position="874.7921,1303.0968"
       id="guide3857" />
    <sodipodi:guide
       orientation="1,0"
       position="64.649763,239.40615"
       id="guide3888" />
    <sodipodi:guide
       orientation="0,1"
       position="-34.345187,78.791899"
       id="guide3890" />
  </sodipodi:namedview>
  <metadata
     id="metadata3056">
    <rdf:RDF>
      <cc:Work
         rdf:about="">
        <dc:format>image/svg+xml</dc:format>
        <dc:type
           rdf:resource="http://purl.org/dc/dcmitype/StillImage" />
        <dc:title></dc:title>
      </cc:Work>
    </rdf:RDF>
  </metadata>
  <g
     inkscape:label="Calque 1"
     inkscape:groupmode="layer"
     id="layer1"
     transform="translate(0,-852.36218)">
    <path
       sodipodi:nodetypes="ccccccccccc"
       inkscape:connector-curvature="0"
       id="path3903"
       d="m -1167.3624,900.52184 0,50.57143 -868.5714,0 0,130.57143 884.5714,0 0,-181.14286 48.2857,0 0,231.14286 -983.1428,0 0,-231.14286 z"
       style="fill:#000000;fill-opacity:1;stroke:#000000;stroke-width:1px;stroke-linecap:butt;stroke-linejoin:miter;stroke-opacity:1" />
    <rect
       y="784.52185"
       x="-1152.791"
       height="50.714279"
       width="50.357101"
       id="rect3905"
       style="fill:#e60000;fill-opacity:1;stroke:none" />
    <rect
       y="1080.5934"
       x="-1082.0765"
       height="50.714279"
       width="50.357101"
       id="rect3909"
       style="fill:#e60000;fill-opacity:1;stroke:none" />
    <rect
       style="fill:#e60000;fill-opacity:1;stroke:none"
       id="rect3911"
       width="50.357101"
       height="50.714279"
       x="-2085.6479"
       y="1162.7362" />
    <rect
       y="32.463249"
       x="-1013.895"
       height="50.714279"
       width="50.357101"
       id="rect3953"
       style="fill:#e60000;fill-opacity:1;stroke:none" />
    <rect
       style="fill:#e60000;fill-opacity:1;stroke:none"
       id="rect3955"
       width="50.357101"
       height="50.714279"
       x="-1076.3834"
       y="172.11739" />
    <rect
       y="407.83173"
       x="-1069.9547"
       height="50.714279"
       width="50.357101"
       id="rect3957"
       style="fill:#e60000;fill-opacity:1;stroke:none" />
    <rect
       style="fill:#e60000;fill-opacity:1;stroke:none"
       id="rect3959"
       width="50.357101"
       height="50.714279"
       x="-997.73254"
       y="-144.31343" />
    <path
       sodipodi:nodetypes="ccccccccccc"
       inkscape:connector-curvature="0"
       id="path3961"
       d="m -1185.403,-1126.8085 0,54.5714 -854.5714,570.00003 0,58.57143 884.5714,0 0,-697.14286 48.2857,-36 0,783.14286 -983.1429,0 0,-147.14286 z"
       style="fill:#000000;fill-opacity:1;stroke:#000000;stroke-width:1px;stroke-linecap:butt;stroke-linejoin:miter;stroke-opacity:1" />
    <rect
       y="-820.10547"
       x="-1030.0575"
       height="50.714279"
       width="50.357101"
       id="rect3963"
       style="fill:#e60000;fill-opacity:1;stroke:none" />
    <rect
       style="fill:#e60000;fill-opacity:1;stroke:none"
       id="rect3965"
       width="50.357101"
       height="50.714279"
       x="-1092.5458"
       y="-680.45135" />
    <rect
       y="-444.737"
       x="-1086.1172"
       height="50.714279"
       width="50.357101"
       id="rect3967"
       style="fill:#e60000;fill-opacity:1;stroke:none" />
    <rect
       style="fill:#e60000;fill-opacity:1;stroke:none"
       id="rect3969"
       width="50.357101"
       height="50.714279"
       x="-2089.6887"
       y="-362.59412" />
    <rect
       transform="matrix(0.96592583,-0.25881905,0.25881905,0.96592583,0,0)"
       y="-1404.0519"
       x="-1939.5066"
       height="50.714279"
       width="50.357101"
       id="rect3971"
       style="fill:#e60000;fill-opacity:1;stroke:none" />
    <rect
       style="fill:#e60000;fill-opacity:1;stroke:none"
       id="rect3973"
       width="50.357101"
       height="50.714279"
       x="-1013.895"
       y="-996.8822" />
    <path
       style="fill:#000000;fill-opacity:1;stroke:#000000;stroke-width:1px;stroke-linecap:butt;stroke-linejoin:miter;stroke-opacity:1"
       d="m -1233.9744,112.90579 0,54.5714 -854.5714,296.00003 0,58.57143 884.5714,0 0,-423.14286 48.2857,-36 0,509.14286 -983.1429,0 0,-147.14286 z"
       id="path3979"
       inkscape:connector-curvature="0"
       sodipodi:nodetypes="ccccccccccc" />
    <rect
       y="3091.4583"
       x="-1642.0688"
       height="50.714279"
       width="50.357101"
       id="rect3930"
       style="fill:#e60000;fill-opacity:1;stroke:none" />
  </g>
  <g
     inkscape:groupmode="layer"
     id="layer6"
     inkscape:label="cercle"
     transform="translate(0,-800)">
    <path
       id="path3924"
       d="m -1603.0751,1437.3995 c -298.6604,1.4232 -480.6435,251.8582 -479.7187,487.1562 1.179,299.9924 253.9652,486.4523 486.8125,484.5625 274.2915,-2.2262 481.9818,-225.7841 487.8437,-484.5625 3.9163,-172.8851 -146.4152,-484.2678 -487.8437,-487.125 -2.3661,-0.02 -4.7421,-0.042 -7.0938,-0.031 z m 10.9688,54.2812 c 165.9804,0.5354 430.1679,141.672 423.25,435.75 -4.2857,182.1845 -144.2679,430 -427.125,430 -120,0 -434.3125,-111.4464 -434.3125,-432.875 0,-180 154.3125,-429.9866 434.3125,-432.8438 1.2946,-0.013 2.568,-0.035 3.875,-0.031 z"
       style="fill:#000000;fill-opacity:1;stroke:#000000;stroke-width:1px;stroke-linecap:butt;stroke-linejoin:miter;stroke-opacity:1"
       inkscape:connector-curvature="0" />
    <path
       id="path3932"
       d="m -1625.2985,2562.7094 c -298.6604,1.4232 -480.6435,251.8583 -479.7187,487.1563 1.1791,299.9924 253.9652,486.4522 486.8125,484.5625 274.2916,-2.2262 481.9818,-225.7841 487.8437,-484.5625 3.9163,-172.8851 -146.4151,-484.2679 -487.8437,-487.125 -2.3661,-0.02 -4.7421,-0.043 -7.0938,-0.031 z m 10.9688,54.2813 c 165.9804,0.5354 430.1679,141.6719 423.25,435.75 -4.2857,182.1845 -144.2679,430 -427.125,430 -120,0 -434.3125,-111.4465 -434.3125,-432.875 0,-180 154.3125,-429.9866 434.3125,-432.8438 1.2946,-0.013 2.5681,-0.036 3.875,-0.031 z"
       style="fill:#000000;fill-opacity:1;stroke:#000000;stroke-width:1px;stroke-linecap:butt;stroke-linejoin:miter;stroke-opacity:1"
       inkscape:connector-curvature="0" />
    <path
       id="path3936"
       d="m -1645.6518,4005.6964 c -298.6604,1.4233 -480.6435,251.8583 -479.7187,487.1563 1.179,299.9924 253.9652,486.4523 486.8125,484.5625 274.2915,-2.2262 481.9818,-225.7841 487.8437,-484.5625 3.9163,-172.8851 -146.4152,-484.2679 -487.8437,-487.125 -2.3661,-0.02 -4.7421,-0.043 -7.0938,-0.031 z m 10.9688,54.2813 c 165.9804,0.5354 430.1679,141.672 423.25,435.75 -4.2857,182.1845 -144.2679,430 -427.125,430 -120,0 -434.3125,-111.4464 -434.3125,-432.875 0,-180 154.3125,-429.9866 434.3125,-432.8438 1.2945,-0.013 2.568,-0.035 3.875,-0.031 z"
       style="fill:#000000;fill-opacity:1;stroke:#000000;stroke-width:1px;stroke-linecap:butt;stroke-linejoin:miter;stroke-opacity:1"
       inkscape:connector-curvature="0" />
  </g>
  <g
     inkscape:groupmode="layer"
     id="layer5"
     inkscape:label="333"
     transform="translate(0,-800)">
    <path
       sodipodi:nodetypes="ccccccc"
       inkscape:connector-curvature="0"
       id="path3926"
       d="m -1619.9947,1954.4173 265.6428,-144.5714 -25.2857,-43 -191.7143,102.5 0,-312.9286 -49.6428,0 c 0.6486,132.6653 -1.4025,265.3503 1,398 z"
       style="fill:#000000;fill-opacity:1;stroke:#000000;stroke-width:1px;stroke-linecap:butt;stroke-linejoin:miter;stroke-opacity:1" />
    <path
       sodipodi:nodetypes="ccccccc"
       inkscape:connector-curvature="0"
       id="path3934"
       d="m -1642.2181,3079.7273 243.4195,205.0021 29.2016,-36.8375 -221.6211,-192.5863 -2.3571,-373.5783 -49.6429,0 c 0.6486,132.6653 -1.4024,265.3502 1,398 z"
       style="fill:#000000;fill-opacity:1;stroke:#000000;stroke-width:1px;stroke-linecap:butt;stroke-linejoin:miter;stroke-opacity:1" />
    <path
       sodipodi:nodetypes="ccccccc"
       inkscape:connector-curvature="0"
       id="path3938"
       d="m -1663.5714,4472.2067 -210.4944,199.4488 37.2829,39.9341 225.2115,-213.297 -2.3572,-373.5783 -49.6428,0 c 0.6486,132.6653 -2.4025,214.8426 0,347.4924 z"
       style="fill:#000000;fill-opacity:1;stroke:#000000;stroke-width:1px;stroke-linecap:butt;stroke-linejoin:miter;stroke-opacity:1" />
    <path
       style="fill:#000000;fill-opacity:1;stroke:none"
       d="m 473.99349,869.02917 c -10.52998,0.0293 -19.85755,2.70148 -23.23687,4.99407 -11.62356,-6.64756 -40.25774,-5.40945 -52.23135,2.39901 0.17254,-0.0924 -14.21349,17.09746 -14.21349,17.09746 0,0 143.35502,2.0082 151.82897,0.34051 -0.0165,-0.0167 11.00966,-18.73292 11.00966,-18.73292 -5.33662,-4.91878 -34.58268,-8.12908 -50.03355,-0.77387 -7.11533,-3.9614 -15.43933,-5.34564 -23.12337,-5.32426 z m -45.17362,3.1832 c 12.76516,-0.0783 23.49294,2.51315 20.60053,3.47728 -5.00307,1.66769 -10.00903,8.33773 -11.00965,10.33896 0,0 2.54123,1.38998 2.67245,1.33622 4.14061,-5.47824 6.78501,-7.79266 12.34071,-10.94258 5.5557,-3.14992 22.73614,-7.17013 42.69207,0 -3.29449,2.51066 -7.67194,5.93924 -8.67255,9.9417 l 3.33282,0 c 4.20132,-4.90885 6.48464,-7.65939 11.67518,-9.9417 14.75028,-6.4858 36.69037,-1.64839 39.46759,1.26915 -0.17089,0.0874 -7.31053,12.6709 -7.31053,12.6709 l -142.51153,-0.7068 10.02425,-11.33984 c 6.98213,-4.56883 17.38354,-6.04614 26.69866,-6.10329 z m 115.24536,23.73215 c -12.88458,-0.1964 -12.59381,18.82319 -26.83796,18.76902 -10.11426,-0.0907 -6.85091,-16.73759 -32.59042,-16.85497 l -100.49016,-0.45917 -0.37146,2.66729 c 0,0 90.32234,0.13783 98.99916,0.30439 29.66242,0.56938 19.46233,16.00479 35.39184,16.22041 19.32629,-1.25545 16.01148,-18.78484 27.94718,-18.28407 -0.28193,-0.15077 -1.42392,-2.33711 -1.42392,-2.33711 -0.21127,-0.0129 -0.41975,-0.0227 -0.62426,-0.0258 z m 2.04818,2.3629 c 0.0216,0.0115 0.041,0.0142 0.0516,0 -0.0174,-8.5e-4 -0.0342,8.5e-4 -0.0516,0 z M 384.967,903.10543 c -2.19167,0.0159 -2.56827,1.64491 0.41273,3.27091 3.66893,2.00124 12.00596,14.33885 21.63236,13.67178 9.62641,-0.66708 14.38995,-10.66941 18.39242,-11.67002 4.00246,-1.00062 10.33872,4.66904 16.00888,4.66904 5.67015,0 8.00523,-3.33824 14.34247,-4.33886 6.33723,-1.00061 28.35429,-3.00159 46.36538,1.00088 2.80089,0.62242 -7.33944,-4.66904 -12.67605,-4.66904 -5.33662,0 -22.34646,-1.0001 -37.02216,2.00175 -6.60857,1.35176 -6.34063,3.00083 -13.0114,2.66729 -6.67077,-0.33354 -4.3345,-4.33369 -14.00712,-4.33369 -9.67262,0 -8.33621,11.67182 -17.67529,12.00536 -9.33908,0.33354 -16.01112,-10.33819 -20.97199,-14.00712 -0.68001,-0.18761 -1.28446,-0.27194 -1.79023,-0.26828 z m -0.40242,6.43864 c -0.45804,-0.0119 -1.14517,0.0608 -2.18748,0.16509 l -14.67266,21.01327 c 10.90049,1.88025 171.65465,0.66733 172.21282,1.00087 5.56125,-4.66953 9.37454,-21.67879 6.8978,-21.67879 -2.47674,0 -3.47323,15.71319 -9.0079,17.00975 -9.87067,-1.0382 -159.43074,2.00123 -161.76551,0 -2.33477,-2.00123 10.00696,-13.67746 9.67343,-15.67869 -0.22931,-1.37585 -0.1428,-1.80553 -1.1505,-1.8315 z"
       id="path3043"
       inkscape:connector-curvature="0" />
    <path
       style="fill:#000000;fill-opacity:1;stroke:#000000;stroke-width:0.16509317px;stroke-linecap:butt;stroke-linejoin:miter;stroke-opacity:1"
       d="m 502.7861,867.17046 c 0,0 -0.10384,-27.65947 -0.16677,-34.39679 2.92215,-2.13685 1.86923,-4.5212 -0.0834,-6.02786 -0.049,-5.88315 -0.0834,-29.2715 -0.0834,-29.2715 0,0 17.36748,-7.17108 21.0364,-7.83815 1.00062,-0.20847 0.87973,-2.69027 0.47712,-3.88209 0.0559,0.18405 -1.42051,-0.88514 -1.42051,-0.88514 l -0.0572,-8.56426 18.96476,0 0,8.66194 -1.53136,0 c 0,0 -1.47048,3.3354 0.19721,4.66955 1.66769,1.33415 22.37057,7.83815 22.37057,7.83815 l 0.0938,29.2715 c -3.01044,2.1132 -2.79215,4.39247 -0.51075,6.02786 0.24617,0.43849 2.08463,86.06595 -1.41752,86.56625 l -12.56135,0 2.01129,-4.49942 7.71497,-0.007 c 0,0 0,-67.61931 0,-82.27131 -2.27755,-0.56573 -4.09524,-3.16648 0,-5.64062 0,-5.45722 0,-27.10273 0,-27.10273 0,0 -18.32595,-8.02336 -19.4588,-8.84883 -1.13284,-0.82546 -1.20079,-2.8052 -0.93446,-5.38016 0.26633,-2.57497 1.01487,-1.48992 2.49503,-2.0789 l 0,-5.95398 -15.95567,0 0,5.95398 c 0,0.78812 1.6075,-0.46248 1.69089,0.78829 0.33354,1.6677 2.08461,4.16923 -0.41693,6.67077 -2.50153,2.50154 -19.11854,8.84883 -19.11854,8.84883 0,0 0,21.13081 0,26.74342 1.63907,2.00929 3.78193,3.80457 0,6.93225 0,6.76798 0,33.67565 0,33.67565 z"
       id="path3861"
       inkscape:connector-curvature="0"
       sodipodi:nodetypes="cccccccccccccccccccccczcccccccccccc" />
    <path
       style="fill:#000000;fill-opacity:1;stroke:#000000;stroke-width:0.34057364px;stroke-linecap:butt;stroke-linejoin:miter;stroke-opacity:1"
       d="m 492.27093,1009.8906 c -30.28151,0.6796 -85.79015,43.5001 -96.62714,53.3211 14.79336,16.5135 59.86581,55.7296 98.05329,54.3534 38.18747,-1.3761 73.62332,-42.9966 97.36149,-53.6616 -11.009,-9.6329 -67.43077,-53.3248 -97.36149,-54.0129 -0.46767,-0.011 -0.94549,-0.011 -1.42615,0 z m 1.42615,6.5348 c 24.08219,1.7201 46.44627,15.8272 48.51046,47.4781 0,15.1374 -8.94686,44.7155 -48.51046,48.4998 -36.1233,-2.7522 -47.6041,-31.518 -47.83995,-48.4998 -0.34404,-24.7703 20.31744,-46.446 47.83995,-47.4781 z m -38.53804,11.6966 c -6.53659,4.4724 -16.16633,22.3605 -15.13424,35.0897 0.99984,12.3314 7.16538,33.7036 22.563,43.785 -22.17954,-13.4244 -50.97647,-33.3389 -60.05803,-43.0932 7.91272,-7.5687 41.9643,-31.6532 52.62927,-35.7815 z m 79.47073,2.0647 c 9.63288,4.4724 37.50811,26.8327 46.79695,34.0573 -9.97691,3.7844 -27.10281,19.5203 -45.0728,33.025 7.91272,-14.1052 11.00825,-19.9483 10.66422,-33.3655 -0.34403,-13.4172 -4.13162,-23.0518 -12.38837,-33.7168 z m -40.37926,10.2917 c -0.19462,7e-4 -0.38141,0.011 -0.55343,0.021 -16.5135,2.0642 -21.68337,13.7709 -22.37143,23.4038 -0.68807,9.6328 11.3587,20.9879 21.67964,20.9879 16.85753,0 23.26285,-13.6911 23.39315,-20.9879 0.33328,-18.6637 -16.11471,-23.4569 -22.14793,-23.4251 z"
       id="path3894"
       inkscape:connector-curvature="0" />
    <path
       style="fill:#000000;fill-opacity:1;stroke:#000000;stroke-width:0.84497911px;stroke-linecap:butt;stroke-linejoin:miter;stroke-opacity:1"
       d="m 184.58757,647.73518 c -4.44907,-0.0857 -8.94772,3.36148 -8.87228,10.58864 0,10.22943 -0.0264,112.46144 -0.0264,112.46144 l 18.77438,0 0,-21.36213 c 0.18122,-2.97856 2.05788,-5.94178 5.96767,-5.96766 7.68202,0.42677 136.58892,-0.42678 142.56382,0 4.46602,-0.47856 6.64014,2.40699 6.39015,5.96766 l 0,21.36213 18.14065,0 c 0,0 -0.85357,-77.91701 0,-89.01327 0.85356,-11.09624 -16.08101,-12.44142 -16.08101,0 l 0,33.08621 c 0.24691,2.79861 -0.65302,6.194 -6.99748,6.49578 l -144.86111,0 c -3.8669,0.25001 -6.01944,-2.5342 -5.96767,-6.49578 -0.85355,-6.82846 -0.42248,-56.53438 -0.42248,-56.53438 0.25,-6.88467 -4.15916,-10.50302 -8.60823,-10.58864 z m 30.34003,13.65169 c -11.06282,0.34489 -16.86092,10.40004 -16.71474,19.17047 0.15089,9.05334 8.74779,16.29602 18.4047,15.84335 6.93329,-0.32499 16.60912,-6.80132 16.60912,-16.60912 0,-9.80779 -9.21933,-18.10292 -17.21645,-18.4047 -0.36779,-0.009 -0.72576,-0.0112 -1.08263,0 z m 97.6479,11.85612 c -23.12847,0.0848 -57.93388,0.5017 -57.93388,0.5017 l 0,42.11693 89.33014,0 0,-28.22758 c 0,-4.97934 -0.30933,-14.03647 -13.88935,-14.33824 -3.39501,-0.0755 -9.79742,-0.0811 -17.50691,-0.0528 z m -68.46972,1.9012 c -3.94197,0.0755 -7.95185,2.6896 -8.0273,7.36716 l 0,12.96515 c -0.15089,2.56511 -1.65223,4.09287 -5.12268,4.09287 0,0 -19.54014,-0.75445 -22.70882,0 -14.03268,3.92312 -9.6569,16.13759 0,15.68492 9.65691,-0.45268 27.52973,0.1509 33.11262,0 5.5829,-0.15089 10.27932,-4.37201 10.43021,-7.84246 0.15089,-3.47045 0,-24.45159 0,-24.45159 0.15089,-5.432 -3.74205,-7.8915 -7.68403,-7.81605 z"
       id="path3937"
       inkscape:connector-curvature="0" />
    <path
       style="fill:#ffff00;fill-opacity:1;stroke:none"
       d="m 3.5964495,839.38574 193.3426905,0 0,29.7995 -193.5921495,0 z"
       id="path3984"
       inkscape:connector-curvature="0"
       sodipodi:nodetypes="ccccc" />
    <path
       inkscape:connector-curvature="0"
       id="path3986"
       d="m 3.5964495,877.38575 193.3426905,0 0,29.7995 -193.5921495,0 z"
       style="fill:#ffffff;fill-opacity:1;stroke:#000000;stroke-width:1px;stroke-linecap:butt;stroke-linejoin:miter;stroke-opacity:1"
       sodipodi:nodetypes="ccccc" />
  </g>
  <g
     inkscape:groupmode="layer"
     id="layer4"
     inkscape:label="22"
     transform="translate(0,-800)" />
</svg>
