<?xml version="1.0" encoding="UTF-8" standalone="no"?>
<!-- Created with Inkscape (http://www.inkscape.org/) -->

<svg
   xmlns:dc="http://purl.org/dc/elements/1.1/"
   xmlns:cc="http://creativecommons.org/ns#"
   xmlns:rdf="http://www.w3.org/1999/02/22-rdf-syntax-ns#"
   xmlns:svg="http://www.w3.org/2000/svg"
   xmlns="http://www.w3.org/2000/svg"
   xmlns:sodipodi="http://sodipodi.sourceforge.net/DTD/sodipodi-0.dtd"
   xmlns:inkscape="http://www.inkscape.org/namespaces/inkscape"
   id="svg2"
   version="1.1"
   inkscape:version="0.48.4 r9939"
   width="200"
   height="200"
   sodipodi:docname="pictofleur.svg">
  <metadata
     id="metadata8">
    <rdf:RDF>
      <cc:Work
         rdf:about="">
        <dc:format>image/svg+xml</dc:format>
        <dc:type
           rdf:resource="http://purl.org/dc/dcmitype/StillImage" />
        <dc:title></dc:title>
      </cc:Work>
    </rdf:RDF>
  </metadata>
  <defs
     id="defs6" />
  <sodipodi:namedview
     pagecolor="#ffffff"
     bordercolor="#666666"
     borderopacity="1"
     objecttolerance="10"
     gridtolerance="10"
     guidetolerance="10"
     inkscape:pageopacity="0"
     inkscape:pageshadow="2"
     inkscape:window-width="1479"
     inkscape:window-height="810"
     id="namedview4"
     showgrid="false"
     showguides="true"
     inkscape:guide-bbox="true"
     inkscape:zoom="2.38396"
     inkscape:cx="120.29247"
     inkscape:cy="111.18242"
     inkscape:window-x="0"
     inkscape:window-y="24"
     inkscape:window-maximized="0"
     inkscape:current-layer="svg2" />
  <path
     style="fill:#000000;fill-opacity:1;stroke:#000000;stroke-width:0.58480972px;stroke-linecap:butt;stroke-linejoin:miter;stroke-opacity:1"
     d="m 452.48243,-5.5683601 c -0.43114,-0.023818 -0.93206,0.2276543 -1.20616,0.8223891 -0.73097,1.5859568 -2.95235,3.3247656 -4.34953,4.75157901 -1.39717,1.42681299 0.44508,3.15297099 2.15649,1.58995099 1.7114,-1.56301899 3.03254,-3.7433797 3.80126,-4.897781 0.69016,-1.1203503 0.47951,-1.8790891 0,-2.1564858 -0.11988,-0.069352 -0.25834,-0.1017118 -0.40206,-0.1096523 z m -12.81099,1.4254737 c -0.529,0.026383 -1.17924,0.3824251 -1.8458,1.2244453 -1.0732,1.4588406 -3.15939,4.0551761 -4.31297,6.8532391 -1.15359,2.79806 1.79725,4.288833 2.92405,1.937182 1.12678,-2.351652 2.23648,-5.86935299 3.85608,-7.4745989 1.11348,-1.1036058 0.54246,-2.5983069 -0.62136,-2.5402675 z m 27.41296,1.5168507 c -0.11292,-0.00904 -0.21972,-8.819e-4 -0.32895,0.018277 -0.87392,0.1533187 -1.57415,1.1727862 -1.20618,2.52199151 0.73594,2.69841219 -0.24812,7.11823819 -0.49343,10.30727119 -0.001,0.01286 5.8e-4,0.02379 0,0.03655 1.49712,-0.746833 2.97494,-1.432289 4.4409,-2.06511 0.14778,-3.14401 -0.30554,-6.295248 -0.51171,-8.15078499 -0.26831,-1.82449091 -1.11019,-2.60494561 -1.90063,-2.66819031 z m 2.41234,10.8189797 c -0.0281,0.596858 -0.0679,1.185613 -0.14621,1.772704 -0.48864,3.664816 -4.50466,3.444919 -4.29469,0.292405 -2.46389,1.229103 -4.95554,2.595022 -7.4015,4.038842 0.1234,1.177693 0.28666,2.370582 0.42033,3.490583 9.81058,-5.432748 23.10291,-11.259876 26.77332,-10.142793 -0.2453,6.868685 -2.69561,7.854185 -5.88464,16.685352 4.9062,0.735931 36.55418,-20.116851 57.89616,-3.435758 -17.66233,0.49062 -27.97042,12.25715 -50.29364,30.410106 7.84993,-0.490621 29.93915,31.158741 21.10798,48.575752 -2.20779,-5.15151 -29.69107,-38.028092 -39.74879,-37.537472 -10.05772,0.49062 -29.18922,28.458902 -50.53121,45.140005 -1.71717,-2.69841 -5.15221,-23.548485 4.6602,-47.588894 -7.84992,-4.906201 -26.49149,-1.963134 -39.49293,17.416366 1.71717,-7.359307 11.28367,-29.923006 42.92869,-32.621417 -5.39683,-1.717173 -15.4602,-17.659584 -13.74303,-25.018891 5.88745,-1.962481 27.48678,7.108386 35.58202,5.391215 0.88459,-1.137339 3.44772,-2.959927 6.83496,-5.007433 -0.0952,-0.267014 -0.17543,-0.548108 -0.2193,-0.877215 -0.1099,-0.82425 -0.14882,-1.667355 -0.16448,-2.503716 -2.68788,1.702853 -5.269,3.452066 -7.67563,5.190186 -0.7012,0.01921 -1.37994,0.0256 -2.04683,0.01828 -0.49866,1.936415 -3.02201,2.022166 -3.92919,-0.182752 -13.54692,-1.210867 -19.77997,-7.456575 -30.57459,-4.002297 -3.92496,3.434342 4.41702,22.088524 9.81384,25.768178 -21.09667,4.415582 -41.47439,15.947371 -41.22908,43.42212 18.39826,-23.795095 31.41105,-27.487462 40.24222,-24.543735 -9.07648,13.001448 -7.85837,49.074825 -1.4803,50.056065 8.58585,0.24531 42.1991,-47.601547 52.01151,-46.620307 12.51081,1.47186 33.36018,36.303907 39.49293,39.492937 13.98268,-17.662343 -4.65179,-51.263646 -15.93606,-54.697987 25.75756,-17.171714 22.56232,-23.556175 48.3199,-28.217069 -18.64358,-24.2857102 -44.89964,-4.405747 -57.16515,-1.462025 2.4531,-4.170273 6.13698,-13.746547 3.92919,-15.95434 -4.4114,-1.393074 -10.97136,0.19472 -18.056,3.253005 z m -29.36841,13.505449 c 1.2432,0.11112 2.55364,0.167643 3.92919,0.182753 0.0743,-0.28852 0.10146,-0.618108 0.0731,-0.986867 -0.24531,-3.189032 -1.22937,-7.608858 -0.49344,-10.307271 0.73593,-2.698412 -2.82247,-4.042346 -3.43575,0.127928 -0.24531,2.207791 -0.85613,6.243837 -0.36551,9.923489 0.0532,0.398464 0.16582,0.752309 0.29241,1.059968 z m 13.65165,-5.025708 c 1.2725,-0.806166 2.56895,-1.605218 3.87436,-2.37579 -0.20085,-1.917071 -0.29114,-3.787595 0.0914,-5.190186 0.73593,-2.698412 -2.82249,-4.042346 -3.43576,0.127927 -0.19036,1.713242 -0.58424,4.540688 -0.52999,7.438049 z m 0.38378,3.380931 c 0.96892,2.718394 4.29876,2.264171 4.07539,-0.639636 -0.0395,-0.513124 -0.0971,-1.062129 -0.16448,-1.626502 -1.38576,0.767385 -2.70251,1.535691 -3.91091,2.266138 z M 429.3459,2.911381 c -0.7892,0.06079 -1.63233,0.825424 -1.90063,2.649919 -0.24531,2.207791 -0.85613,6.243837 -0.36551,9.92349 0.49062,3.679653 4.54001,3.444887 4.2947,0.255854 -0.24531,-3.189033 -1.22937,-7.608859 -0.49344,-10.307271 0.41396,-1.517856 -0.52043,-2.600149 -1.53512,-2.521992 z m 32.74934,15.077125 c -0.90282,0.006 -2.91024,1.911817 -2.9606,3.655061 -0.69384,6.5915 -1.20094,12.967825 -1.58995,21.583134 -0.8183,-4.754098 -1.38861,-14.422003 -1.04169,-17.544292 0.34692,-3.122289 -1.12437,-2.751333 -1.38893,-0.694462 -0.69383,4.509974 1.3428,11.006389 1.07825,17.781871 -0.57119,-2.055685 -3.90629,-15.670339 -3.41748,-18.202202 0.12085,-1.61195 -1.35083,-1.291468 -1.1879,-0.09138 -0.0448,2.15173 1.0067,9.837999 2.74129,16.429498 -1.20912,-1.810375 -5.11676,-12.101039 -4.76984,-15.223328 -0.63432,-0.914497 -1.66275,-0.364267 -1.31582,1.023417 0.34691,1.387684 3.40013,10.218993 4.44089,13.688202 -1.47367,-2.050267 -4.16832,-6.728409 -5.90292,-10.197619 -1.73461,-3.46921 -5.53525,-2.429376 -3.1068,-1.041692 2.42844,1.387683 6.57973,9.011583 7.27357,11.093109 0.69384,2.081526 -12.1379,-13.177732 -15.60711,-14.565417 5.20382,7.979184 14.99851,13.693088 20.01146,23.593417 0.60264,-2.004447 0.31468,-2.117058 0.10965,-3.746437 1.75745,0.885045 1.87943,0.250293 2.99715,2.924048 0.19781,-8.30387 0.97076,-23.122595 3.3992,-27.979489 0.91067,-1.821335 0.77927,-2.48904 0.23758,-2.485442 z m 36.0389,32.329013 c 5.89765,4.509976 12.83205,15.600291 15.95434,28.436374 1.30547,5.366924 3.96873,3.317316 13.28615,12.098244 1.18396,-0.78185 2.4286,-1.547287 3.72815,-2.302681 -10.40126,-12.995378 -22.36997,-23.914867 -20.13938,-24.360982 3.33796,-0.667589 9.93724,0.96613 29.58772,19.627673 0.36295,-0.156885 0.72661,-0.320434 1.09651,-0.475158 -5.59563,-9.504856 -25.55611,-24.832385 -43.51349,-33.02347 z m 43.51349,33.02347 c 0.56623,0.961802 0.9877,1.875888 1.24273,2.704748 -0.81379,-0.787538 -1.56654,-1.495766 -2.33924,-2.22959 -3.45174,1.49204 -6.59501,3.074743 -9.44834,4.733309 1.83428,2.291741 3.61328,4.642791 5.2633,7.017711 8.73867,-6.111253 15.60325,-12.977214 18.64924,-12.864394 -6.40584,3.781767 -10.95423,11.602264 -16.43793,16.172224 2.54004,4.017193 4.57423,8.024863 5.70189,11.805853 -2.87619,-3.89132 -5.45951,-7.18455 -7.80355,-9.99659 -10.93793,9.43908 -24.97474,25.03503 -30.03193,31.83064 3.14968,-12.11417 17.85525,-27.8935 27.27236,-35.028823 -2.39993,-2.71888 -4.50184,-4.90016 -6.34153,-6.63394 C 500.22964,108.77785 502.75779,132.995 502.75779,132.995 496.37973,116.3139 476.76466,80.506892 469.40536,70.694485 c -1.1039,-0.61328 -2.08552,-0.836562 -2.90577,-0.767563 -2.46077,0.206982 2.4053,8.36094 3.87716,10.568734 2.4531,4.41558 18.22893,30.720824 20.19141,38.080124 -24.0404,-1.47186 -62.86281,24.2289 -58.93785,52.19426 58.91248,-19.41519 35.75464,-41.52747 61.88018,-49.74537 0,0 14.64276,31.10183 28.38013,62.99216 2.33729,5.42585 1.96954,-1.96248 7.36636,-0.49062 -8.34054,-14.228 -23.79373,-46.71906 -23.79373,-46.71906 36.30591,-9.32179 36.05511,-32.26266 58.13302,-60.228017 -8.42944,1.837997 -15.68467,4.141892 -21.94864,6.761856 z m -7.93147,14.145088 c 0.87796,0.99465 1.79916,2.04602 2.75957,3.198183 0.6986,-0.60287 1.38448,-1.211583 2.10166,-1.809263 -0.69662,-1.10173 -1.44823,-2.20949 -2.21131,-3.30783 -0.87948,0.61506 -1.76731,1.25016 -2.64992,1.91891 z m -124.39999,-6.92634 c -6.24458,5.89766 -7.96649,16.651593 -6.23188,19.773883 2.42844,-9.71378 3.80374,-11.790053 6.57911,-14.565423 2.77536,-2.77537 -0.34723,-5.20846 -0.34723,-5.20846 z m 9.028,22.021743 c -0.79616,-0.0508 -1.73616,1.57168 -1.73616,1.57168 0.34692,7.97918 0.51021,14.05395 -6.25015,25.31129 9.01995,-8.3261 9.37492,-19.06579 9.028,-24.2696 -0.1301,-1.95144 -0.564,-2.58288 -1.04169,-2.61337 z m 68.31308,9.19248 c -25.26695,12.51081 -39.83105,31.09826 -49.39815,41.15598 3.92497,-6.86869 24.37651,-36.49509 49.39815,-41.15598 z"
     id="path2987"
     inkscape:connector-curvature="0"
     sodipodi:nodetypes="sssscssscsssssssccccscsccccccccscccccccsccccccccccccccccccsscscccscccsccscsssssccsccccccscsssccccsscsccscccccccccccccccccsccccscccccccccccscsccssccc" />
  <path
     style="fill:#000000;fill-opacity:1;stroke:#000000;stroke-width:1.1210295px;stroke-linecap:butt;stroke-linejoin:miter;stroke-opacity:1"
     d="M 135.34375,63.9375 89.75,127.40625 l -29.15625,-31.5 -58.3125,58.3125 182.65625,0 -4.59375,-6.125 -162.53125,0 42.78125,-40.90625 29.15625,30.09375 30.09375,-43.71875 2.34375,13.625 8,-10.8125 6.59375,20.6875 3.28125,-22.09375 4.6875,10.34375 4.25,-9.40625 42.125,58.28125 7.0625,0 z m -0.6875,8.21875 12.0625,20.15625 -2,4.71875 -5.96875,-9.65625 -3.15625,16.34375 -3.875,-15.9375 -7.125,10.0625 -1.375,-8.59375 z"
     id="path3868"
     inkscape:connector-curvature="0"
     sodipodi:nodetypes="cccccccccccccccccccccccccccc" />
</svg>
