<?xml version="1.0" encoding="UTF-8" standalone="no"?>
<!-- Created with Inkscape (http://www.inkscape.org/) -->

<svg
   xmlns:dc="http://purl.org/dc/elements/1.1/"
   xmlns:cc="http://creativecommons.org/ns#"
   xmlns:rdf="http://www.w3.org/1999/02/22-rdf-syntax-ns#"
   xmlns:svg="http://www.w3.org/2000/svg"
   xmlns="http://www.w3.org/2000/svg"
   xmlns:sodipodi="http://sodipodi.sourceforge.net/DTD/sodipodi-0.dtd"
   xmlns:inkscape="http://www.inkscape.org/namespaces/inkscape"
   id="svg2"
   version="1.1"
   inkscape:version="0.91 r"
   width="50"
   height="50"
   sodipodi:docname="pictoaltitude.svg">
  <metadata
     id="metadata8">
    <rdf:RDF>
      <cc:Work
         rdf:about="">
        <dc:format>image/svg+xml</dc:format>
        <dc:type
           rdf:resource="http://purl.org/dc/dcmitype/StillImage" />
        <dc:title></dc:title>
      </cc:Work>
    </rdf:RDF>
  </metadata>
  <defs
     id="defs6" />
  <sodipodi:namedview
     pagecolor="#ffffff"
     bordercolor="#666666"
     borderopacity="1"
     objecttolerance="10"
     gridtolerance="10"
     guidetolerance="10"
     inkscape:pageopacity="0"
     inkscape:pageshadow="2"
     inkscape:window-width="1479"
     inkscape:window-height="810"
     id="namedview4"
     showgrid="false"
     showguides="true"
     inkscape:guide-bbox="true"
     inkscape:zoom="4.5632812"
     inkscape:cx="49.898012"
     inkscape:cy="71.583088"
     inkscape:window-x="75"
     inkscape:window-y="34"
     inkscape:window-maximized="0"
     inkscape:current-layer="svg2" />
  <path
     style="fill:#000000;fill-opacity:1;stroke:#000000;stroke-width:0.58480972px;stroke-linecap:butt;stroke-linejoin:miter;stroke-opacity:1"
     d="m 452.48243,-155.56836 c -0.43114,-0.0238 -0.93206,0.22765 -1.20616,0.82239 -0.73097,1.58596 -2.95235,3.32476 -4.34953,4.75158 -1.39717,1.42681 0.44508,3.15297 2.15649,1.58995 1.7114,-1.56302 3.03254,-3.74338 3.80126,-4.89778 0.69016,-1.12035 0.47951,-1.87909 0,-2.15649 -0.11988,-0.0694 -0.25834,-0.10171 -0.40206,-0.10965 z m -12.81099,1.42547 c -0.529,0.0264 -1.17924,0.38243 -1.8458,1.22445 -1.0732,1.45884 -3.15939,4.05518 -4.31297,6.85324 -1.15359,2.79806 1.79725,4.28883 2.92405,1.93718 1.12678,-2.35165 2.23648,-5.86935 3.85608,-7.4746 1.11348,-1.1036 0.54246,-2.59831 -0.62136,-2.54027 z m 27.41296,1.51685 c -0.11292,-0.009 -0.21972,-8.8e-4 -0.32895,0.0183 -0.87392,0.15332 -1.57415,1.17279 -1.20618,2.52199 0.73594,2.69841 -0.24812,7.11824 -0.49343,10.30727 -10e-4,0.0129 5.8e-4,0.0238 0,0.0366 1.49712,-0.74683 2.97494,-1.43228 4.4409,-2.06511 0.14778,-3.14401 -0.30554,-6.29524 -0.51171,-8.15078 -0.26831,-1.82449 -1.11019,-2.60495 -1.90063,-2.66819 z m 2.41234,10.81898 c -0.0281,0.59686 -0.0679,1.18562 -0.14621,1.77271 -0.48864,3.66481 -4.50466,3.44492 -4.29469,0.2924 -2.46389,1.22911 -4.95554,2.59503 -7.4015,4.03885 0.1234,1.17769 0.28666,2.37058 0.42033,3.49058 9.81058,-5.43275 23.10291,-11.25988 26.77332,-10.14279 -0.2453,6.86868 -2.69561,7.85418 -5.88464,16.68535 4.9062,0.73593 36.55418,-20.11685 57.89616,-3.43576 -17.66233,0.49062 -27.97042,12.25715 -50.29364,30.410105 7.84993,-0.490621 29.93915,31.158741 21.10798,48.575752 -2.20779,-5.15151 -29.69107,-38.028092 -39.74879,-37.537472 -10.05772,0.49062 -29.18922,28.458902 -50.53121,45.140005 -1.71717,-2.69841 -5.15221,-23.548485 4.6602,-47.588894 -7.84992,-4.906201 -26.49149,-1.963134 -39.49293,17.416366 1.71717,-7.359307 11.28367,-29.923002 42.92869,-32.621412 -5.39683,-1.71718 -15.4602,-17.65959 -13.74303,-25.0189 5.88745,-1.96248 27.48678,7.10839 35.58202,5.39122 0.88459,-1.13734 3.44772,-2.95993 6.83496,-5.00743 -0.0952,-0.26702 -0.17543,-0.54811 -0.2193,-0.87722 -0.1099,-0.82425 -0.14882,-1.66735 -0.16448,-2.50371 -2.68788,1.70285 -5.269,3.45206 -7.67563,5.19018 -0.7012,0.0192 -1.37994,0.0256 -2.04683,0.0183 -0.49866,1.93642 -3.02201,2.02217 -3.92919,-0.18275 -13.54692,-1.21087 -19.77997,-7.45658 -30.57459,-4.0023 -3.92496,3.43434 4.41702,22.08853 9.81384,25.76818 -21.09667,4.41558 -41.47439,15.947371 -41.22908,43.42212 18.39826,-23.795095 31.41105,-27.487462 40.24222,-24.543735 -9.07648,13.001448 -7.85837,49.074825 -1.4803,50.056065 8.58585,0.24531 42.1991,-47.601547 52.01151,-46.620307 12.51081,1.47186 33.36018,36.303907 39.49293,39.492937 13.98268,-17.662343 -4.65179,-51.263646 -15.93606,-54.697987 25.75756,-17.171713 22.56232,-23.556173 48.3199,-28.217073 -18.64358,-24.28571 -44.89964,-4.40574 -57.16515,-1.46202 2.4531,-4.17027 6.13698,-13.74655 3.92919,-15.95434 -4.4114,-1.39307 -10.97136,0.19472 -18.056,3.253 z m -29.36841,13.50545 c 1.2432,0.11112 2.55364,0.16765 3.92919,0.18276 0.0743,-0.28852 0.10146,-0.61811 0.0731,-0.98687 -0.24531,-3.18903 -1.22937,-7.60886 -0.49344,-10.30727 0.73593,-2.69841 -2.82247,-4.04235 -3.43575,0.12793 -0.24531,2.20779 -0.85613,6.24383 -0.36551,9.92349 0.0532,0.39846 0.16582,0.7523 0.29241,1.05996 z m 13.65165,-5.0257 c 1.2725,-0.80617 2.56895,-1.60522 3.87436,-2.37579 -0.20085,-1.91708 -0.29114,-3.7876 0.0914,-5.19019 0.73593,-2.69841 -2.82249,-4.04235 -3.43576,0.12793 -0.19036,1.71324 -0.58424,4.54068 -0.52999,7.43805 z m 0.38378,3.38093 c 0.96892,2.71839 4.29876,2.26417 4.07539,-0.63964 -0.0395,-0.51312 -0.0971,-1.06213 -0.16448,-1.6265 -1.38576,0.76738 -2.70251,1.53569 -3.91091,2.26614 z m -24.81786,-17.14224 c -0.7892,0.0608 -1.63233,0.82543 -1.90063,2.64992 -0.24531,2.20779 -0.85613,6.24384 -0.36551,9.92349 0.49062,3.67965 4.54001,3.44489 4.2947,0.25585 -0.24531,-3.18903 -1.22937,-7.60885 -0.49344,-10.30727 0.41396,-1.51785 -0.52043,-2.60015 -1.53512,-2.52199 z m 32.74934,15.07713 c -0.90282,0.006 -2.91024,1.91181 -2.9606,3.65506 -0.69384,6.5915 -1.20094,12.96782 -1.58995,21.58313 -0.8183,-4.7541 -1.38861,-14.422 -1.04169,-17.54429 0.34692,-3.12229 -1.12437,-2.75133 -1.38893,-0.69446 -0.69383,4.50997 1.3428,11.00639 1.07825,17.78187 -0.57119,-2.05569 -3.90629,-15.67034 -3.41748,-18.2022 0.12085,-1.61195 -1.35083,-1.29147 -1.1879,-0.0914 -0.0448,2.15173 1.0067,9.83799 2.74129,16.42949 -1.20912,-1.81037 -5.11676,-12.10104 -4.76984,-15.22332 -0.63432,-0.9145 -1.66275,-0.36427 -1.31582,1.02341 0.34691,1.38769 3.40013,10.219 4.44089,13.6882 -1.47367,-2.05026 -4.16832,-6.7284 -5.90292,-10.19761 -1.73461,-3.46921 -5.53525,-2.42938 -3.1068,-1.0417 2.42844,1.38769 6.57973,9.01159 7.27357,11.09311 0.69384,2.08153 -12.1379,-13.17773 -15.60711,-14.56541 5.20382,7.97918 14.99851,13.69308 20.01146,23.59341 0.60264,-2.00444 0.31468,-2.11706 0.10965,-3.74643 1.75745,0.88504 1.87943,0.25029 2.99715,2.92404 0.19781,-8.30387 0.97076,-23.12259 3.3992,-27.97949 0.91067,-1.82133 0.77927,-2.48903 0.23758,-2.48544 z m 36.0389,32.329009 c 5.89765,4.509976 12.83205,15.600291 15.95434,28.436374 1.30547,5.366924 3.96873,3.317316 13.28615,12.098244 1.18396,-0.78185 2.4286,-1.547287 3.72815,-2.302681 -10.40126,-12.995378 -22.36997,-23.914867 -20.13938,-24.360982 3.33796,-0.667589 9.93724,0.96613 29.58772,19.627673 0.36295,-0.156885 0.72661,-0.320434 1.09651,-0.475158 -5.59563,-9.504856 -25.55611,-24.832385 -43.51349,-33.02347 z m 43.51349,33.02347 c 0.56623,0.961802 0.9877,1.875888 1.24273,2.704748 -0.81379,-0.787538 -1.56654,-1.495766 -2.33924,-2.22959 -3.45174,1.49204 -6.59501,3.074743 -9.44834,4.733309 1.83428,2.291741 3.61328,4.642791 5.2633,7.017711 8.73867,-6.111253 15.60325,-12.977214 18.64924,-12.864394 -6.40584,3.781767 -10.95423,11.602264 -16.43793,16.172224 2.54004,4.017193 4.57423,8.024863 5.70189,11.805853 -2.87619,-3.89132 -5.45951,-7.18455 -7.80355,-9.99659 -10.93793,9.43908 -24.97474,25.03503 -30.03193,31.83064 3.14968,-12.11417 17.85525,-27.8935 27.27236,-35.028823 -2.39993,-2.71888 -4.50184,-4.90016 -6.34153,-6.63394 -27.14499,17.925713 -24.61684,42.142863 -24.61684,42.142863 -6.37806,-16.6811 -25.99313,-52.488108 -33.35243,-62.300515 -1.1039,-0.61328 -2.08552,-0.836562 -2.90577,-0.767563 -2.46077,0.206982 2.4053,8.36094 3.87716,10.568734 2.4531,4.41558 18.22893,30.720824 20.19141,38.080124 -24.0404,-1.47186 -62.86281,24.2289 -58.93785,52.19426 58.91248,-19.41519 35.75464,-41.52747 61.88018,-49.74537 0,0 14.64276,31.10183 28.38013,62.99216 2.33729,5.42585 1.96954,-1.96248 7.36636,-0.49062 -8.34054,-14.228 -23.79373,-46.71906 -23.79373,-46.71906 36.30591,-9.32179 36.05511,-32.26266 58.13302,-60.228017 -8.42944,1.837997 -15.68467,4.141892 -21.94864,6.761856 z m -7.93147,14.145088 c 0.87796,0.99465 1.79916,2.04602 2.75957,3.198183 0.6986,-0.60287 1.38448,-1.211583 2.10166,-1.809263 -0.69662,-1.10173 -1.44823,-2.20949 -2.21131,-3.30783 -0.87948,0.61506 -1.76731,1.25016 -2.64992,1.91891 z m -124.39999,-6.92634 c -6.24458,5.89766 -7.96649,16.651593 -6.23188,19.773883 2.42844,-9.71378 3.80374,-11.790053 6.57911,-14.565423 2.77536,-2.77537 -0.34723,-5.20846 -0.34723,-5.20846 z m 9.028,22.021743 c -0.79616,-0.0508 -1.73616,1.57168 -1.73616,1.57168 0.34692,7.97918 0.51021,14.05395 -6.25015,25.31129 9.01995,-8.3261 9.37492,-19.06579 9.028,-24.2696 -0.1301,-1.95144 -0.564,-2.58288 -1.04169,-2.61337 z m 68.31308,9.19248 C 461.3903,-15.71523 446.8262,2.87222 437.2591,12.92994 c 3.92497,-6.86869 24.37651,-36.49509 49.39815,-41.15598 z"
     id="path2987"
     inkscape:connector-curvature="0"
     sodipodi:nodetypes="sssscssscsssssssccccscsccccccccscccccccsccccccccccccccccccsscscccscccsccscsssssccsccccccscsssccccsscsccscccccccccccccccccsccccscccccccccccscsccssccc" />
  <path
     style="fill:#000000;fill-opacity:1;stroke:#000000;stroke-width:0.32838622px;stroke-linecap:butt;stroke-linejoin:miter;stroke-opacity:1"
     d="M 33.521641,8.7968775 22.40765,31.139336 15.300485,20.050613 1.0861553,40.577952 l 44.5245217,0 -1.119778,-2.156141 -39.6188263,0 10.4284123,-14.399939 7.107165,10.593691 7.335691,-15.390004 0.571315,4.796313 1.950091,-3.806249 1.607301,7.282476 0.799841,-7.777508 1.142631,3.641238 1.035986,-3.311216 10.268444,20.516338 1.721564,0 z m -0.167586,2.8931895 2.94037,7.095463 -0.487522,1.661109 -1.45495,-3.399222 -0.769372,5.753375 -0.944575,-5.610366 -1.736799,3.542231 -0.335172,-3.025197 z"
     id="path3868"
     inkscape:connector-curvature="0"
     sodipodi:nodetypes="cccccccccccccccccccccccccccc" />
</svg>
