<?xml version="1.0" encoding="UTF-8" standalone="no"?>
<!-- Created with Inkscape (http://www.inkscape.org/) -->

<svg
   xmlns:dc="http://purl.org/dc/elements/1.1/"
   xmlns:cc="http://creativecommons.org/ns#"
   xmlns:rdf="http://www.w3.org/1999/02/22-rdf-syntax-ns#"
   xmlns:svg="http://www.w3.org/2000/svg"
   xmlns="http://www.w3.org/2000/svg"
   xmlns:sodipodi="http://sodipodi.sourceforge.net/DTD/sodipodi-0.dtd"
   xmlns:inkscape="http://www.inkscape.org/namespaces/inkscape"
   id="svg2"
   version="1.1"
   inkscape:version="0.48.4 r9939"
   width="200"
   height="200"
   sodipodi:docname="pictofleur.svg">
  <metadata
     id="metadata8">
    <rdf:RDF>
      <cc:Work
         rdf:about="">
        <dc:format>image/svg+xml</dc:format>
        <dc:type
           rdf:resource="http://purl.org/dc/dcmitype/StillImage" />
        <dc:title></dc:title>
      </cc:Work>
    </rdf:RDF>
  </metadata>
  <defs
     id="defs6" />
  <sodipodi:namedview
     pagecolor="#ffffff"
     bordercolor="#666666"
     borderopacity="1"
     objecttolerance="10"
     gridtolerance="10"
     guidetolerance="10"
     inkscape:pageopacity="0"
     inkscape:pageshadow="2"
     inkscape:window-width="1479"
     inkscape:window-height="810"
     id="namedview4"
     showgrid="false"
     showguides="true"
     inkscape:guide-bbox="true"
     inkscape:zoom="1.19198"
     inkscape:cx="200.71713"
     inkscape:cy="28.305941"
     inkscape:window-x="0"
     inkscape:window-y="24"
     inkscape:window-maximized="0"
     inkscape:current-layer="svg2" />
  <path
     style="fill:#000000;fill-opacity:1;stroke:#000000;stroke-width:0.58480972px;stroke-linecap:butt;stroke-linejoin:miter;stroke-opacity:1"
     d="m 82.509783,4.4989229 c -0.431145,-0.023818 -0.932061,0.2276543 -1.206167,0.8223891 -0.730966,1.5859568 -2.952348,3.3247656 -4.349528,4.751579 -1.397172,1.426813 0.445086,3.152971 2.156491,1.589951 1.711404,-1.563019 3.032538,-3.7433797 3.801263,-4.897781 0.690157,-1.1203503 0.479508,-1.8790891 0,-2.1564858 C 82.791959,4.5392236 82.653499,4.5068634 82.509783,4.4989229 z M 69.698795,5.9243966 c -0.529007,0.026383 -1.17924,0.3824251 -1.845805,1.2244453 -1.073196,1.4588406 -3.159394,4.0551761 -4.312972,6.8532391 -1.153584,2.79806 1.797255,4.288833 2.924048,1.937182 1.126782,-2.351652 2.236482,-5.869353 3.856089,-7.4745989 1.113478,-1.1036058 0.542458,-2.5983069 -0.62136,-2.5402675 z m 27.412954,1.5168507 c -0.112916,-0.00904 -0.219718,-8.819e-4 -0.328952,0.018277 -0.873917,0.1533187 -1.574142,1.1727862 -1.206175,2.5219915 0.735934,2.6984122 -0.248121,7.1182382 -0.493427,10.3072712 -0.0015,0.01286 5.8e-4,0.02379 0,0.03655 1.497118,-0.746833 2.974938,-1.432289 4.440896,-2.06511 0.14778,-3.14401 -0.305537,-6.295248 -0.511711,-8.150785 C 98.744072,8.2849511 97.902189,7.5044964 97.111749,7.4412517 z m 2.412342,10.8189797 c -0.02807,0.596858 -0.0679,1.185613 -0.146206,1.772704 -0.488643,3.664816 -4.504663,3.444919 -4.29469,0.292405 -2.463896,1.229103 -4.955548,2.595022 -7.401505,4.038842 0.123396,1.177693 0.286659,2.370582 0.420335,3.490583 9.810577,-5.432748 23.102905,-11.259876 26.773315,-10.142793 -0.2453,6.868685 -2.69561,7.854185 -5.88464,16.685352 4.9062,0.735931 36.55418,-20.116851 57.89616,-3.435758 -17.66233,0.49062 -27.97042,12.25715 -50.29364,30.410106 7.84993,-0.490621 29.93915,31.158741 21.10798,48.575752 C 135.49341,104.79591 108.01013,71.919328 97.952411,72.409948 87.894691,72.900568 68.763187,100.86885 47.4212,117.54995 45.704029,114.85154 42.268994,94.001468 52.081403,69.961059 44.231476,65.054858 25.589912,67.997925 12.588472,87.377425 14.305643,80.018118 23.872143,57.454419 55.51716,54.756008 50.120335,53.038835 40.05696,37.096424 41.774131,29.737117 c 5.887445,-1.962481 27.486782,7.108386 35.582015,5.391215 0.884595,-1.137339 3.447722,-2.959927 6.834963,-5.007433 -0.09517,-0.267014 -0.175426,-0.548108 -0.219298,-0.877215 -0.109903,-0.82425 -0.148823,-1.667355 -0.164484,-2.503716 -2.687875,1.702853 -5.269,3.452066 -7.675625,5.190186 -0.701199,0.01921 -1.379946,0.0256 -2.046834,0.01828 -0.498661,1.936415 -3.02201,2.022166 -3.929191,-0.182752 C 56.608764,30.554815 50.375711,24.309107 39.581095,27.763385 35.656132,31.197727 43.998109,49.851909 49.394933,53.531563 28.298256,57.947145 7.920538,69.478934 8.1658481,96.953683 26.564114,73.158588 39.576898,69.466221 48.408066,72.409948 39.331588,85.411396 40.549702,121.48477 46.927767,122.46601 55.513624,122.71132 89.126866,74.864466 98.939281,75.845706 111.45009,77.317566 132.29946,112.14961 138.43221,115.33864 152.41489,97.6763 133.78042,64.074997 122.49615,60.640656 148.25371,43.468942 145.05847,37.084481 170.81605,32.423587 152.17247,8.1378768 125.91641,28.01784 113.6509,30.961562 c 2.4531,-4.170273 6.13698,-13.746547 3.92919,-15.95434 -4.4114,-1.393074 -10.97136,0.19472 -18.055999,3.253005 z M 70.155677,31.765676 c 1.243201,0.11112 2.553648,0.167643 3.929191,0.182753 0.0743,-0.28852 0.101464,-0.618108 0.0731,-0.986867 -0.24531,-3.189032 -1.229364,-7.608858 -0.493434,-10.307271 0.735931,-2.698412 -2.822478,-4.042346 -3.435756,0.127928 -0.245311,2.207791 -0.856127,6.243837 -0.365507,9.923489 0.05316,0.398464 0.165823,0.752309 0.292405,1.059968 z m 13.65165,-5.025708 c 1.272499,-0.806166 2.568956,-1.605218 3.874363,-2.37579 -0.200853,-1.917071 -0.291141,-3.787595 0.09138,-5.190186 0.735926,-2.698412 -2.822485,-4.042346 -3.435759,0.127927 -0.190365,1.713242 -0.584245,4.540688 -0.529988,7.438049 z m 0.383782,3.380931 c 0.968923,2.718394 4.298762,2.264171 4.075392,-0.639636 -0.03946,-0.513124 -0.09712,-1.062129 -0.164476,-1.626502 -1.38576,0.767385 -2.702514,1.535691 -3.910916,2.266138 z M 59.373248,12.978664 c -0.789202,0.06079 -1.632323,0.825424 -1.900631,2.649919 -0.24531,2.207791 -0.856127,6.243837 -0.365506,9.92349 0.49062,3.679653 4.540006,3.444887 4.294696,0.255854 -0.24531,-3.189033 -1.229363,-7.608859 -0.493433,-10.307271 0.413961,-1.517856 -0.520436,-2.600149 -1.535126,-2.521992 z m 32.749346,15.077125 c -0.90282,0.006 -2.910245,1.911817 -2.9606,3.655061 -0.693839,6.5915 -1.200943,12.967825 -1.589949,21.583134 -0.818308,-4.754098 -1.388619,-14.422003 -1.041693,-17.544292 0.34692,-3.122289 -1.124374,-2.751333 -1.388927,-0.694462 -0.693839,4.509974 1.342791,11.006389 1.078245,17.781871 -0.571186,-2.055685 -3.906293,-15.670339 -3.417481,-18.202202 0.120853,-1.61195 -1.350831,-1.291468 -1.187899,-0.09138 -0.04483,2.15173 1.006697,9.837999 2.741295,16.429498 -1.209122,-1.810375 -5.116768,-12.101039 -4.769848,-15.223328 -0.634321,-0.914497 -1.662748,-0.364267 -1.315821,1.023417 0.346919,1.387684 3.400131,10.218993 4.440897,13.688202 -1.473668,-2.050267 -4.168319,-6.728409 -5.902924,-10.197619 -1.734605,-3.46921 -5.535249,-2.429376 -3.106803,-1.041692 2.428448,1.387683 6.579732,9.011583 7.273571,11.093109 0.693839,2.081526 -12.137901,-13.177732 -15.607109,-14.565417 5.203818,7.979184 14.998517,13.693088 20.01146,23.593417 0.602639,-2.004447 0.314679,-2.117058 0.109652,-3.746437 1.757453,0.885045 1.87943,0.250293 2.997147,2.924048 0.19781,-8.30387 0.97076,-23.122595 3.399205,-27.979489 0.910668,-1.821335 0.77927,-2.48904 0.237582,-2.485442 z m 36.038896,32.329013 c 5.89765,4.509976 12.83205,15.600291 15.95434,28.436374 1.30547,5.366924 3.96873,3.317316 13.28615,12.098244 1.18396,-0.78185 2.4286,-1.547287 3.72815,-2.302681 -10.40126,-12.995378 -22.36997,-23.914867 -20.13938,-24.360982 3.33796,-0.667589 9.93724,0.96613 29.58772,19.627673 0.36295,-0.156885 0.72661,-0.320434 1.09651,-0.475158 -5.59563,-9.504856 -25.55611,-24.832385 -43.51349,-33.02347 z m 43.51349,33.02347 c 0.56623,0.961802 0.9877,1.875888 1.24273,2.704748 -0.81379,-0.787538 -1.56654,-1.495766 -2.33924,-2.22959 -3.45174,1.49204 -6.59501,3.074743 -9.44834,4.733309 1.83428,2.291741 3.61328,4.642791 5.2633,7.017711 8.73867,-6.111253 15.60325,-12.977214 18.64924,-12.864394 -6.40584,3.781767 -10.95423,11.602264 -16.43793,16.172224 2.54004,4.01719 4.57423,8.02486 5.70189,11.80585 -2.87619,-3.89132 -5.45951,-7.18455 -7.80355,-9.99659 -10.93793,9.43908 -24.97474,25.03503 -30.03193,31.83064 3.14968,-12.11417 17.85525,-27.8935 27.27236,-35.02882 -2.39993,-2.71888 -4.50184,-4.90016 -6.34153,-6.63394 -27.14499,17.92571 -24.61684,42.14286 -24.61684,42.14286 -6.37806,-16.6811 -25.99313,-52.488105 -33.352425,-62.300512 -1.1039,-0.61328 -2.085522,-0.836562 -2.905777,-0.767563 -2.460765,0.206982 2.405302,8.36094 3.877162,10.568734 2.4531,4.41558 18.22893,30.720821 20.19141,38.080121 -24.040397,-1.47186 -62.862812,24.2289 -58.937848,52.19426 58.912478,-19.41519 35.754642,-41.52747 61.880178,-49.74537 0,0 14.64276,31.10183 28.38013,62.99216 2.33729,5.42585 1.96954,-1.96248 7.36636,-0.49062 -8.34054,-14.228 -23.79373,-46.71906 -23.79373,-46.71906 36.30591,-9.32179 36.05511,-32.26266 58.13302,-60.228014 -8.42944,1.837997 -15.68467,4.141892 -21.94864,6.761856 z m -7.93147,14.145088 c 0.87796,0.99465 1.79916,2.04602 2.75957,3.19818 0.6986,-0.60287 1.38448,-1.21158 2.10166,-1.80926 -0.69662,-1.10173 -1.44823,-2.20949 -2.21131,-3.30783 -0.87948,0.61506 -1.76731,1.25016 -2.64992,1.91891 z M 39.343516,100.62702 c -6.244578,5.89766 -7.966484,16.65159 -6.231879,19.77388 2.428448,-9.71378 3.803742,-11.79005 6.57911,-14.56542 2.775368,-2.77537 -0.347231,-5.20846 -0.347231,-5.20846 z m 9.028,22.02174 c -0.796157,-0.0508 -1.736154,1.57168 -1.736154,1.57168 0.346921,7.97918 0.510211,14.05395 -6.250153,25.31129 9.019947,-8.3261 9.37492,-19.06579 9.027999,-24.2696 -0.130096,-1.95144 -0.563998,-2.58288 -1.041692,-2.61337 z m 68.313084,9.19248 c -25.266949,12.51081 -39.831045,31.09826 -49.398145,41.15598 3.924962,-6.86869 24.376502,-36.49509 49.398145,-41.15598 z"
     id="path2987"
     inkscape:connector-curvature="0"
     sodipodi:nodetypes="sssscssscsssssssccccscsccccccccscccccccsccccccccccccccccccsscscccscccsccscsssssccsccccccscsssccccsscsccscccccccccccccccccsccccscccccccccccscsccssccc" />
</svg>
