<?xml version="1.0" encoding="UTF-8" standalone="no"?>
<!-- Created with Inkscape (http://www.inkscape.org/) -->

<svg
   xmlns:dc="http://purl.org/dc/elements/1.1/"
   xmlns:cc="http://creativecommons.org/ns#"
   xmlns:rdf="http://www.w3.org/1999/02/22-rdf-syntax-ns#"
   xmlns:svg="http://www.w3.org/2000/svg"
   xmlns="http://www.w3.org/2000/svg"
   xmlns:sodipodi="http://sodipodi.sourceforge.net/DTD/sodipodi-0.dtd"
   xmlns:inkscape="http://www.inkscape.org/namespaces/inkscape"
   id="svg2"
   version="1.1"
   inkscape:version="0.91 r"
   width="50"
   height="50"
   sodipodi:docname="pictofleur.svg">
  <metadata
     id="metadata8">
    <rdf:RDF>
      <cc:Work
         rdf:about="">
        <dc:format>image/svg+xml</dc:format>
        <dc:type
           rdf:resource="http://purl.org/dc/dcmitype/StillImage" />
        <dc:title></dc:title>
      </cc:Work>
    </rdf:RDF>
  </metadata>
  <defs
     id="defs6" />
  <sodipodi:namedview
     pagecolor="#ffffff"
     bordercolor="#666666"
     borderopacity="1"
     objecttolerance="10"
     gridtolerance="10"
     guidetolerance="10"
     inkscape:pageopacity="0"
     inkscape:pageshadow="2"
     inkscape:window-width="1479"
     inkscape:window-height="810"
     id="namedview4"
     showgrid="false"
     showguides="true"
     inkscape:guide-bbox="true"
     inkscape:zoom="3.2267271"
     inkscape:cx="120.75995"
     inkscape:cy="104.48123"
     inkscape:window-x="75"
     inkscape:window-y="34"
     inkscape:window-maximized="0"
     inkscape:current-layer="svg2" />
  <path
     style="fill:#000000;fill-opacity:1;stroke:#000000;stroke-width:0.14398469px;stroke-linecap:butt;stroke-linejoin:miter;stroke-opacity:1"
     d="m 20.185733,0.86669632 c -0.10514,-0.005353 -0.227305,0.0566124 -0.294153,0.20442038 -0.178263,0.3942126 -0.72,0.8264211 -1.060735,1.1810719 -0.340732,0.3546508 0.108549,0.7837141 0.525911,0.3952029 0.417367,-0.3885111 0.739556,-0.9304781 0.927028,-1.2174081 0.168311,-0.278485 0.116944,-0.4670861 0,-0.53602478 -0.02924,-0.0172648 -0.063,-0.0252949 -0.09805,-0.0273025 z M 17.061471,1.2210126 c -0.129018,0.00669 -0.287585,0.095023 -0.450143,0.3043553 -0.261723,0.362614 -0.770491,1.0079824 -1.051819,1.7034721 -0.281329,0.6955031 0.438303,1.0660536 0.713098,0.4815135 0.274792,-0.5845401 0.545419,-1.4589144 0.940399,-1.8579183 0.271548,-0.2743093 0.132292,-0.6458367 -0.151535,-0.6314226 z m 6.685295,0.3770414 c -0.02754,-0.00268 -0.05358,-2.141e-4 -0.08023,0.00402 -0.213124,0.038143 -0.38389,0.2915072 -0.294154,0.6268723 0.179475,0.6707301 -0.06051,1.7693459 -0.120338,2.562027 -3.65e-4,0.00268 1.41e-4,0.00535 0,0.00937 C 23.617156,4.6146936 23.977557,4.444321 24.335065,4.2870241 24.371108,3.5055316 24.260547,2.7222458 24.210267,2.2610217 24.144834,1.80752 23.939521,1.6135254 23.746754,1.5977997 Z m 0.588305,2.689211 c -0.0069,0.1483567 -0.01656,0.2947058 -0.03565,0.4406267 -0.119167,0.9109516 -1.098568,0.8562931 -1.047362,0.072673 -0.600878,0.3055064 -1.208527,0.6450337 -1.80503,1.0039137 0.0301,0.2927251 0.06991,0.5892377 0.102511,0.867629 2.392541,-1.3503871 5.634186,-2.7987954 6.529303,-2.5211269 -0.05982,1.7072998 -0.657389,1.952259 -1.435108,4.1473759 1.196491,0.1829264 8.914597,-5.0003231 14.11934,-0.8540045 C 36.4557,7.566276 33.94183,10.491037 28.497788,15.003222 c 1.914391,-0.121924 7.301365,7.744955 5.147677,12.0742 -0.538422,-1.280485 -7.240865,-9.452429 -9.693677,-9.330478 -2.452811,0.121924 -7.118478,7.073864 -12.323225,11.220196 -0.418772,-0.670731 -1.256486,-5.853311 1.136501,-11.828907 -1.91439,-1.219509 -6.4605733,-0.487964 -9.63128,4.329084 0.4187725,-1.82925 2.7517888,-7.437789 10.46917,-8.108519 -1.316143,-0.426828 -3.770333,-4.3895374 -3.351561,-6.2188015 1.435792,-0.4878038 6.703299,1.7668967 8.677512,1.3400684 0.215729,-0.2827008 0.840807,-0.7357341 1.666866,-1.2446705 -0.0232,-0.066382 -0.04279,-0.1362445 -0.05348,-0.2180448 -0.02681,-0.2048755 -0.0363,-0.4144485 -0.04011,-0.6223353 -0.655501,0.4232683 -1.284969,0.8580598 -1.871881,1.2900943 -0.171005,0.00535 -0.336533,0.00669 -0.499169,0.00402 C 18.009514,8.1704495 17.39414,8.1917561 17.172902,7.6437531 13.869169,7.3427704 12.349091,5.7903183 9.7165702,6.6489268 8.7593756,7.5025834 10.793763,12.139342 12.109907,13.053974 6.964985,14.151533 1.9953995,17.017915 2.0552241,23.847168 c 4.4868497,-5.914621 7.6603234,-6.832412 9.8140109,-6.100706 -2.2135126,3.2317 -1.9164463,12.198253 -0.361006,12.442154 2.093863,0.06103 10.291244,-11.832051 12.684231,-11.588149 3.051056,0.365852 8.135665,9.023861 9.63128,9.816542 C 37.233746,24.026775 32.689291,15.674688 29.937358,14.821045 36.218945,10.552762 35.43971,8.9658073 41.721301,7.8072868 37.174625,1.7707152 30.771468,6.7121641 27.780236,7.4438698 28.378481,6.4073001 29.276883,4.0269682 28.73846,3.478189 27.662637,3.1319297 26.062837,3.5266375 24.33508,4.2867698 Z m -7.162178,3.3569699 c 0.303184,0.02757 0.622767,0.041623 0.958226,0.04537 0.01811,-0.071736 0.02475,-0.1536298 0.01783,-0.2452938 -0.05983,-0.7926811 -0.299808,-1.8912969 -0.120337,-2.562027 0.179473,-0.6707168 -0.688328,-1.0047703 -0.83789,0.031853 -0.05983,0.5487793 -0.208787,1.551997 -0.08913,2.4666291 0.01292,0.099038 0.04044,0.186995 0.0713,0.2634686 z M 20.502169,6.3950274 C 20.812498,6.1946489 21.12867,5.9960235 21.447024,5.8044915 21.398035,5.3279701 21.376019,4.8630254 21.46931,4.5143973 21.648784,3.8436671 20.780981,3.5096136 20.63142,4.5462501 20.585,4.9721014 20.488946,5.6748986 20.502177,6.395081 Z m 0.09359,0.8403801 c 0.236295,0.6756955 1.048355,0.5627918 0.99388,-0.1589966 -0.0096,-0.1275453 -0.02368,-0.264004 -0.04011,-0.4042904 -0.337951,0.1907558 -0.659071,0.3817257 -0.953769,0.563287 z M 14.543341,2.9744588 c -0.192465,0.015123 -0.39808,0.2051699 -0.463513,0.6586716 -0.05983,0.5487792 -0.208788,1.551997 -0.08913,2.4666291 0.119649,0.914632 1.107188,0.8562797 1.047363,0.063572 C 14.978227,5.3706502 14.738249,4.2720345 14.91772,3.6013043 15.01867,3.2240219 14.790804,2.9549991 14.543343,2.9744321 Z m 7.986698,3.7476359 c -0.220173,0.00134 -0.709731,0.4752098 -0.722011,0.9085158 -0.16921,1.6384146 -0.292879,3.2233355 -0.387747,5.3647975 C 21.220717,11.813707 21.081634,9.4106097 21.16624,8.6345242 21.25085,7.8584387 20.892035,7.950638 20.827517,8.4619031 20.658308,9.582923 21.154988,11.197702 21.090473,12.881848 20.951168,12.370878 20.137831,8.9867526 20.257039,8.3574311 20.286519,7.9567543 19.927608,8.0364132 19.967342,8.3346791 19.956379,8.869526 20.212849,10.780055 20.635871,12.41847 20.340999,11.968474 19.388028,9.4105829 19.472632,8.6344974 19.317938,8.4071778 19.067131,8.5438908 19.151739,8.8888786 c 0.08461,0.344921 0.829202,2.5400784 1.083017,3.4023934 -0.359389,-0.509619 -1.016544,-1.672435 -1.439568,-2.5347643 -0.423024,-0.8623158 -1.3499,-0.6038526 -0.757666,-0.2589183 0.592234,0.344921 1.604622,2.2399516 1.773831,2.7573466 0.169209,0.517395 -2.960113,-3.2755176 -3.806161,-3.6204386 1.269074,1.9833356 3.657742,3.4036116 4.880265,5.8644726 0.146965,-0.49823 0.07674,-0.526228 0.02675,-0.931228 0.428597,0.219985 0.458344,0.06223 0.730925,0.726821 0.04824,-2.064052 0.236743,-5.7474602 0.828976,-6.9547102 0.222088,-0.4527255 0.190044,-0.6186816 0.05794,-0.6177849 z m 8.788932,8.0358333 c 1.438281,1.12102 3.129398,3.877684 3.890841,7.068269 0.318369,1.334033 0.967868,0.824575 3.240141,3.007191 0.288736,-0.194329 0.59227,-0.38459 0.909196,-0.572361 -2.536591,-3.230187 -5.455442,-5.944385 -4.91146,-6.055268 0.81404,-0.165943 2.423429,0.240141 7.215661,4.878733 0.08852,-0.03895 0.1772,-0.07963 0.267409,-0.118043 C 40.566134,20.603878 35.6983,16.793995 31.318971,14.757981 Z m 10.611788,8.208468 c 0.138089,0.23907 0.240874,0.46627 0.303069,0.672296 -0.198462,-0.195748 -0.382037,-0.371795 -0.570478,-0.5542 -0.841788,0.370872 -1.608348,0.764282 -2.304201,1.176535 0.447333,0.569644 0.881184,1.154037 1.28358,1.744359 2.13113,-1.519047 3.80522,-3.225677 4.548056,-3.197639 -1.562215,0.940021 -2.671447,2.883915 -4.008776,4.019844 0.619448,0.998534 1.115534,1.994698 1.39054,2.934518 -0.701427,-0.967242 -1.33143,-1.785821 -1.903079,-2.484804 -2.667472,2.346218 -6.090678,6.222817 -7.323992,7.911969 0.768123,-3.011152 4.354422,-6.933336 6.651005,-8.706925 -0.585279,-0.675816 -1.097878,-1.217997 -1.54653,-1.648961 -6.619944,4.455693 -6.003396,10.475214 -6.003396,10.475214 -1.555439,-4.146319 -6.339036,-13.046663 -8.133772,-15.485682 -0.269213,-0.152438 -0.508605,-0.20794 -0.708642,-0.190782 -0.600116,0.05139 0.586589,2.078225 0.945536,2.627004 0.598246,1.097558 4.445553,7.636107 4.92415,9.465358 -5.862815,-0.365853 -15.330575,6.022438 -14.37338,12.973642 14.367193,-4.825936 8.719611,-10.322253 15.090937,-12.364932 0,0 3.570981,7.730809 6.921162,15.657607 0.570003,1.348674 0.480318,-0.487804 1.79646,-0.121924 -2.034036,-3.536577 -5.802661,-11.612695 -5.802661,-11.612695 8.85405,-2.317068 8.792887,-8.019345 14.177104,-14.970535 -2.055718,0.45686 -3.825075,1.029529 -5.352692,1.68076 z m -1.934276,3.515953 c 0.214113,0.247234 0.438769,0.508575 0.672987,0.794956 0.17037,-0.149842 0.337638,-0.301156 0.512539,-0.449714 -0.169888,-0.273854 -0.353185,-0.549194 -0.53928,-0.822205 -0.214481,0.15288 -0.430999,0.310739 -0.646246,0.476963 z M 9.6586194,24.760716 c -1.5228878,1.46594 -1.9428149,4.138984 -1.5197896,4.915083 0.5922342,-2.4145 0.927632,-2.930584 1.6044706,-3.620452 0.6768386,-0.689855 -0.084686,-1.294631 -0.084686,-1.294631 z m 2.2016906,5.473819 c -0.194162,-0.01205 -0.423402,0.390666 -0.423402,0.390666 0.08461,1.983336 0.124423,3.493309 -1.524247,6.291475 2.199726,-2.069566 2.286295,-4.739076 2.201689,-6.032556 -0.03173,-0.485061 -0.137548,-0.642009 -0.25404,-0.649585 z m 16.659752,2.284921 c -6.16194,3.109736 -9.713736,7.729926 -12.046899,10.229906 0.957194,-1.707313 5.944783,-9.071372 12.046899,-10.229906 z"
     id="path2987"
     inkscape:connector-curvature="0"
     sodipodi:nodetypes="sssscssscsssssssccccscsccccccccscccccccsccccccccccccccccccsscscccscccsccscsssssccsccccccscsssccccsscsccscccccccccccccccccsccccscccccccccccscsccssccc" />
</svg>
