<?xml version="1.0" encoding="UTF-8" standalone="no"?>
<!-- Created with Inkscape (http://www.inkscape.org/) -->
<svg xmlns:dc="http://purl.org/dc/elements/1.1/" xmlns:cc="http://creativecommons.org/ns#" xmlns:rdf="http://www.w3.org/1999/02/22-rdf-syntax-ns#" xmlns:svg="http://www.w3.org/2000/svg" xmlns="http://www.w3.org/2000/svg" xmlns:sodipodi="http://sodipodi.sourceforge.net/DTD/sodipodi-0.dtd" xmlns:inkscape="http://www.inkscape.org/namespaces/inkscape" width="200" height="200" id="svg3051" version="1.1" inkscape:version="0.48.4 r9939" sodipodi:docname="pictoheure3.svg">
  <defs id="defs3053"/>
  <sodipodi:namedview id="base" pagecolor="#ffffff" bordercolor="#666666" borderopacity="1.0" inkscape:pageopacity="0.0" inkscape:pageshadow="2" inkscape:zoom="0.98994949" inkscape:cx="470.23621" inkscape:cy="20.840401" inkscape:document-units="px" inkscape:current-layer="layer5" showgrid="false" showguides="true" inkscape:guide-bbox="true" inkscape:snap-from-guide="false" inkscape:window-width="1600" inkscape:window-height="876" inkscape:window-x="0" inkscape:window-y="24" inkscape:window-maximized="1" objecttolerance="1" gridtolerance="1" guidetolerance="1">
    <sodipodi:guide orientation="1,0" position="10.357143,723.92857" id="guide3864"/>
    <sodipodi:guide orientation="1,0" position="989.94949,345.47217" id="guide3876"/>
    <sodipodi:guide orientation="1,0" position="-1155.7143,2211.4286" id="guide3975"/>
    <sodipodi:guide orientation="1,0" position="-1185.7143,2214.2857" id="guide3977"/>
    <sodipodi:guide orientation="0,1" position="688.57143,17.142857" id="guide3986"/>
    <sodipodi:guide orientation="1,0" position="507.14286,1060" id="guide3996"/>
    <sodipodi:guide orientation="1,0" position="-694.28572,875.71429" id="guide3039"/>
  </sodipodi:namedview>
  <metadata id="metadata3056">
    <rdf:RDF>
      <cc:Work rdf:about="">
        <dc:format>image/svg+xml</dc:format>
        <dc:type rdf:resource="http://purl.org/dc/dcmitype/StillImage"/>
        <dc:title/>
      </cc:Work>
    </rdf:RDF>
  </metadata>
  <g inkscape:label="Calque 1" inkscape:groupmode="layer" id="layer1" transform="translate(0,-852.36218)"/>
  <g inkscape:groupmode="layer" id="layer6" inkscape:label="cercle" transform="translate(0,-800)">
    <path id="path3936" d="m 99.991658,803.01643 c -59.881271,0.28538 -96.3687954,50.49748 -96.1833731,97.67462 0.2363889,60.14833 50.9199011,97.53344 97.6056751,97.15454 54.99532,-0.44635 96.63713,-45.2696 97.81244,-97.15454 0.78521,-34.66338 -29.35619,-97.09549 -97.81244,-97.66834 -0.4744,-0.004 -0.95079,-0.009 -1.422302,-0.006 z m 2.199242,10.88338 c 33.27898,0.10739 86.24845,28.40517 84.86142,87.36767 -0.85928,36.52791 -28.92565,86.21479 -85.63836,86.21479 -24.059944,0 -87.07945,-22.34494 -87.07945,-86.79122 0,-36.08992 30.939582,-86.21211 87.07945,-86.78498 0.25954,-0.002 0.51489,-0.008 0.77694,-0.006 z" style="fill:#000000;fill-opacity:1;stroke:#000000;stroke-width:0.20049952px;stroke-linecap:butt;stroke-linejoin:miter;stroke-opacity:1" inkscape:connector-curvature="0"/>
  </g>
  <g inkscape:groupmode="layer" id="layer5" inkscape:label="333" transform="translate(0,-800)">
    <path sodipodi:nodetypes="ccccccc" inkscape:connector-curvature="0" id="path3938" d="m 96.398783,896.55153 -42.204026,39.98939 7.475204,8.00676 45.154799,-42.76594 -0.47261,-74.90227 -9.953367,0 c 0.13004,26.59933 -0.481698,43.07584 0,69.67206 z" style="fill:#000000;fill-opacity:1;stroke:#000000;stroke-width:0.20049952px;stroke-linecap:butt;stroke-linejoin:miter;stroke-opacity:1"/>
  </g>
  <g inkscape:groupmode="layer" id="layer4" inkscape:label="22" transform="translate(0,-800)"/>
</svg>